<svg viewBox="-8 -4.5 16 9" xmlns="http://www.w3.org/2000/svg" xmlns:xlink="http://www.w3.org/1999/xlink" version="1.1" preserveAspectRatio="none"><g stroke-width="0.05" transform="scale(1, -1)"><g><g transform="translate(0, 3.104359)"><g transform="translate(0, 0)"><g transform="scale(1)"><g transform="translate(0, 0)"><g opacity="1"><g transform="scale(2)"><g transform="translate(-4.060839, -0.254545)"><g><path d="M0.055791,0.340722 C0.055791,0.134496 0.217186,-0.021918 0.402491,-0.021918 C0.564882,-0.021918 0.662516,0.116563 0.662516,0.23213 C0.662516,0.242092 0.662516,0.249066 0.649564,0.249066 C0.638605,0.249066 0.638605,0.243088 0.637609,0.233126 C0.629639,0.09066 0.523039,0.008966 0.414446,0.008966 C0.353674,0.008966 0.158406,0.042839 0.158406,0.339726 C0.158406,0.637609 0.352677,0.671482 0.41345,0.671482 C0.522042,0.671482 0.61071,0.580822 0.630635,0.435367 C0.632628,0.42142 0.632628,0.418431 0.646575,0.418431 C0.662516,0.418431 0.662516,0.42142 0.662516,0.442341 L0.662516,0.678456 C0.662516,0.695392 0.662516,0.702366 0.651557,0.702366 C0.647572,0.702366 0.643587,0.702366 0.635616,0.690411 L0.585803,0.616687 C0.548941,0.652553 0.498132,0.702366 0.402491,0.702366 C0.216189,0.702366 0.055791,0.54396 0.055791,0.340722 Z" /><path d="M1.188766,0.2132 C1.188766,0.340722 1.08914,0.446326 0.968592,0.446326 C0.844059,0.446326 0.747421,0.337733 0.747421,0.2132 C0.747421,0.084682 0.851033,-0.010959 0.967596,-0.010959 C1.088144,-0.010959 1.188766,0.086675 1.188766,0.2132 Z M0.968592,0.013948 C0.925753,0.013948 0.881917,0.034869 0.855018,0.080697 C0.830111,0.124533 0.830111,0.185305 0.830111,0.221171 C0.830111,0.260025 0.830111,0.313823 0.854022,0.357659 C0.880921,0.403487 0.927745,0.424408 0.967596,0.424408 C1.011431,0.424408 1.054271,0.402491 1.080174,0.359651 C1.106077,0.316811 1.106076,0.259029 1.106076,0.221171 C1.106076,0.185305 1.106076,0.131507 1.084159,0.087671 C1.062241,0.042839 1.018405,0.013948 0.968592,0.013948 Z" /><path d="M1.327249,0.342715 L1.327249,0.075716 C1.327249,0.030884 1.31629,0.030884 1.24954,0.030884 L1.24954,0 C1.28441,0.000996 1.335219,0.002989 1.362118,0.002989 C1.388021,0.002989 1.439827,0.000996 1.4737,0 L1.4737,0.030884 C1.40695,0.030884 1.395991,0.030884 1.395991,0.075716 L1.395991,0.259029 C1.395991,0.36264 1.466726,0.418431 1.530487,0.418431 C1.593252,0.418431 1.60421,0.364633 1.60421,0.307846 L1.60421,0.075716 C1.60421,0.030884 1.593252,0.030884 1.526502,0.030884 L1.526502,0 C1.561371,0.000996 1.612181,0.002989 1.63908,0.002989 C1.664983,0.002989 1.716788,0.000996 1.750661,0 L1.750661,0.030884 C1.683912,0.030884 1.672953,0.030884 1.672953,0.075716 L1.672953,0.259029 C1.672953,0.36264 1.743687,0.418431 1.807448,0.418431 C1.870213,0.418431 1.881172,0.364633 1.881172,0.307846 L1.881172,0.075716 C1.881172,0.030884 1.870213,0.030884 1.803463,0.030884 L1.803463,0 C1.838332,0.000996 1.889142,0.002989 1.916041,0.002989 C1.941944,0.002989 1.99375,0.000996 2.027623,0 L2.027623,0.030884 C1.975817,0.030884 1.95091,0.030884 1.949914,0.060772 L1.949914,0.251059 C1.949914,0.336737 1.949914,0.367621 1.91903,0.403487 C1.905082,0.420423 1.872205,0.440349 1.814422,0.440349 C1.730736,0.440349 1.6869,0.380573 1.669964,0.342715 C1.656016,0.42939 1.582293,0.440349 1.537461,0.440349 C1.464733,0.440349 1.417909,0.397509 1.390014,0.335741 L1.390014,0.440349 L1.24954,0.42939 L1.24954,0.398506 C1.319279,0.398506 1.327249,0.391532 1.327249,0.342715 Z" /><path d="M2.219239,0.374595 L2.219239,0.440349 L2.075777,0.42939 L2.075777,0.398506 C2.146512,0.398506 2.153486,0.392528 2.153486,0.348692 L2.153486,-0.117559 C2.153486,-0.162391 2.142527,-0.162391 2.075777,-0.162391 L2.075777,-0.193275 C2.10965,-0.192279 2.161456,-0.190286 2.187359,-0.190286 C2.214258,-0.190286 2.265068,-0.192279 2.299937,-0.193275 L2.299937,-0.162391 C2.233187,-0.162391 2.222228,-0.162391 2.222228,-0.117559 L2.222228,0.049813 L2.222228,0.05878 C2.22721,0.042839 2.269053,-0.010959 2.344769,-0.010959 C2.463324,-0.010959 2.566936,0.086675 2.566936,0.215193 C2.566936,0.341719 2.470298,0.440349 2.358716,0.440349 C2.281008,0.440349 2.239165,0.396513 2.219239,0.374595 Z M2.222228,0.113574 L2.222228,0.335741 C2.25112,0.38655 2.299937,0.415442 2.350746,0.415442 C2.423474,0.415442 2.484246,0.327771 2.484246,0.215193 C2.484246,0.094645 2.414507,0.010959 2.340784,0.010959 C2.300933,0.010959 2.263075,0.030884 2.236176,0.071731 C2.222228,0.092653 2.222228,0.093649 2.222228,0.113574 Z" /><path d="M2.990903,0.078705 L2.990903,-0.010959 L3.134365,0 L3.134365,0.030884 C3.064627,0.030884 3.056657,0.037858 3.056657,0.086675 L3.056657,0.440349 L2.910206,0.42939 L2.910206,0.398506 C2.979944,0.398506 2.987914,0.391532 2.987914,0.342715 L2.987914,0.16538 C2.987914,0.078705 2.940094,0.010959 2.867366,0.010959 C2.78368,0.010959 2.779695,0.057783 2.779695,0.109589 L2.779695,0.440349 L2.633244,0.42939 L2.633244,0.398506 C2.710953,0.398506 2.710953,0.395517 2.710953,0.306849 L2.710953,0.15741 C2.710953,0.079701 2.710953,-0.010959 2.862385,-0.010959 C2.918176,-0.010959 2.962012,0.016936 2.990903,0.078705 Z" /><path d="M3.3272,0.398506 L3.469665,0.398506 L3.469665,0.42939 L3.3272,0.42939 L3.3272,0.612702 L3.302293,0.612702 C3.301297,0.531009 3.271409,0.424408 3.173775,0.420423 L3.173775,0.398506 L3.258457,0.398506 L3.258457,0.123537 C3.258457,0.000996 3.35111,-0.010959 3.386976,-0.010959 C3.45771,-0.010959 3.485606,0.059776 3.485606,0.123537 L3.485606,0.180324 L3.460699,0.180324 L3.460699,0.125529 C3.460699,0.051806 3.430811,0.013948 3.393949,0.013948 C3.3272,0.013948 3.3272,0.104608 3.3272,0.121544 L3.3272,0.398506 Z" /><path d="M3.653865,0.251059 C3.659842,0.399502 3.743528,0.424408 3.777401,0.424408 C3.880016,0.424408 3.889979,0.289913 3.889979,0.251059 L3.653865,0.251059 Z M3.652868,0.230137 L3.930826,0.230137 C3.952744,0.230137 3.955733,0.230137 3.955733,0.251059 C3.955733,0.349689 3.901934,0.446326 3.777401,0.446326 C3.661835,0.446326 3.570178,0.343711 3.570178,0.219178 C3.570178,0.085679 3.674786,-0.010959 3.789356,-0.010959 C3.910901,-0.010959 3.955733,0.099626 3.955733,0.118555 C3.955733,0.128518 3.947762,0.130511 3.942781,0.130511 C3.933815,0.130511 3.931822,0.124533 3.92983,0.116563 C3.89496,0.013948 3.805297,0.013948 3.795334,0.013948 C3.745521,0.013948 3.70567,0.043836 3.682756,0.080697 C3.652868,0.128518 3.652868,0.194271 3.652868,0.230137 Z" /><path d="M4.151444,0.33076 L4.151444,0.440349 L4.012963,0.42939 L4.012963,0.398506 C4.082702,0.398506 4.090672,0.391532 4.090672,0.342715 L4.090672,0.075716 C4.090672,0.030884 4.079713,0.030884 4.012963,0.030884 L4.012963,0 C4.051818,0.000996 4.098642,0.002989 4.126537,0.002989 C4.166388,0.002989 4.213212,0.002989 4.253063,0 L4.253063,0.030884 L4.232141,0.030884 C4.158418,0.030884 4.156425,0.041843 4.156425,0.077709 L4.156425,0.231133 C4.156425,0.329763 4.198268,0.418431 4.273985,0.418431 C4.280958,0.418431 4.282951,0.418431 4.284943,0.417435 C4.281955,0.416438 4.262029,0.404483 4.262029,0.37858 C4.262029,0.350685 4.282951,0.335741 4.304869,0.335741 C4.322801,0.335741 4.347708,0.347696 4.347708,0.379577 C4.347708,0.411458 4.316824,0.440349 4.273985,0.440349 C4.201257,0.440349 4.165392,0.373599 4.151444,0.33076 Z" /><path d="M4.947461,0.658531 C4.938494,0.680448 4.935505,0.680448 4.912591,0.680448 L4.744223,0.680448 L4.744223,0.649564 L4.768133,0.649564 C4.844845,0.649564 4.846838,0.638605 4.846838,0.60274 L4.846838,0.104608 C4.846838,0.077709 4.846838,0.030884 4.744223,0.030884 L4.744223,0 C4.779092,0.000996 4.827909,0.002989 4.860786,0.002989 C4.893663,0.002989 4.942479,0.000996 4.977349,0 L4.977349,0.030884 C4.874733,0.030884 4.874733,0.077709 4.874733,0.104608 L4.874733,0.641594 L4.87573,0.641594 L5.115829,0.021918 C5.120811,0.008966 5.125792,0 5.135755,0 C5.146713,0 5.149702,0.00797 5.153687,0.018929 L5.398768,0.649564 L5.399764,0.649564 L5.399764,0.077709 C5.399764,0.041843 5.397772,0.030884 5.32106,0.030884 L5.297149,0.030884 L5.297149,0 C5.334011,0.002989 5.401757,0.002989 5.440611,0.002989 C5.479465,0.002989 5.546215,0.002989 5.583077,0 L5.583077,0.030884 L5.559167,0.030884 C5.482454,0.030884 5.480462,0.041843 5.480462,0.077709 L5.480462,0.60274 C5.480462,0.638605 5.482454,0.649564 5.559167,0.649564 L5.583077,0.649564 L5.583077,0.680448 L5.414708,0.680448 C5.388806,0.680448 5.388806,0.679452 5.381832,0.661519 L5.16365,0.100623 L4.947461,0.658531 Z" /><path d="M6.089845,0.2132 C6.089845,0.340722 5.990219,0.446326 5.869671,0.446326 C5.745138,0.446326 5.6485,0.337733 5.6485,0.2132 C5.6485,0.084682 5.752112,-0.010959 5.868675,-0.010959 C5.989223,-0.010959 6.089845,0.086675 6.089845,0.2132 Z M5.869671,0.013948 C5.826832,0.013948 5.782996,0.034869 5.756097,0.080697 C5.73119,0.124533 5.73119,0.185305 5.73119,0.221171 C5.73119,0.260025 5.73119,0.313823 5.755101,0.357659 C5.782,0.403487 5.828824,0.424408 5.868675,0.424408 C5.91251,0.424408 5.95535,0.402491 5.981253,0.359651 C6.007156,0.316811 6.007155,0.259029 6.007155,0.221171 C6.007155,0.185305 6.007155,0.131507 5.985238,0.087671 C5.96332,0.042839 5.919484,0.013948 5.869671,0.013948 Z" /><path d="M6.524994,0.054795 L6.524994,-0.010959 L6.671445,0 L6.671445,0.030884 C6.601707,0.030884 6.593737,0.037858 6.593737,0.086675 L6.593737,0.691407 L6.450275,0.680448 L6.450275,0.649564 C6.520013,0.649564 6.527983,0.64259 6.527983,0.593773 L6.527983,0.37858 C6.499091,0.414446 6.456252,0.440349 6.402454,0.440349 C6.284895,0.440349 6.180287,0.342715 6.180287,0.214197 C6.180287,0.087671 6.277921,-0.010959 6.391495,-0.010959 C6.455256,-0.010959 6.500088,0.022914 6.524994,0.054795 Z M6.524994,0.321793 L6.524994,0.117559 C6.524994,0.099626 6.524994,0.097634 6.514035,0.080697 C6.484147,0.032877 6.439316,0.010959 6.396476,0.010959 C6.351644,0.010959 6.315779,0.036862 6.291869,0.07472 C6.265966,0.115567 6.262977,0.172354 6.262977,0.2132 C6.262977,0.250062 6.264969,0.309838 6.293861,0.35467 C6.314783,0.385554 6.352641,0.418431 6.406439,0.418431 C6.441308,0.418431 6.483151,0.403487 6.514035,0.358655 C6.524994,0.341719 6.524994,0.339726 6.524994,0.321793 Z" /><path d="M6.811478,0.251059 C6.817455,0.399502 6.901141,0.424408 6.935014,0.424408 C7.037629,0.424408 7.047592,0.289913 7.047592,0.251059 L6.811478,0.251059 Z M6.810481,0.230137 L7.088439,0.230137 C7.110357,0.230137 7.113346,0.230137 7.113346,0.251059 C7.113346,0.349689 7.059547,0.446326 6.935014,0.446326 C6.819448,0.446326 6.727791,0.343711 6.727791,0.219178 C6.727791,0.085679 6.832399,-0.010959 6.946969,-0.010959 C7.068514,-0.010959 7.113346,0.099626 7.113346,0.118555 C7.113346,0.128518 7.105375,0.130511 7.100394,0.130511 C7.091428,0.130511 7.089435,0.124533 7.087443,0.116563 C7.052573,0.013948 6.96291,0.013948 6.952947,0.013948 C6.903134,0.013948 6.863283,0.043836 6.840369,0.080697 C6.810481,0.128518 6.810481,0.194271 6.810481,0.230137 Z" /><path d="M7.309057,0.33076 L7.309057,0.440349 L7.170576,0.42939 L7.170576,0.398506 C7.240315,0.398506 7.248285,0.391532 7.248285,0.342715 L7.248285,0.075716 C7.248285,0.030884 7.237326,0.030884 7.170576,0.030884 L7.170576,0 C7.209431,0.000996 7.256255,0.002989 7.28415,0.002989 C7.324001,0.002989 7.370825,0.002989 7.410676,0 L7.410676,0.030884 L7.389754,0.030884 C7.316031,0.030884 7.314038,0.041843 7.314038,0.077709 L7.314038,0.231133 C7.314038,0.329763 7.355881,0.418431 7.431598,0.418431 C7.438571,0.418431 7.440564,0.418431 7.442556,0.417435 C7.439568,0.416438 7.419642,0.404483 7.419642,0.37858 C7.419642,0.350685 7.440564,0.335741 7.462482,0.335741 C7.480414,0.335741 7.505321,0.347696 7.505321,0.379577 C7.505321,0.411458 7.474437,0.440349 7.431598,0.440349 C7.35887,0.440349 7.323005,0.373599 7.309057,0.33076 Z" /><path d="M7.642475,0.342715 L7.642475,0.075716 C7.642475,0.030884 7.631516,0.030884 7.564766,0.030884 L7.564766,0 C7.599636,0.000996 7.650445,0.002989 7.677344,0.002989 C7.703247,0.002989 7.755053,0.000996 7.788926,0 L7.788926,0.030884 C7.722176,0.030884 7.711217,0.030884 7.711217,0.075716 L7.711217,0.259029 C7.711217,0.36264 7.781952,0.418431 7.845713,0.418431 C7.908478,0.418431 7.919436,0.364633 7.919436,0.307846 L7.919436,0.075716 C7.919436,0.030884 7.908478,0.030884 7.841728,0.030884 L7.841728,0 C7.876597,0.000996 7.927407,0.002989 7.954306,0.002989 C7.980209,0.002989 8.032014,0.000996 8.065887,0 L8.065887,0.030884 C8.014082,0.030884 7.989175,0.030884 7.988179,0.060772 L7.988179,0.251059 C7.988179,0.336737 7.988179,0.367621 7.957294,0.403487 C7.943347,0.420423 7.91047,0.440349 7.852687,0.440349 C7.779959,0.440349 7.733135,0.397509 7.70524,0.335741 L7.70524,0.440349 L7.564766,0.42939 L7.564766,0.398506 C7.634505,0.398506 7.642475,0.391532 7.642475,0.342715 Z" /></g></g></g></g></g></g></g></g><g transform="translate(0, 1.260897)"><g transform="translate(0, 0)"><g transform="scale(1)"><g transform="translate(0, 0)"><g opacity="1"><g transform="translate(-2.958855, -0.243587)"><g><path d="M0.226152,0.314819 L0.394521,0.314819 C0.514072,0.314819 0.621669,0.395517 0.621669,0.495143 C0.621669,0.592777 0.523039,0.680448 0.38655,0.680448 L0.034869,0.680448 L0.034869,0.649564 L0.05878,0.649564 C0.135492,0.649564 0.137484,0.638605 0.137484,0.60274 L0.137484,0.077709 C0.137484,0.041843 0.135492,0.030884 0.05878,0.030884 L0.034869,0.030884 L0.034869,0 C0.069738,0.002989 0.143462,0.002989 0.18132,0.002989 C0.219178,0.002989 0.293898,0.002989 0.328767,0 L0.328767,0.030884 L0.304857,0.030884 C0.228144,0.030884 0.226152,0.041843 0.226152,0.077709 L0.226152,0.314819 Z M0.223163,0.340722 L0.223163,0.609714 C0.223163,0.64259 0.225156,0.649564 0.27198,0.649564 L0.360648,0.649564 C0.519054,0.649564 0.519054,0.54396 0.519054,0.495143 C0.519054,0.448319 0.519054,0.340722 0.360648,0.340722 L0.223163,0.340722 Z" /><path d="M0.982096,0.075716 C0.986081,0.035866 1.01298,-0.005978 1.059805,-0.005978 C1.080726,-0.005978 1.141498,0.00797 1.141498,0.088667 L1.141498,0.144458 L1.116592,0.144458 L1.116592,0.088667 C1.116592,0.030884 1.091685,0.024907 1.080726,0.024907 C1.047849,0.024907 1.043864,0.069738 1.043864,0.07472 L1.043864,0.273973 C1.043864,0.315816 1.043864,0.35467 1.007999,0.391532 C0.969144,0.430386 0.919331,0.446326 0.871511,0.446326 C0.789817,0.446326 0.721075,0.399502 0.721075,0.333748 C0.721075,0.303861 0.741,0.286924 0.766903,0.286924 C0.794798,0.286924 0.812731,0.306849 0.812731,0.332752 C0.812731,0.344707 0.80775,0.377584 0.761922,0.37858 C0.788821,0.41345 0.837638,0.424408 0.869518,0.424408 C0.918335,0.424408 0.975122,0.385554 0.975122,0.296887 L0.975122,0.260025 C0.924313,0.257036 0.854574,0.254047 0.791809,0.224159 C0.71709,0.190286 0.692183,0.138481 0.692183,0.094645 C0.692183,0.013948 0.788821,-0.010959 0.851585,-0.010959 C0.917339,-0.010959 0.963167,0.028892 0.982096,0.075716 Z M0.975122,0.239103 L0.975122,0.139477 C0.975122,0.044832 0.903391,0.010959 0.858559,0.010959 C0.809742,0.010959 0.768895,0.045828 0.768895,0.095641 C0.768895,0.150436 0.810739,0.233126 0.975122,0.239103 Z" /><path d="M1.265037,0.217186 C1.265037,0.379577 1.346731,0.42142 1.399533,0.42142 C1.408499,0.42142 1.471264,0.420423 1.506133,0.384558 C1.465286,0.381569 1.459308,0.351681 1.459308,0.33873 C1.459308,0.312827 1.477241,0.292902 1.505137,0.292902 C1.531039,0.292902 1.550965,0.309838 1.550965,0.339726 C1.550965,0.407472 1.475249,0.446326 1.398536,0.446326 C1.274003,0.446326 1.182347,0.33873 1.182347,0.215193 C1.182347,0.087671 1.280977,-0.010959 1.396544,-0.010959 C1.530043,-0.010959 1.561924,0.108593 1.561924,0.118555 C1.561924,0.128517 1.551961,0.128518 1.548972,0.128518 C1.540006,0.128518 1.538013,0.124533 1.536021,0.118555 C1.507129,0.025903 1.442372,0.013948 1.40551,0.013948 C1.352708,0.013948 1.265037,0.056787 1.265037,0.217186 Z" /><path d="M1.669188,0.075716 C1.669188,0.030884 1.658229,0.030884 1.591479,0.030884 L1.591479,0 C1.624356,0.000996 1.671181,0.002989 1.700072,0.002989 C1.72996,0.002989 1.769811,0.001993 1.809661,0 L1.809661,0.030884 C1.742912,0.030884 1.731953,0.030884 1.731953,0.075716 L1.731953,0.178331 L1.795714,0.233126 C1.872426,0.127522 1.914269,0.071731 1.914269,0.053798 C1.914269,0.034869 1.897332,0.030884 1.878403,0.030884 L1.878403,0 C1.906299,0.000996 1.965078,0.002989 1.986,0.002989 C2.014892,0.002989 2.043783,0.001993 2.072675,0 L2.072675,0.030884 C2.035813,0.030884 2.013895,0.030884 1.976037,0.083686 L1.849512,0.262017 C1.848516,0.26401 1.843534,0.269988 1.843534,0.272976 C1.843534,0.276961 1.914269,0.336737 1.924232,0.344707 C1.986996,0.395517 2.028839,0.397509 2.049761,0.398506 L2.049761,0.42939 C2.020869,0.426401 2.007918,0.426401 1.980022,0.426401 C1.944157,0.426401 1.882388,0.428394 1.868441,0.42939 L1.868441,0.398506 C1.88737,0.397509 1.897332,0.38655 1.897332,0.373599 C1.897332,0.353674 1.883385,0.341719 1.875415,0.334745 L1.734941,0.2132 L1.734941,0.691407 L1.591479,0.680448 L1.591479,0.649564 C1.661218,0.649564 1.669188,0.64259 1.669188,0.593773 L1.669188,0.075716 Z" /><path d="M2.66158,0.658531 C2.652613,0.680448 2.649624,0.680448 2.62671,0.680448 L2.458342,0.680448 L2.458342,0.649564 L2.482252,0.649564 C2.558964,0.649564 2.560957,0.638605 2.560957,0.60274 L2.560957,0.104608 C2.560957,0.077709 2.560957,0.030884 2.458342,0.030884 L2.458342,0 C2.493211,0.000996 2.542028,0.002989 2.574905,0.002989 C2.607782,0.002989 2.656598,0.000996 2.691468,0 L2.691468,0.030884 C2.588852,0.030884 2.588852,0.077709 2.588852,0.104608 L2.588852,0.641594 L2.589849,0.641594 L2.829948,0.021918 C2.83493,0.008966 2.839911,0 2.849874,0 C2.860832,0 2.863821,0.00797 2.867806,0.018929 L3.112887,0.649564 L3.113883,0.649564 L3.113883,0.077709 C3.113883,0.041843 3.111891,0.030884 3.035179,0.030884 L3.011268,0.030884 L3.011268,0 C3.04813,0.002989 3.115876,0.002989 3.15473,0.002989 C3.193584,0.002989 3.260334,0.002989 3.297196,0 L3.297196,0.030884 L3.273286,0.030884 C3.196573,0.030884 3.194581,0.041843 3.194581,0.077709 L3.194581,0.60274 C3.194581,0.638605 3.196573,0.649564 3.273286,0.649564 L3.297196,0.649564 L3.297196,0.680448 L3.128827,0.680448 C3.102925,0.680448 3.102925,0.679452 3.095951,0.661519 L2.877769,0.100623 L2.66158,0.658531 Z" /><path d="M3.748175,0.334745 C3.774077,0.397509 3.824887,0.398506 3.840827,0.398506 L3.840827,0.42939 C3.817913,0.427397 3.789021,0.426401 3.766107,0.426401 C3.748175,0.426401 3.70135,0.428394 3.679432,0.42939 L3.679432,0.398506 C3.710317,0.397509 3.726257,0.380573 3.726257,0.355666 C3.726257,0.345704 3.72526,0.343711 3.720279,0.331756 L3.619657,0.086675 L3.509071,0.35467 C3.505086,0.364633 3.503094,0.368618 3.503094,0.372603 C3.503094,0.398506 3.539955,0.398506 3.558884,0.398506 L3.558884,0.42939 C3.532982,0.428394 3.467228,0.426401 3.450292,0.426401 C3.423392,0.426401 3.383542,0.427397 3.353654,0.42939 L3.353654,0.398506 C3.401475,0.398506 3.420404,0.398506 3.434351,0.363636 L3.583791,0 C3.57881,-0.012951 3.564862,-0.045828 3.558884,-0.05878 C3.536967,-0.113574 3.509071,-0.182316 3.44531,-0.182316 C3.440329,-0.182316 3.417415,-0.182316 3.398486,-0.164384 C3.42937,-0.160399 3.43734,-0.138481 3.43734,-0.12254 C3.43734,-0.096638 3.418411,-0.080697 3.395497,-0.080697 C3.375572,-0.080697 3.353654,-0.093649 3.353654,-0.123537 C3.353654,-0.168369 3.395497,-0.204234 3.44531,-0.204234 C3.508075,-0.204234 3.548922,-0.147447 3.572832,-0.09066 L3.748175,0.334745 Z" /><path d="M4.413792,0.364633 L4.413792,0.609714 C4.413792,0.64259 4.415784,0.649564 4.462609,0.649564 L4.586145,0.649564 C4.682783,0.649564 4.717652,0.564882 4.717652,0.51208 C4.717652,0.448319 4.668835,0.364633 4.55825,0.364633 L4.413792,0.364633 Z M4.64891,0.355666 C4.745548,0.374595 4.81429,0.438356 4.81429,0.51208 C4.81429,0.598755 4.722633,0.680448 4.593119,0.680448 L4.228487,0.680448 L4.228487,0.649564 L4.252397,0.649564 C4.329109,0.649564 4.331102,0.638605 4.331102,0.60274 L4.331102,0.077709 C4.331102,0.041843 4.329109,0.030884 4.252397,0.030884 L4.228487,0.030884 L4.228487,0 L4.619022,0 C4.751525,0 4.841189,0.088667 4.841189,0.182316 C4.841189,0.268991 4.759495,0.343711 4.64891,0.355666 Z M4.587142,0.030884 L4.462609,0.030884 C4.415784,0.030884 4.413792,0.037858 4.413792,0.070735 L4.413792,0.342715 L4.601089,0.342715 C4.699719,0.342715 4.741562,0.250062 4.741562,0.183313 C4.741562,0.112578 4.689757,0.030884 4.587142,0.030884 Z" /><path d="M5.36755,0.2132 C5.36755,0.340722 5.267924,0.446326 5.147376,0.446326 C5.022843,0.446326 4.926205,0.337733 4.926205,0.2132 C4.926205,0.084682 5.029817,-0.010959 5.14638,-0.010959 C5.266928,-0.010959 5.36755,0.086675 5.36755,0.2132 Z M5.147376,0.013948 C5.104537,0.013948 5.060701,0.034869 5.033802,0.080697 C5.008895,0.124533 5.008895,0.185305 5.008895,0.221171 C5.008895,0.260025 5.008895,0.313823 5.032806,0.357659 C5.059705,0.403487 5.106529,0.424408 5.14638,0.424408 C5.190215,0.424408 5.233055,0.402491 5.258958,0.359651 C5.284861,0.316811 5.28486,0.259029 5.28486,0.221171 C5.28486,0.185305 5.28486,0.131507 5.262943,0.087671 C5.241025,0.042839 5.197189,0.013948 5.147376,0.013948 Z" /><path d="M5.654697,0.234122 C5.684585,0.27198 5.722443,0.320797 5.746353,0.3467 C5.777237,0.382565 5.818084,0.397509 5.864908,0.398506 L5.864908,0.42939 C5.839006,0.427397 5.809118,0.426401 5.783215,0.426401 C5.753327,0.426401 5.700525,0.428394 5.687573,0.42939 L5.687573,0.398506 C5.708495,0.396513 5.716465,0.383562 5.716465,0.367621 C5.716465,0.35168 5.706502,0.33873 5.701521,0.332752 L5.639753,0.255044 L5.562044,0.355666 C5.553078,0.365629 5.553078,0.367621 5.553078,0.373599 C5.553078,0.388543 5.568022,0.397509 5.587947,0.398506 L5.587947,0.42939 C5.562044,0.428394 5.496291,0.426401 5.480351,0.426401 C5.459429,0.426401 5.412605,0.427397 5.385705,0.42939 L5.385705,0.398506 C5.455444,0.398506 5.45644,0.397509 5.503265,0.337733 L5.601895,0.209215 L5.508246,0.09066 C5.460425,0.032877 5.401646,0.030884 5.380724,0.030884 L5.380724,0 C5.406627,0.001993 5.437511,0.002989 5.463414,0.002989 C5.492306,0.002989 5.534149,0.000996 5.558059,0 L5.558059,0.030884 C5.536141,0.033873 5.529168,0.046824 5.529168,0.061768 C5.529168,0.083686 5.558059,0.116563 5.618831,0.188294 L5.694547,0.088667 C5.702517,0.077709 5.715469,0.061768 5.715469,0.055791 C5.715469,0.046824 5.706502,0.03188 5.679603,0.030884 L5.679603,0 C5.709491,0.000996 5.765282,0.002989 5.7872,0.002989 C5.814099,0.002989 5.852953,0.001993 5.882841,0 L5.882841,0.030884 C5.829043,0.030884 5.81111,0.032877 5.788196,0.061768 L5.654697,0.234122 Z" /></g></g></g></g></g></g></g><g transform="translate(0, -0.043586)"><g transform="translate(0, 0)"><g transform="scale(1)"><g transform="translate(0, 0)"><g opacity="1"><g transform="translate(-3.734727, -0.334745)"><g><path d="M0.905604,0.582814 C0.923537,0.639601 0.966376,0.649564 1.00523,0.649564 L1.00523,0.680448 C0.975342,0.678456 0.944458,0.67746 0.91457,0.67746 C0.885679,0.67746 0.821918,0.679452 0.796015,0.680448 L0.796015,0.649564 C0.862765,0.648568 0.88269,0.615691 0.88269,0.596762 C0.88269,0.590785 0.879701,0.582814 0.877709,0.576837 L0.728269,0.116563 L0.568867,0.604732 C0.56787,0.608717 0.565878,0.614695 0.565878,0.619676 C0.565878,0.649564 0.623661,0.649564 0.649564,0.649564 L0.649564,0.680448 C0.613699,0.67746 0.545953,0.67746 0.508095,0.67746 C0.470237,0.67746 0.427397,0.679452 0.38655,0.680448 L0.38655,0.649564 C0.443337,0.649564 0.464259,0.649564 0.476214,0.613699 L0.498132,0.54396 L0.359651,0.116563 L0.199253,0.606725 C0.198257,0.609714 0.19726,0.616687 0.19726,0.619676 C0.19726,0.649564 0.255044,0.649564 0.280946,0.649564 L0.280946,0.680448 C0.245081,0.67746 0.177335,0.67746 0.139477,0.67746 C0.101619,0.67746 0.05878,0.679452 0.017933,0.680448 L0.017933,0.649564 C0.092653,0.649564 0.096638,0.644583 0.108593,0.607721 L0.307846,-0.002989 C0.310834,-0.011955 0.313823,-0.021918 0.326775,-0.021918 C0.340722,-0.021918 0.342715,-0.014944 0.3467,-0.001993 L0.511083,0.50411 L0.676463,-0.002989 C0.679452,-0.011955 0.682441,-0.021918 0.695392,-0.021918 C0.70934,-0.021918 0.711333,-0.014944 0.715318,-0.001993 L0.905604,0.582814 Z" /><path d="M1.20028,0.440349 L1.060803,0.42939 L1.060803,0.398506 C1.12556,0.398506 1.134526,0.392528 1.134526,0.343711 L1.134526,0.075716 C1.134526,0.030884 1.123567,0.030884 1.056818,0.030884 L1.056818,0 C1.088698,0.000996 1.142496,0.002989 1.166407,0.002989 C1.201276,0.002989 1.236145,0.000996 1.270018,0 L1.270018,0.030884 C1.204265,0.030884 1.20028,0.035866 1.20028,0.07472 L1.20028,0.440349 Z M1.204265,0.613699 C1.204265,0.645579 1.179358,0.666501 1.151463,0.666501 C1.120579,0.666501 1.098661,0.639601 1.098661,0.613699 C1.098661,0.5868 1.120579,0.560897 1.151463,0.560897 C1.179358,0.560897 1.204265,0.581818 1.204265,0.613699 Z" /><path d="M1.473036,0.398506 L1.615501,0.398506 L1.615501,0.42939 L1.473036,0.42939 L1.473036,0.612702 L1.448129,0.612702 C1.447133,0.531009 1.417245,0.424408 1.319611,0.420423 L1.319611,0.398506 L1.404293,0.398506 L1.404293,0.123537 C1.404293,0.000996 1.496946,-0.010959 1.532812,-0.010959 C1.603546,-0.010959 1.631442,0.059776 1.631442,0.123537 L1.631442,0.180324 L1.606535,0.180324 L1.606535,0.125529 C1.606535,0.051806 1.576647,0.013948 1.539785,0.013948 C1.473036,0.013948 1.473036,0.104608 1.473036,0.121544 L1.473036,0.398506 Z" /><path d="M1.797708,0.075716 C1.797708,0.030884 1.786749,0.030884 1.719999,0.030884 L1.719999,0 C1.754869,0.000996 1.805678,0.002989 1.832577,0.002989 C1.85848,0.002989 1.910286,0.000996 1.944159,0 L1.944159,0.030884 C1.877409,0.030884 1.86645,0.030884 1.86645,0.075716 L1.86645,0.259029 C1.86645,0.36264 1.937185,0.418431 2.000946,0.418431 C2.063711,0.418431 2.074669,0.364633 2.074669,0.307846 L2.074669,0.075716 C2.074669,0.030884 2.063711,0.030884 1.996961,0.030884 L1.996961,0 C2.03183,0.000996 2.08264,0.002989 2.109539,0.002989 C2.135442,0.002989 2.187247,0.000996 2.22112,0 L2.22112,0.030884 C2.169315,0.030884 2.144408,0.030884 2.143412,0.060772 L2.143412,0.251059 C2.143412,0.336737 2.143412,0.367621 2.112527,0.403487 C2.09858,0.420423 2.065703,0.440349 2.00792,0.440349 C1.924234,0.440349 1.880398,0.380573 1.863461,0.342715 L1.863461,0.691407 L1.719999,0.680448 L1.719999,0.649564 C1.789738,0.649564 1.797708,0.64259 1.797708,0.593773 L1.797708,0.075716 Z" /><path d="M3.153514,0.67746 L2.606565,0.67746 L2.606565,0.646575 L2.630475,0.646575 C2.707187,0.646575 2.70918,0.635616 2.70918,0.599751 L2.70918,0.077709 C2.70918,0.041843 2.707187,0.030884 2.630475,0.030884 L2.606565,0.030884 L2.606565,0 C2.641434,0.002989 2.719143,0.002989 2.757997,0.002989 C2.798844,0.002989 2.889504,0.002989 2.925369,0 L2.925369,0.030884 L2.892492,0.030884 C2.797847,0.030884 2.797847,0.043836 2.797847,0.078705 L2.797847,0.323786 L2.883526,0.323786 C2.979167,0.323786 2.98913,0.291905 2.98913,0.207223 L3.014037,0.207223 L3.014037,0.471233 L2.98913,0.471233 C2.98913,0.387547 2.979167,0.35467 2.883526,0.35467 L2.797847,0.35467 L2.797847,0.606725 C2.797847,0.639601 2.79984,0.646575 2.846664,0.646575 L2.966216,0.646575 C3.115656,0.646575 3.140562,0.590785 3.156502,0.4533 L3.181409,0.4533 L3.153514,0.67746 Z" /><path d="M3.400369,0.440349 L3.260892,0.42939 L3.260892,0.398506 C3.325649,0.398506 3.334615,0.392528 3.334615,0.343711 L3.334615,0.075716 C3.334615,0.030884 3.323656,0.030884 3.256907,0.030884 L3.256907,0 C3.288787,0.000996 3.342585,0.002989 3.366496,0.002989 C3.401365,0.002989 3.436234,0.000996 3.470107,0 L3.470107,0.030884 C3.404354,0.030884 3.400369,0.035866 3.400369,0.07472 L3.400369,0.440349 Z M3.404354,0.613699 C3.404354,0.645579 3.379447,0.666501 3.351552,0.666501 C3.320668,0.666501 3.29875,0.639601 3.29875,0.613699 C3.29875,0.5868 3.320668,0.560897 3.351552,0.560897 C3.379447,0.560897 3.404354,0.581818 3.404354,0.613699 Z" /><path d="M3.915217,0.331756 C3.924183,0.35467 3.94112,0.397509 4.006873,0.398506 L4.006873,0.42939 C3.983959,0.427397 3.955067,0.426401 3.932153,0.426401 C3.908243,0.426401 3.862415,0.428394 3.845478,0.42939 L3.845478,0.398506 C3.88234,0.397509 3.893299,0.374595 3.893299,0.355666 C3.893299,0.3467 3.891306,0.342715 3.887321,0.331756 L3.785703,0.077709 L3.674121,0.355666 C3.668143,0.368618 3.668143,0.37061 3.668143,0.372603 C3.668143,0.398506 3.706998,0.398506 3.72493,0.398506 L3.72493,0.42939 C3.695042,0.428394 3.639252,0.426401 3.616338,0.426401 C3.589438,0.426401 3.549588,0.427397 3.5197,0.42939 L3.5197,0.398506 C3.582465,0.398506 3.58645,0.392528 3.599401,0.361644 L3.742863,0.00797 C3.748841,-0.005978 3.750833,-0.010959 3.763785,-0.010959 C3.776737,-0.010959 3.780721,-0.001993 3.784706,0.00797 L3.915217,0.331756 Z" /><path d="M4.110487,0.251059 C4.116464,0.399502 4.20015,0.424408 4.234023,0.424408 C4.336638,0.424408 4.346601,0.289913 4.346601,0.251059 L4.110487,0.251059 Z M4.10949,0.230137 L4.387448,0.230137 C4.409366,0.230137 4.412355,0.230137 4.412355,0.251059 C4.412355,0.349689 4.358556,0.446326 4.234023,0.446326 C4.118457,0.446326 4.0268,0.343711 4.0268,0.219178 C4.0268,0.085679 4.131408,-0.010959 4.245978,-0.010959 C4.367523,-0.010959 4.412355,0.099626 4.412355,0.118555 C4.412355,0.128518 4.404384,0.130511 4.399403,0.130511 C4.390437,0.130511 4.388444,0.124533 4.386452,0.116563 C4.351582,0.013948 4.261919,0.013948 4.251956,0.013948 C4.202143,0.013948 4.162292,0.043836 4.139378,0.080697 C4.10949,0.128518 4.10949,0.194271 4.10949,0.230137 Z" /><path d="M4.808646,0.680448 L4.808646,0.649564 L4.832557,0.649564 C4.909269,0.649564 4.911261,0.638605 4.911261,0.60274 L4.911261,0.077709 C4.911261,0.041843 4.909269,0.030884 4.832557,0.030884 L4.808646,0.030884 L4.808646,0 L5.173279,0 C5.340651,0 5.478136,0.147447 5.478136,0.334745 C5.478136,0.524035 5.34364,0.680448 5.173279,0.680448 L4.808646,0.680448 Z M5.045757,0.030884 C4.998933,0.030884 4.99694,0.037858 4.99694,0.070735 L4.99694,0.609714 C4.99694,0.64259 4.998933,0.649564 5.045757,0.649564 L5.145383,0.649564 C5.207152,0.649564 5.275894,0.627646 5.326704,0.556912 C5.369543,0.498132 5.378509,0.412453 5.378509,0.334745 C5.378509,0.224159 5.35958,0.164384 5.323715,0.115567 C5.303789,0.088667 5.247002,0.030884 5.14638,0.030884 L5.045757,0.030884 Z" /><path d="M6.004055,0.2132 C6.004055,0.340722 5.904429,0.446326 5.783881,0.446326 C5.659348,0.446326 5.56271,0.337733 5.56271,0.2132 C5.56271,0.084682 5.666322,-0.010959 5.782885,-0.010959 C5.903433,-0.010959 6.004055,0.086675 6.004055,0.2132 Z M5.783881,0.013948 C5.741042,0.013948 5.697206,0.034869 5.670307,0.080697 C5.6454,0.124533 5.6454,0.185305 5.6454,0.221171 C5.6454,0.260025 5.6454,0.313823 5.669311,0.357659 C5.69621,0.403487 5.743034,0.424408 5.782885,0.424408 C5.82672,0.424408 5.86956,0.402491 5.895463,0.359651 C5.921366,0.316811 5.921365,0.259029 5.921365,0.221171 C5.921365,0.185305 5.921365,0.131507 5.899448,0.087671 C5.87753,0.042839 5.833694,0.013948 5.783881,0.013948 Z" /><path d="M6.421492,0.399502 C6.430458,0.410461 6.430458,0.412453 6.430458,0.416438 C6.430458,0.42939 6.422488,0.42939 6.404555,0.42939 L6.085751,0.42939 L6.074792,0.268991 L6.099699,0.268991 C6.105676,0.37061 6.124605,0.407472 6.234194,0.407472 L6.347768,0.407472 L6.069811,0.03188 C6.060844,0.020922 6.060844,0.018929 6.060844,0.013948 C6.060844,0 6.067818,0 6.086747,0 L6.415514,0 L6.432451,0.186301 L6.407544,0.186301 C6.398578,0.068742 6.377656,0.024907 6.26209,0.024907 L6.144531,0.024907 L6.421492,0.399502 Z" /><path d="M6.587316,0.251059 C6.593293,0.399502 6.676979,0.424408 6.710852,0.424408 C6.813467,0.424408 6.82343,0.289913 6.82343,0.251059 L6.587316,0.251059 Z M6.586319,0.230137 L6.864277,0.230137 C6.886195,0.230137 6.889184,0.230137 6.889184,0.251059 C6.889184,0.349689 6.835385,0.446326 6.710852,0.446326 C6.595286,0.446326 6.503629,0.343711 6.503629,0.219178 C6.503629,0.085679 6.608237,-0.010959 6.722807,-0.010959 C6.844352,-0.010959 6.889184,0.099626 6.889184,0.118555 C6.889184,0.128518 6.881213,0.130511 6.876232,0.130511 C6.867266,0.130511 6.865273,0.124533 6.863281,0.116563 C6.828411,0.013948 6.738748,0.013948 6.728785,0.013948 C6.678972,0.013948 6.639121,0.043836 6.616207,0.080697 C6.586319,0.128518 6.586319,0.194271 6.586319,0.230137 Z" /><path d="M7.028108,0.342715 L7.028108,0.075716 C7.028108,0.030884 7.017149,0.030884 6.950399,0.030884 L6.950399,0 C6.985269,0.000996 7.036078,0.002989 7.062977,0.002989 C7.08888,0.002989 7.140686,0.000996 7.174559,0 L7.174559,0.030884 C7.107809,0.030884 7.09685,0.030884 7.09685,0.075716 L7.09685,0.259029 C7.09685,0.36264 7.167585,0.418431 7.231346,0.418431 C7.294111,0.418431 7.305069,0.364633 7.305069,0.307846 L7.305069,0.075716 C7.305069,0.030884 7.294111,0.030884 7.227361,0.030884 L7.227361,0 C7.26223,0.000996 7.31304,0.002989 7.339939,0.002989 C7.365842,0.002989 7.417647,0.000996 7.45152,0 L7.45152,0.030884 C7.399715,0.030884 7.374808,0.030884 7.373812,0.060772 L7.373812,0.251059 C7.373812,0.336737 7.373812,0.367621 7.342927,0.403487 C7.32898,0.420423 7.296103,0.440349 7.23832,0.440349 C7.165592,0.440349 7.118768,0.397509 7.090873,0.335741 L7.090873,0.440349 L6.950399,0.42939 L6.950399,0.398506 C7.020138,0.398506 7.028108,0.391532 7.028108,0.342715 Z" /></g></g></g></g></g></g></g><g transform="translate(0, -1.343087)"><g transform="translate(0, 0)"><g transform="scale(1)"><g transform="translate(0, 0)"><g opacity="1"><g transform="translate(-2.853861, -0.237609)"><g><path d="M0.579826,0.257036 L0.554919,0.257036 C0.54396,0.155417 0.530012,0.030884 0.35467,0.030884 L0.272976,0.030884 C0.226152,0.030884 0.224159,0.037858 0.224159,0.070735 L0.224159,0.601743 C0.224159,0.635616 0.224159,0.649564 0.318804,0.649564 L0.351681,0.649564 L0.351681,0.680448 C0.315816,0.67746 0.225156,0.67746 0.184309,0.67746 C0.145455,0.67746 0.067746,0.67746 0.032877,0.680448 L0.032877,0.649564 L0.056787,0.649564 C0.133499,0.649564 0.135492,0.638605 0.135492,0.60274 L0.135492,0.077709 C0.135492,0.041843 0.133499,0.030884 0.056787,0.030884 L0.032877,0.030884 L0.032877,0 L0.55193,0 L0.579826,0.257036 Z" /><path d="M0.799006,0.440349 L0.659529,0.42939 L0.659529,0.398506 C0.724286,0.398506 0.733252,0.392528 0.733252,0.343711 L0.733252,0.075716 C0.733252,0.030884 0.722293,0.030884 0.655544,0.030884 L0.655544,0 C0.687424,0.000996 0.741222,0.002989 0.765133,0.002989 C0.800002,0.002989 0.834871,0.000996 0.868744,0 L0.868744,0.030884 C0.802991,0.030884 0.799006,0.035866 0.799006,0.07472 L0.799006,0.440349 Z M0.802991,0.613699 C0.802991,0.645579 0.778084,0.666501 0.750189,0.666501 C0.719305,0.666501 0.697387,0.639601 0.697387,0.613699 C0.697387,0.5868 0.719305,0.560897 0.750189,0.560897 C0.778084,0.560897 0.802991,0.581818 0.802991,0.613699 Z" /><path d="M1.277988,0.060772 L1.277988,-0.117559 C1.277988,-0.162391 1.267029,-0.162391 1.20028,-0.162391 L1.20028,-0.193275 C1.234153,-0.192279 1.285958,-0.190286 1.311861,-0.190286 C1.33876,-0.190286 1.38957,-0.192279 1.424439,-0.193275 L1.424439,-0.162391 C1.357689,-0.162391 1.346731,-0.162391 1.346731,-0.117559 L1.346731,0.440349 L1.324813,0.440349 L1.286955,0.349689 C1.274003,0.377584 1.233156,0.440349 1.153455,0.440349 C1.037889,0.440349 0.933281,0.343711 0.933281,0.214197 C0.933281,0.089664 1.029919,-0.010959 1.145485,-0.010959 C1.215224,-0.010959 1.256071,0.03188 1.277988,0.060772 Z M1.280977,0.275965 L1.280977,0.135492 C1.280977,0.103611 1.263044,0.075716 1.241127,0.051806 C1.228175,0.037858 1.196295,0.010959 1.14947,0.010959 C1.076743,0.010959 1.015971,0.099626 1.015971,0.214197 C1.015971,0.332752 1.085709,0.415442 1.159433,0.415442 C1.239134,0.415442 1.280977,0.328767 1.280977,0.275965 Z" /><path d="M1.814754,0.078705 L1.814754,-0.010959 L1.958216,0 L1.958216,0.030884 C1.888478,0.030884 1.880508,0.037858 1.880508,0.086675 L1.880508,0.440349 L1.734057,0.42939 L1.734057,0.398506 C1.803795,0.398506 1.811765,0.391532 1.811765,0.342715 L1.811765,0.16538 C1.811765,0.078705 1.763945,0.010959 1.691217,0.010959 C1.607531,0.010959 1.603546,0.057783 1.603546,0.109589 L1.603546,0.440349 L1.457095,0.42939 L1.457095,0.398506 C1.534804,0.398506 1.534804,0.395517 1.534804,0.306849 L1.534804,0.15741 C1.534804,0.079701 1.534804,-0.010959 1.686236,-0.010959 C1.742027,-0.010959 1.785863,0.016936 1.814754,0.078705 Z" /><path d="M2.447936,0.2132 C2.447936,0.340722 2.34831,0.446326 2.227762,0.446326 C2.103229,0.446326 2.006591,0.337733 2.006591,0.2132 C2.006591,0.084682 2.110203,-0.010959 2.226766,-0.010959 C2.347314,-0.010959 2.447936,0.086675 2.447936,0.2132 Z M2.227762,0.013948 C2.184923,0.013948 2.141087,0.034869 2.114188,0.080697 C2.089281,0.124533 2.089281,0.185305 2.089281,0.221171 C2.089281,0.260025 2.089281,0.313823 2.113192,0.357659 C2.140091,0.403487 2.186915,0.424408 2.226766,0.424408 C2.270601,0.424408 2.313441,0.402491 2.339344,0.359651 C2.365247,0.316811 2.365246,0.259029 2.365246,0.221171 C2.365246,0.185305 2.365246,0.131507 2.343329,0.087671 C2.321411,0.042839 2.277575,0.013948 2.227762,0.013948 Z" /><path d="M2.866369,0.078705 L2.866369,-0.010959 L3.009831,0 L3.009831,0.030884 C2.940093,0.030884 2.932123,0.037858 2.932123,0.086675 L2.932123,0.440349 L2.785672,0.42939 L2.785672,0.398506 C2.85541,0.398506 2.86338,0.391532 2.86338,0.342715 L2.86338,0.16538 C2.86338,0.078705 2.81556,0.010959 2.742832,0.010959 C2.659146,0.010959 2.655161,0.057783 2.655161,0.109589 L2.655161,0.440349 L2.50871,0.42939 L2.50871,0.398506 C2.586419,0.398506 2.586419,0.395517 2.586419,0.306849 L2.586419,0.15741 C2.586419,0.079701 2.586419,-0.010959 2.737851,-0.010959 C2.793642,-0.010959 2.837478,0.016936 2.866369,0.078705 Z" /><path d="M3.196688,0.33076 L3.196688,0.440349 L3.058207,0.42939 L3.058207,0.398506 C3.127946,0.398506 3.135916,0.391532 3.135916,0.342715 L3.135916,0.075716 C3.135916,0.030884 3.124957,0.030884 3.058207,0.030884 L3.058207,0 C3.097062,0.000996 3.143886,0.002989 3.171781,0.002989 C3.211632,0.002989 3.258456,0.002989 3.298307,0 L3.298307,0.030884 L3.277385,0.030884 C3.203662,0.030884 3.201669,0.041843 3.201669,0.077709 L3.201669,0.231133 C3.201669,0.329763 3.243512,0.418431 3.319229,0.418431 C3.326202,0.418431 3.328195,0.418431 3.330187,0.417435 C3.327199,0.416438 3.307273,0.404483 3.307273,0.37858 C3.307273,0.350685 3.328195,0.335741 3.350113,0.335741 C3.368045,0.335741 3.392952,0.347696 3.392952,0.379577 C3.392952,0.411458 3.362068,0.440349 3.319229,0.440349 C3.246501,0.440349 3.210636,0.373599 3.196688,0.33076 Z" /><path d="M4.053476,0.147447 C4.053476,0.055791 4.003663,0 3.950861,0 C3.944883,0 3.877137,0 3.841271,0.057783 C3.893077,0.057783 3.905032,0.087671 3.905032,0.113574 C3.905032,0.14944 3.877137,0.169365 3.849242,0.169365 C3.827324,0.169365 3.793451,0.155417 3.793451,0.111582 C3.793451,0.037858 3.864186,-0.021918 3.952853,-0.021918 C4.054472,-0.021918 4.127199,0.047821 4.138158,0.12254 C4.139154,0.130511 4.139154,0.132503 4.139154,0.166376 L4.139154,0.608717 C4.139154,0.649564 4.153102,0.649564 4.215867,0.649564 L4.215867,0.680448 C4.172031,0.678456 4.134173,0.67746 4.087349,0.67746 C4.045506,0.67746 3.957834,0.67746 3.919976,0.680448 L3.919976,0.649564 L3.955842,0.649564 C4.053476,0.649564 4.053476,0.636613 4.053476,0.601743 L4.053476,0.147447 Z" /><path d="M4.654114,0.078705 L4.654114,-0.010959 L4.797576,0 L4.797576,0.030884 C4.727838,0.030884 4.719868,0.037858 4.719868,0.086675 L4.719868,0.440349 L4.573417,0.42939 L4.573417,0.398506 C4.643155,0.398506 4.651125,0.391532 4.651125,0.342715 L4.651125,0.16538 C4.651125,0.078705 4.603305,0.010959 4.530577,0.010959 C4.446891,0.010959 4.442906,0.057783 4.442906,0.109589 L4.442906,0.440349 L4.296455,0.42939 L4.296455,0.398506 C4.374164,0.398506 4.374164,0.395517 4.374164,0.306849 L4.374164,0.15741 C4.374164,0.079701 4.374164,-0.010959 4.525596,-0.010959 C4.581387,-0.010959 4.625223,0.016936 4.654114,0.078705 Z" /><path d="M5.039228,0.171357 C4.952553,0.171357 4.952553,0.270984 4.952553,0.293898 C4.952553,0.320797 4.953549,0.352677 4.968493,0.377584 C4.976463,0.389539 4.999377,0.417435 5.039228,0.417435 C5.125903,0.417435 5.125903,0.317808 5.125903,0.294894 C5.125903,0.267995 5.124906,0.236115 5.109962,0.211208 C5.101992,0.199253 5.079078,0.171357 5.039228,0.171357 Z M4.923661,0.132503 C4.923661,0.136488 4.923661,0.159402 4.940597,0.179328 C4.979452,0.151432 5.020299,0.148443 5.039228,0.148443 C5.13188,0.148443 5.200622,0.217186 5.200622,0.293898 C5.200622,0.33076 5.184682,0.367621 5.159776,0.390535 C5.195641,0.424408 5.231507,0.42939 5.249439,0.42939 C5.251432,0.42939 5.256413,0.42939 5.259402,0.428394 C5.248443,0.424408 5.243462,0.41345 5.243462,0.401494 C5.243462,0.384558 5.256413,0.372603 5.272353,0.372603 C5.282316,0.372603 5.301245,0.379577 5.301245,0.402491 C5.301245,0.419427 5.28929,0.451308 5.250436,0.451308 C5.23051,0.451308 5.186675,0.44533 5.144832,0.404483 C5.102989,0.43736 5.061145,0.440349 5.039228,0.440349 C4.946575,0.440349 4.877833,0.371606 4.877833,0.294894 C4.877833,0.251059 4.899751,0.2132 4.924657,0.192279 C4.911706,0.177335 4.893773,0.144458 4.893773,0.109589 C4.893773,0.078705 4.906724,0.040847 4.937609,0.020922 C4.877833,0.003985 4.845952,-0.038854 4.845952,-0.078705 C4.845952,-0.150436 4.944583,-0.20523 5.066127,-0.20523 C5.183686,-0.20523 5.287297,-0.154421 5.287297,-0.076712 C5.287297,-0.041843 5.27335,0.008966 5.22254,0.036862 C5.169738,0.064757 5.111955,0.064757 5.051183,0.064757 C5.026276,0.064757 4.983437,0.064757 4.976463,0.065753 C4.944583,0.069738 4.923661,0.100623 4.923661,0.132503 Z M5.067123,-0.182316 C4.9665,-0.182316 4.897758,-0.131507 4.897758,-0.078705 C4.897758,-0.032877 4.935616,0.003985 4.979452,0.006974 L5.038231,0.006974 C5.12391,0.006974 5.235492,0.006974 5.235492,-0.078705 C5.235492,-0.132503 5.164757,-0.182316 5.067123,-0.182316 Z" /><path d="M5.523413,0.193275 C5.545331,0.18929 5.627024,0.17335 5.627024,0.101619 C5.627024,0.050809 5.592155,0.010959 5.514447,0.010959 C5.43076,0.010959 5.394895,0.067746 5.375966,0.152428 C5.372977,0.16538 5.371981,0.169365 5.362018,0.169365 C5.349067,0.169365 5.349067,0.162391 5.349067,0.144458 L5.349067,0.012951 C5.349067,-0.003985 5.349067,-0.010959 5.360026,-0.010959 C5.365007,-0.010959 5.366003,-0.009963 5.384932,0.008966 C5.386925,0.010959 5.386925,0.012951 5.404857,0.03188 C5.448693,-0.009963 5.493525,-0.010959 5.514447,-0.010959 C5.629017,-0.010959 5.674845,0.055791 5.674845,0.127522 C5.674845,0.180324 5.644957,0.210212 5.633002,0.222167 C5.600125,0.254047 5.561271,0.262017 5.519428,0.269988 C5.463637,0.280946 5.396887,0.293898 5.396887,0.351681 C5.396887,0.38655 5.42279,0.427397 5.508469,0.427397 C5.618058,0.427397 5.623039,0.337733 5.625032,0.306849 C5.626028,0.297883 5.634994,0.297883 5.636987,0.297883 C5.649938,0.297883 5.649938,0.302864 5.649938,0.321793 L5.649938,0.422416 C5.649938,0.439352 5.649938,0.446326 5.63898,0.446326 C5.633998,0.446326 5.632006,0.446326 5.619054,0.434371 C5.616065,0.430386 5.606103,0.42142 5.602118,0.418431 C5.56426,0.446326 5.523413,0.446326 5.508469,0.446326 C5.386925,0.446326 5.349067,0.379577 5.349067,0.323786 C5.349067,0.288917 5.365007,0.261021 5.391906,0.239103 C5.423787,0.2132 5.451682,0.207223 5.523413,0.193275 Z" /></g></g></g></g></g></g></g></g></g></svg>