<svg viewBox="-8 -4.5 16 9" xmlns="http://www.w3.org/2000/svg" xmlns:xlink="http://www.w3.org/1999/xlink" version="1.1" preserveAspectRatio="none"><g stroke-width="0.05" transform="scale(1, -1)"><g><g transform="translate(0, 3.391283)"><g transform="translate(0, 0)"><g transform="scale(1)"><g transform="translate(0, 0)"><g opacity="1"><g transform="scale(2)"><g transform="translate(-2.390036, -0.2934)"><g><path d="M0.110585,-0.010959 C0.128518,-0.010959 0.143462,0.002989 0.143462,0.018929 L0.143462,0.239103 L0.460274,0.239103 C0.478207,0.239103 0.493151,0.253051 0.493151,0.268991 C0.493151,0.284931 0.478207,0.298879 0.460274,0.298879 L0.143462,0.298879 L0.143462,0.537983 L0.52005,0.537983 C0.537983,0.537983 0.552927,0.55193 0.552927,0.56787 C0.552927,0.58381 0.537983,0.597758 0.52005,0.597758 L0.110585,0.597758 C0.096638,0.597758 0.077709,0.585803 0.077709,0.56787 L0.077709,0.018929 C0.077709,0.002989 0.092653,-0.010959 0.110585,-0.010959 Z" /><path d="M1.110834,0.029888 C1.110834,0.045828 1.09589,0.059776 1.077957,0.059776 L0.763138,0.059776 L0.763138,0.194271 L1.018182,0.194271 C1.036114,0.194271 1.051058,0.208219 1.051058,0.224159 C1.051058,0.240099 1.036114,0.254047 1.018182,0.254047 L0.763138,0.254047 L0.763138,0.388543 L1.077957,0.388543 C1.09589,0.388543 1.110834,0.402491 1.110834,0.418431 C1.110834,0.434371 1.09589,0.448319 1.077957,0.448319 L0.730261,0.448319 C0.716314,0.448319 0.697385,0.436364 0.697385,0.418431 L0.697385,0.029888 C0.697385,0.016936 0.710336,0 0.730261,0 L1.077957,0 C1.09589,0 1.110834,0.013948 1.110834,0.029888 Z" /><path d="M1.177583,0.418431 C1.177583,0.402491 1.192527,0.388543 1.21046,0.388543 L1.403735,0.388543 L1.403735,0.018929 C1.403735,0.002989 1.418679,-0.010959 1.436612,-0.010959 C1.454545,-0.010959 1.469488,0.002989 1.469488,0.018929 L1.469488,0.388543 L1.662764,0.388543 C1.680696,0.388543 1.69564,0.402491 1.69564,0.418431 C1.69564,0.434371 1.680696,0.448319 1.662764,0.448319 L1.21046,0.448319 C1.192527,0.448319 1.177583,0.434371 1.177583,0.418431 Z" /><path d="M1.964631,0.459278 C1.912825,0.459278 1.843087,0.458281 1.796262,0.407472 C1.753423,0.360648 1.751431,0.297883 1.751431,0.244085 L1.751431,0.018929 C1.751431,0.002989 1.766375,-0.010959 1.784307,-0.010959 C1.802239,-0.010959 1.817184,0.002989 1.817184,0.018929 L1.817184,0.194271 L2.128018,0.194271 L2.128018,0.018929 C2.128018,0.002989 2.142962,-0.010959 2.160895,-0.010959 C2.178828,-0.010959 2.193772,0.002989 2.193772,0.018929 L2.193772,0.244085 C2.193772,0.297883 2.191779,0.360648 2.14894,0.407472 C2.102116,0.458281 2.032377,0.459278 1.980571,0.459278 L1.964631,0.459278 Z M1.817184,0.254047 C1.81818,0.301868 1.824158,0.344707 1.847072,0.369614 C1.871979,0.396513 1.915814,0.399502 1.972601,0.399502 C2.029388,0.399502 2.073224,0.396513 2.09813,0.369614 C2.121045,0.344707 2.127022,0.301868 2.128018,0.254047 L1.817184,0.254047 Z" /><path d="M2.878205,0.459278 C2.867246,0.459278 2.856287,0.454296 2.850309,0.44533 L2.630135,0.133499 L2.409961,0.44533 C2.404979,0.4533 2.39402,0.459278 2.382065,0.459278 C2.364133,0.459278 2.349189,0.44533 2.349189,0.42939 L2.349189,0.018929 C2.349189,0.002989 2.364133,-0.010959 2.382065,-0.010959 C2.399997,-0.010959 2.414942,0.002989 2.414942,0.018929 L2.414942,0.327771 L2.60224,0.062765 C2.608217,0.053798 2.619176,0.048817 2.630135,0.048817 C2.64209,0.048817 2.653049,0.054795 2.65803,0.062765 L2.845328,0.327771 L2.845328,0.018929 C2.845328,0.002989 2.860272,-0.010959 2.878205,-0.010959 C2.896138,-0.010959 2.911081,0.002989 2.911081,0.018929 L2.911081,0.42939 C2.911081,0.44533 2.896138,0.459278 2.878205,0.459278 Z" /><path d="M3.287668,0.399502 C3.357407,0.399502 3.421168,0.396513 3.456037,0.366625 C3.487917,0.33873 3.493895,0.285928 3.493895,0.224159 C3.493895,0.16239 3.487917,0.109589 3.456037,0.081694 C3.421168,0.051806 3.357407,0.048817 3.287668,0.048817 C3.217929,0.048817 3.154169,0.051806 3.1193,0.081694 C3.087419,0.109589 3.081442,0.162391 3.081442,0.224159 C3.081442,0.285927 3.087419,0.33873 3.1193,0.366625 C3.154169,0.396513 3.21793,0.399502 3.287668,0.399502 Z M3.015688,0.218182 C3.015688,0.160399 3.016684,0.086675 3.073471,0.038854 C3.128266,-0.00797 3.205975,-0.010959 3.268739,-0.010959 L3.306597,-0.010959 C3.369362,-0.010959 3.44707,-0.00797 3.501865,0.038854 C3.558652,0.086675 3.559648,0.160399 3.559648,0.218182 L3.559648,0.230137 C3.559648,0.28792 3.558652,0.361644 3.501865,0.409465 C3.44707,0.456289 3.369362,0.459278 3.306597,0.459278 L3.268739,0.459278 C3.205975,0.459278 3.128266,0.456289 3.073471,0.409465 C3.016684,0.361644 3.015688,0.28792 3.015688,0.230137 L3.015688,0.218182 Z" /><path d="M3.697132,-0.010959 C3.715065,-0.010959 3.730009,0.002989 3.730009,0.018929 L3.730009,0.356663 L4.040843,0.06675 L4.040843,0.018929 C4.040843,0.002989 4.055787,-0.010959 4.07372,-0.010959 C4.091653,-0.010959 4.106597,0.002989 4.106597,0.018929 L4.106597,0.42939 C4.106597,0.44533 4.091653,0.459278 4.07372,0.459278 C4.055787,0.459278 4.040843,0.44533 4.040843,0.42939 L4.040843,0.151432 L3.721043,0.450311 C3.717058,0.454296 3.707095,0.459278 3.697132,0.459278 C3.6792,0.459278 3.664256,0.44533 3.664256,0.42939 L3.664256,0.018929 C3.664256,0.002989 3.6792,-0.010959 3.697132,-0.010959 Z" /><path d="M4.184305,0.418431 C4.184305,0.402491 4.199249,0.388543 4.217182,0.388543 L4.410457,0.388543 L4.410457,0.018929 C4.410457,0.002989 4.425401,-0.010959 4.443334,-0.010959 C4.461267,-0.010959 4.47621,0.002989 4.47621,0.018929 L4.47621,0.388543 L4.669486,0.388543 C4.687418,0.388543 4.702362,0.402491 4.702362,0.418431 C4.702362,0.434371 4.687418,0.448319 4.669486,0.448319 L4.217182,0.448319 C4.199249,0.448319 4.184305,0.434371 4.184305,0.418431 Z" /></g></g></g></g></g></g></g></g><g transform="translate(0, 1.972728)"><g transform="translate(0, 0)"><g transform="scale(1)"><g transform="translate(0, 0)"><g opacity="1"><g transform="translate(-3.012864, -0.298879)"><g><path d="M0.143462,0.298879 L0.143462,0.537983 L0.356663,0.537983 C0.411457,0.537983 0.463263,0.53599 0.488169,0.516065 C0.509091,0.500125 0.515068,0.463263 0.515068,0.418431 C0.515068,0.373599 0.509091,0.336737 0.488169,0.320797 C0.463263,0.300872 0.411457,0.298879 0.356663,0.298879 L0.143462,0.298879 Z M0.143462,0.239103 L0.376588,0.239103 C0.425405,0.239103 0.486177,0.242092 0.531009,0.276961 C0.579826,0.314819 0.580822,0.374595 0.580822,0.418431 C0.580822,0.462267 0.579826,0.522042 0.531009,0.5599 C0.486177,0.59477 0.425405,0.597758 0.376588,0.597758 L0.110585,0.597758 C0.096638,0.597758 0.077709,0.585803 0.077709,0.56787 L0.077709,0.018929 C0.077709,0.002989 0.092653,-0.010959 0.110585,-0.010959 C0.128517,-0.010959 0.143462,0.002989 0.143462,0.018929 L0.143462,0.239103 Z" /><path d="M0.910585,0.459278 C0.858779,0.459278 0.789041,0.458281 0.742216,0.407472 C0.699377,0.360648 0.697385,0.297883 0.697385,0.244085 L0.697385,0.018929 C0.697385,0.002989 0.712329,-0.010959 0.730261,-0.010959 C0.748193,-0.010959 0.763138,0.002989 0.763138,0.018929 L0.763138,0.194271 L1.073972,0.194271 L1.073972,0.018929 C1.073972,0.002989 1.088916,-0.010959 1.106849,-0.010959 C1.124782,-0.010959 1.139726,0.002989 1.139726,0.018929 L1.139726,0.244085 C1.139726,0.297883 1.137733,0.360648 1.094894,0.407472 C1.04807,0.458281 0.978331,0.459278 0.926525,0.459278 L0.910585,0.459278 Z M0.763138,0.254047 C0.764134,0.301868 0.770112,0.344707 0.793026,0.369614 C0.817933,0.396513 0.861768,0.399502 0.918555,0.399502 C0.975342,0.399502 1.019178,0.396513 1.044084,0.369614 C1.066999,0.344707 1.072976,0.301868 1.073972,0.254047 L0.763138,0.254047 Z" /><path d="M1.708592,0.418431 C1.708592,0.434371 1.693648,0.448319 1.675715,0.448319 L1.503362,0.448319 C1.439601,0.448319 1.360896,0.44533 1.305105,0.401494 C1.246326,0.35467 1.244333,0.280946 1.244333,0.224159 C1.244333,0.167372 1.246326,0.093649 1.305105,0.046824 C1.360896,0.002989 1.439601,0 1.503362,0 L1.675715,0 C1.693648,0 1.708592,0.013948 1.708592,0.029888 C1.708592,0.045828 1.693648,0.059776 1.675715,0.059776 L1.524283,0.059776 C1.453549,0.059776 1.384806,0.061768 1.347945,0.09066 C1.31706,0.11457 1.310087,0.16538 1.310087,0.224159 C1.310087,0.282938 1.31706,0.333748 1.347945,0.357659 C1.384806,0.38655 1.453549,0.388543 1.524283,0.388543 L1.675715,0.388543 C1.693648,0.388543 1.708592,0.402491 1.708592,0.418431 Z" /><path d="M2.266499,0.018929 C2.266499,0.024907 2.26351,0.03188 2.259525,0.036862 L2.064258,0.267995 L2.254544,0.406476 C2.262514,0.412453 2.266499,0.420423 2.266499,0.42939 C2.266499,0.446326 2.250559,0.459278 2.233622,0.459278 C2.226649,0.459278 2.218678,0.456289 2.212701,0.452304 C2.14097,0.399502 2.069239,0.347696 1.997508,0.294894 L1.918803,0.238107 L1.918803,0.42939 C1.918803,0.44533 1.903859,0.459278 1.885926,0.459278 C1.867993,0.459278 1.85305,0.44533 1.85305,0.42939 L1.85305,0.018929 C1.85305,0.002989 1.867994,-0.010959 1.885926,-0.010959 C1.903858,-0.010959 1.918803,0.002989 1.918803,0.018929 L1.918803,0.161395 L2.013448,0.230137 L2.20772,0.000996 C2.213697,-0.006974 2.22366,-0.010959 2.233622,-0.010959 C2.251555,-0.010959 2.266499,0.002989 2.266499,0.018929 Z" /><path d="M3.245492,0.608717 C3.233537,0.608717 3.222578,0.60274 3.2166,0.592777 L2.957572,0.142466 L2.698543,0.592777 C2.693562,0.601743 2.682603,0.608717 2.669651,0.608717 C2.651719,0.608717 2.636775,0.59477 2.636775,0.578829 L2.636775,0.018929 C2.636775,0.002989 2.651719,-0.010959 2.669651,-0.010959 C2.687583,-0.010959 2.702528,0.002989 2.702528,0.018929 L2.702528,0.457285 L2.92868,0.064757 C2.934658,0.054795 2.945616,0.048817 2.957572,0.048817 C2.970523,0.048817 2.981482,0.056787 2.986463,0.064757 L3.212615,0.457285 L3.212615,0.018929 C3.212615,0.002989 3.227559,-0.010959 3.245492,-0.010959 C3.263425,-0.010959 3.278369,0.002989 3.278369,0.018929 L3.278369,0.578829 C3.278369,0.59477 3.263425,0.608717 3.245492,0.608717 Z" /><path d="M3.466661,0.459278 C3.448729,0.459278 3.433785,0.44533 3.433785,0.42939 L3.433785,0.350685 C3.433785,0.310834 3.439762,0.25604 3.487583,0.225156 C3.529426,0.198257 3.58422,0.194271 3.632041,0.194271 L3.632041,0.018929 C3.632041,0.002989 3.646985,-0.010959 3.664918,-0.010959 C3.682851,-0.010959 3.697795,0.002989 3.697795,0.018929 L3.697795,0.194271 C3.745615,0.194271 3.80041,0.198257 3.842253,0.225156 C3.890074,0.25604 3.896051,0.310834 3.896051,0.350685 L3.896051,0.42939 C3.896051,0.44533 3.881107,0.459278 3.863174,0.459278 C3.845241,0.459278 3.830298,0.44533 3.830298,0.42939 L3.830298,0.350685 C3.830298,0.312827 3.821331,0.284932 3.804395,0.273973 C3.777496,0.257036 3.720709,0.254047 3.664918,0.254047 C3.609127,0.254047 3.55234,0.257036 3.525441,0.273973 C3.508504,0.284932 3.499538,0.312827 3.499538,0.350685 L3.499538,0.42939 C3.499538,0.44533 3.484594,0.459278 3.466661,0.459278 Z" /><path d="M4.715642,0.218182 C4.73756,0.209215 4.754496,0.182316 4.754496,0.14944 C4.754496,0.115567 4.740549,0.088667 4.72162,0.079701 C4.682765,0.061768 4.605057,0.059776 4.536315,0.059776 L4.38289,0.059776 L4.38289,0.239103 L4.498457,0.239103 C4.577161,0.239103 4.668818,0.237111 4.715642,0.218182 Z M4.317137,0.029888 C4.317137,0.013948 4.332081,0 4.350013,0 L4.562218,0 C4.624982,0 4.698706,0.001993 4.752504,0.027895 C4.80431,0.051806 4.82025,0.104608 4.82025,0.14944 C4.82025,0.198257 4.79634,0.250062 4.743538,0.27198 C4.732579,0.276961 4.719627,0.280946 4.707672,0.283935 C4.750511,0.319801 4.754496,0.375592 4.754496,0.418431 C4.754496,0.464259 4.749515,0.527024 4.696713,0.561893 C4.6469,0.595766 4.579154,0.597758 4.522367,0.597758 L4.350013,0.597758 C4.336066,0.597758 4.317137,0.585803 4.317137,0.56787 L4.317137,0.029888 Z M4.498457,0.298879 L4.38289,0.298879 L4.38289,0.537983 L4.498457,0.537983 C4.561221,0.537983 4.625978,0.534994 4.657859,0.514072 C4.679777,0.499128 4.688743,0.463263 4.688743,0.418431 C4.688743,0.373599 4.679777,0.337733 4.657859,0.32279 C4.625978,0.301868 4.561221,0.298879 4.498457,0.298879 Z" /><path d="M5.179899,0.399502 C5.249638,0.399502 5.313399,0.396513 5.348268,0.366625 C5.380148,0.33873 5.386126,0.285928 5.386126,0.224159 C5.386126,0.16239 5.380148,0.109589 5.348268,0.081694 C5.313399,0.051806 5.249638,0.048817 5.179899,0.048817 C5.11016,0.048817 5.0464,0.051806 5.011531,0.081694 C4.97965,0.109589 4.973673,0.162391 4.973673,0.224159 C4.973673,0.285927 4.97965,0.33873 5.011531,0.366625 C5.0464,0.396513 5.110161,0.399502 5.179899,0.399502 Z M4.907919,0.218182 C4.907919,0.160399 4.908915,0.086675 4.965702,0.038854 C5.020497,-0.00797 5.098206,-0.010959 5.16097,-0.010959 L5.198828,-0.010959 C5.261593,-0.010959 5.339301,-0.00797 5.394096,0.038854 C5.450883,0.086675 5.451879,0.160399 5.451879,0.218182 L5.451879,0.230137 C5.451879,0.28792 5.450883,0.361644 5.394096,0.409465 C5.339301,0.456289 5.261593,0.459278 5.198828,0.459278 L5.16097,0.459278 C5.098206,0.459278 5.020497,0.456289 4.965702,0.409465 C4.908915,0.361644 4.907919,0.28792 4.907919,0.230137 L4.907919,0.218182 Z" /><path d="M5.483759,0.42939 C5.483759,0.422416 5.486748,0.416438 5.491729,0.410461 L5.672053,0.224159 L5.491729,0.037858 C5.486748,0.03188 5.483759,0.025903 5.483759,0.018929 C5.483759,0.002989 5.498703,-0.010959 5.516636,-0.010959 C5.525602,-0.010959 5.535565,-0.00797 5.541542,-0.000996 L5.715889,0.179328 L5.890235,-0.000996 C5.896212,-0.00797 5.906175,-0.010959 5.915141,-0.010959 C5.933074,-0.010959 5.948018,0.002989 5.948018,0.018929 C5.948018,0.025903 5.945029,0.03188 5.940048,0.037858 L5.759724,0.224159 L5.940048,0.410461 C5.945029,0.416438 5.948018,0.422416 5.948018,0.42939 C5.948018,0.44533 5.933074,0.459278 5.915141,0.459278 C5.906175,0.459278 5.896212,0.456289 5.890235,0.449315 L5.715889,0.268991 L5.541542,0.449315 C5.535565,0.456289 5.525602,0.459278 5.516636,0.459278 C5.498703,0.459278 5.483759,0.44533 5.483759,0.42939 Z" /></g></g></g></g></g></g></g><g transform="translate(0, 0.853052)"><g transform="translate(0, 0)"><g transform="scale(1)"><g transform="translate(0, 0)"><g opacity="1"><g transform="translate(-3.811368, -0.298879)"><g><path d="M0.022914,0.578829 C0.022914,0.575841 0.022914,0.572852 0.02391,0.569863 L0.229141,0.009963 C0.234122,-0.001993 0.246077,-0.010959 0.260025,-0.010959 C0.274969,-0.010959 0.286924,-0.000996 0.290909,0.009963 L0.442341,0.424408 L0.59477,0.009963 C0.599751,-0.001993 0.611706,-0.010959 0.625654,-0.010959 C0.640598,-0.010959 0.652553,-0.000996 0.656538,0.009963 L0.861768,0.569863 C0.862765,0.572852 0.862765,0.575841 0.862765,0.578829 C0.862765,0.593773 0.849813,0.608717 0.830884,0.608717 C0.816936,0.608717 0.803985,0.599751 0.799004,0.587796 L0.625654,0.113574 L0.474222,0.52802 C0.470237,0.538979 0.458281,0.548941 0.442341,0.548941 C0.426401,0.548941 0.415442,0.538979 0.411457,0.52802 L0.260025,0.113574 L0.086675,0.587796 C0.081694,0.599751 0.068742,0.608717 0.054795,0.608717 C0.035866,0.608717 0.022914,0.593773 0.022914,0.578829 Z" /><path d="M0.983313,-0.010959 C1.001245,-0.010959 1.016189,0.002989 1.016189,0.018929 L1.016189,0.42939 C1.016189,0.44533 1.001245,0.459278 0.983313,0.459278 C0.965381,0.459278 0.950436,0.44533 0.950436,0.42939 L0.950436,0.018929 C0.950436,0.002989 0.96538,-0.010959 0.983313,-0.010959 Z" /><path d="M1.102864,0.418431 C1.102864,0.402491 1.117808,0.388543 1.135741,0.388543 L1.329016,0.388543 L1.329016,0.018929 C1.329016,0.002989 1.34396,-0.010959 1.361893,-0.010959 C1.379826,-0.010959 1.394769,0.002989 1.394769,0.018929 L1.394769,0.388543 L1.588045,0.388543 C1.605977,0.388543 1.620921,0.402491 1.620921,0.418431 C1.620921,0.434371 1.605977,0.448319 1.588045,0.448319 L1.135741,0.448319 C1.117808,0.448319 1.102864,0.434371 1.102864,0.418431 Z" /><path d="M1.731506,-0.010959 C1.749439,-0.010959 1.764383,0.002989 1.764383,0.018929 L1.764383,0.194271 L2.075217,0.194271 L2.075217,0.018929 C2.075217,0.002989 2.090161,-0.010959 2.108094,-0.010959 C2.126027,-0.010959 2.140971,0.002989 2.140971,0.018929 L2.140971,0.42939 C2.140971,0.44533 2.126027,0.459278 2.108094,0.459278 C2.090161,0.459278 2.075217,0.44533 2.075217,0.42939 L2.075217,0.254047 L1.764383,0.254047 L1.764383,0.42939 C1.764383,0.44533 1.749439,0.459278 1.731506,0.459278 C1.713573,0.459278 1.69863,0.44533 1.69863,0.42939 L1.69863,0.018929 C1.69863,0.002989 1.713574,-0.010959 1.731506,-0.010959 Z" /><path d="M2.594931,-0.010959 C2.612864,-0.010959 2.627808,0.002989 2.627808,0.018929 L2.627808,0.239103 L2.94462,0.239103 C2.962553,0.239103 2.977497,0.253051 2.977497,0.268991 C2.977497,0.284931 2.962553,0.298879 2.94462,0.298879 L2.627808,0.298879 L2.627808,0.537983 L3.004396,0.537983 C3.022329,0.537983 3.037273,0.55193 3.037273,0.56787 C3.037273,0.58381 3.022329,0.597758 3.004396,0.597758 L2.594931,0.597758 C2.580984,0.597758 2.562055,0.585803 2.562055,0.56787 L2.562055,0.018929 C2.562055,0.002989 2.576999,-0.010959 2.594931,-0.010959 Z" /><path d="M3.223574,-0.010959 C3.241506,-0.010959 3.25645,0.002989 3.25645,0.018929 L3.25645,0.42939 C3.25645,0.44533 3.241506,0.459278 3.223574,0.459278 C3.205642,0.459278 3.190697,0.44533 3.190697,0.42939 L3.190697,0.018929 C3.190697,0.002989 3.205641,-0.010959 3.223574,-0.010959 Z" /><path d="M3.359065,0.42939 C3.359065,0.425405 3.360061,0.42142 3.362054,0.417435 L3.572266,0.005978 C3.578243,-0.004981 3.589202,-0.010959 3.602154,-0.010959 C3.616101,-0.010959 3.62706,-0.002989 3.632042,0.005978 L3.842253,0.417435 C3.844246,0.42142 3.845242,0.425405 3.845242,0.42939 C3.845242,0.444334 3.831294,0.459278 3.812365,0.459278 C3.799414,0.459278 3.788455,0.4533 3.782477,0.442341 L3.602154,0.089664 L3.42183,0.442341 C3.415852,0.4533 3.404893,0.459278 3.391942,0.459278 C3.373013,0.459278 3.359065,0.444334 3.359065,0.42939 Z" /><path d="M4.35234,0.029888 C4.35234,0.045828 4.337396,0.059776 4.319463,0.059776 L4.004644,0.059776 L4.004644,0.194271 L4.259688,0.194271 C4.27762,0.194271 4.292564,0.208219 4.292564,0.224159 C4.292564,0.240099 4.27762,0.254047 4.259688,0.254047 L4.004644,0.254047 L4.004644,0.388543 L4.319463,0.388543 C4.337396,0.388543 4.35234,0.402491 4.35234,0.418431 C4.35234,0.434371 4.337396,0.448319 4.319463,0.448319 L3.971767,0.448319 C3.95782,0.448319 3.938891,0.436364 3.938891,0.418431 L3.938891,0.029888 C3.938891,0.016936 3.951842,0 3.971767,0 L4.319463,0 C4.337396,0 4.35234,0.013948 4.35234,0.029888 Z" /><path d="M4.762466,0.029888 C4.762466,0.016936 4.775417,0 4.795342,0 L4.983636,0 C5.056363,0 5.144035,0.002989 5.205803,0.056787 C5.271557,0.113574 5.271557,0.200249 5.271557,0.268991 L5.271557,0.290909 C5.271557,0.37061 5.268568,0.462267 5.208792,0.527024 C5.145031,0.596762 5.046401,0.597758 4.969689,0.597758 L4.795342,0.597758 C4.781395,0.597758 4.762466,0.585803 4.762466,0.56787 L4.762466,0.029888 Z M4.828219,0.059776 L4.828219,0.537983 L4.963711,0.537983 C5.045405,0.537983 5.116139,0.534994 5.157982,0.489166 C5.201818,0.441345 5.205803,0.355666 5.205803,0.268991 C5.205803,0.19726 5.199825,0.133499 5.159975,0.09863 C5.118132,0.061768 5.043412,0.059776 4.963711,0.059776 L4.828219,0.059776 Z" /><path d="M5.625229,0.399502 C5.694968,0.399502 5.758729,0.396513 5.793598,0.366625 C5.825478,0.33873 5.831456,0.285928 5.831456,0.224159 C5.831456,0.16239 5.825478,0.109589 5.793598,0.081694 C5.758729,0.051806 5.694968,0.048817 5.625229,0.048817 C5.55549,0.048817 5.49173,0.051806 5.456861,0.081694 C5.42498,0.109589 5.419003,0.162391 5.419003,0.224159 C5.419003,0.285927 5.42498,0.33873 5.456861,0.366625 C5.49173,0.396513 5.555491,0.399502 5.625229,0.399502 Z M5.353249,0.218182 C5.353249,0.160399 5.354245,0.086675 5.411032,0.038854 C5.465827,-0.00797 5.543536,-0.010959 5.6063,-0.010959 L5.644158,-0.010959 C5.706923,-0.010959 5.784631,-0.00797 5.839426,0.038854 C5.896213,0.086675 5.897209,0.160399 5.897209,0.218182 L5.897209,0.230137 C5.897209,0.28792 5.896213,0.361644 5.839426,0.409465 C5.784631,0.456289 5.706923,0.459278 5.644158,0.459278 L5.6063,0.459278 C5.543536,0.459278 5.465827,0.456289 5.411032,0.409465 C5.354245,0.361644 5.353249,0.28792 5.353249,0.230137 L5.353249,0.218182 Z" /><path d="M6.034693,0 L6.411281,0 C6.429214,0 6.444158,0.013948 6.444158,0.029888 C6.444158,0.045828 6.429214,0.059776 6.411281,0.059776 L6.107421,0.059776 L6.436188,0.398506 C6.439176,0.401494 6.444158,0.410461 6.444158,0.418431 C6.444158,0.434371 6.429214,0.448319 6.411281,0.448319 L6.034693,0.448319 C6.016761,0.448319 6.001817,0.434371 6.001817,0.418431 C6.001817,0.402491 6.016761,0.388543 6.034693,0.388543 L6.338554,0.388543 L6.009787,0.049813 C6.004805,0.043836 6.001817,0.036862 6.001817,0.029888 C6.001817,0.013948 6.016761,0 6.034693,0 Z" /><path d="M7.013023,0.029888 C7.013023,0.045828 6.998079,0.059776 6.980146,0.059776 L6.665327,0.059776 L6.665327,0.194271 L6.920371,0.194271 C6.938303,0.194271 6.953247,0.208219 6.953247,0.224159 C6.953247,0.240099 6.938303,0.254047 6.920371,0.254047 L6.665327,0.254047 L6.665327,0.388543 L6.980146,0.388543 C6.998079,0.388543 7.013023,0.402491 7.013023,0.418431 C7.013023,0.434371 6.998079,0.448319 6.980146,0.448319 L6.63245,0.448319 C6.618503,0.448319 6.599574,0.436364 6.599574,0.418431 L6.599574,0.029888 C6.599574,0.016936 6.612525,0 6.63245,0 L6.980146,0 C6.998079,0 7.013023,0.013948 7.013023,0.029888 Z" /><path d="M7.190358,-0.010959 C7.208291,-0.010959 7.223235,0.002989 7.223235,0.018929 L7.223235,0.356663 L7.534069,0.06675 L7.534069,0.018929 C7.534069,0.002989 7.549013,-0.010959 7.566946,-0.010959 C7.584879,-0.010959 7.599823,0.002989 7.599823,0.018929 L7.599823,0.42939 C7.599823,0.44533 7.584879,0.459278 7.566946,0.459278 C7.549013,0.459278 7.534069,0.44533 7.534069,0.42939 L7.534069,0.151432 L7.214269,0.450311 C7.210284,0.454296 7.200321,0.459278 7.190358,0.459278 C7.172426,0.459278 7.157482,0.44533 7.157482,0.42939 L7.157482,0.018929 C7.157482,0.002989 7.172426,-0.010959 7.190358,-0.010959 Z" /></g></g></g></g></g></g></g><g transform="translate(0, -0.261144)"><g transform="translate(0, 0)"><g transform="scale(1)"><g transform="translate(0, 0)"><g opacity="1"><g transform="translate(-3.068822, -0.2934)"><g><path d="M0.531009,0.029888 C0.531009,0.045828 0.516065,0.059776 0.498132,0.059776 L0.143462,0.059776 L0.143462,0.56787 C0.143462,0.583811 0.128518,0.597758 0.110585,0.597758 C0.092652,0.597758 0.077709,0.583811 0.077709,0.56787 L0.077709,0.029888 C0.077709,0.016936 0.09066,0 0.110585,0 L0.498132,0 C0.516065,0 0.531009,0.013948 0.531009,0.029888 Z" /><path d="M0.650561,-0.010959 C0.668493,-0.010959 0.683437,0.002989 0.683437,0.018929 L0.683437,0.42939 C0.683437,0.44533 0.668493,0.459278 0.650561,0.459278 C0.632629,0.459278 0.617684,0.44533 0.617684,0.42939 L0.617684,0.018929 C0.617684,0.002989 0.632628,-0.010959 0.650561,-0.010959 Z" /><path d="M1.127771,0.145455 C1.127771,0.137484 1.13076,0.130511 1.137733,0.124533 L1.207472,0.063761 C1.171606,0.049813 1.121793,0.048817 1.068991,0.048817 C0.999253,0.048817 0.935492,0.051806 0.900623,0.081694 C0.868742,0.109589 0.862765,0.162391 0.862765,0.224159 C0.862765,0.285927 0.868742,0.33873 0.900623,0.366625 C0.935492,0.396513 0.999253,0.399502 1.068991,0.399502 C1.138729,0.399502 1.202491,0.396513 1.23736,0.366625 C1.26924,0.33873 1.275218,0.285928 1.275218,0.224159 C1.275218,0.177335 1.272229,0.134496 1.256289,0.104608 L1.182565,0.167372 C1.176588,0.172354 1.168618,0.175342 1.160647,0.175342 C1.143711,0.175342 1.127771,0.162391 1.127771,0.145455 Z M0.797011,0.218182 C0.797011,0.160399 0.798007,0.086675 0.854794,0.038854 C0.909589,-0.00797 0.987298,-0.010959 1.050062,-0.010959 L1.08792,-0.010959 C1.141718,-0.010959 1.206476,-0.008966 1.258281,0.020922 L1.28518,-0.002989 C1.291158,-0.00797 1.300124,-0.010959 1.308095,-0.010959 C1.325031,-0.010959 1.340971,0.001993 1.340971,0.018929 C1.340971,0.026899 1.337982,0.033873 1.331009,0.039851 L1.305106,0.061768 C1.340971,0.110585 1.340971,0.17335 1.340971,0.224159 L1.340971,0.230137 C1.340971,0.28792 1.339975,0.361644 1.283188,0.409465 C1.228393,0.456289 1.150685,0.459278 1.08792,0.459278 L1.050062,0.459278 C0.987298,0.459278 0.909589,0.456289 0.854794,0.409465 C0.798007,0.361644 0.797011,0.28792 0.797011,0.230137 L0.797011,0.218182 Z" /><path d="M1.674719,-0.010959 C1.726525,-0.010959 1.796264,-0.009963 1.843088,0.040847 C1.885927,0.087671 1.88792,0.150436 1.88792,0.204234 L1.88792,0.42939 C1.88792,0.44533 1.872976,0.459278 1.855043,0.459278 C1.83711,0.459278 1.822166,0.44533 1.822166,0.42939 L1.822166,0.224159 C1.822166,0.164384 1.819178,0.108593 1.792278,0.078705 C1.767372,0.051806 1.723536,0.048817 1.666749,0.048817 C1.609962,0.048817 1.566127,0.051806 1.54122,0.078705 C1.514321,0.108593 1.511332,0.164384 1.511332,0.224159 L1.511332,0.42939 C1.511332,0.44533 1.496388,0.459278 1.478455,0.459278 C1.460522,0.459278 1.445579,0.44533 1.445579,0.42939 L1.445579,0.204234 C1.445579,0.150436 1.447571,0.087671 1.49041,0.040847 C1.537235,-0.009963 1.606973,-0.010959 1.658779,-0.010959 L1.674719,-0.010959 Z" /><path d="M2.264507,0.399502 C2.334246,0.399502 2.398007,0.396513 2.432876,0.366625 C2.464756,0.33873 2.470734,0.285928 2.470734,0.224159 C2.470734,0.16239 2.464756,0.109589 2.432876,0.081694 C2.398007,0.051806 2.334246,0.048817 2.264507,0.048817 C2.194768,0.048817 2.131008,0.051806 2.096139,0.081694 C2.064258,0.109589 2.058281,0.162391 2.058281,0.224159 C2.058281,0.285927 2.064258,0.33873 2.096139,0.366625 C2.131008,0.396513 2.194769,0.399502 2.264507,0.399502 Z M1.992527,0.218182 C1.992527,0.160399 1.993523,0.086675 2.05031,0.038854 C2.105105,-0.00797 2.182814,-0.010959 2.245578,-0.010959 L2.283436,-0.010959 C2.346201,-0.010959 2.423909,-0.00797 2.478704,0.038854 C2.535491,0.086675 2.536487,0.160399 2.536487,0.218182 L2.536487,0.230137 C2.536487,0.28792 2.535491,0.361644 2.478704,0.409465 C2.423909,0.456289 2.346201,0.459278 2.283436,0.459278 L2.245578,0.459278 C2.182814,0.459278 2.105105,0.456289 2.05031,0.409465 C1.993523,0.361644 1.992527,0.28792 1.992527,0.230137 L1.992527,0.218182 Z" /><path d="M2.870234,-0.010959 C2.92204,-0.010959 2.991779,-0.009963 3.038603,0.040847 C3.081442,0.087671 3.083435,0.150436 3.083435,0.204234 L3.083435,0.42939 C3.083435,0.44533 3.068491,0.459278 3.050558,0.459278 C3.032625,0.459278 3.017681,0.44533 3.017681,0.42939 L3.017681,0.224159 C3.017681,0.164384 3.014693,0.108593 2.987793,0.078705 C2.962887,0.051806 2.919051,0.048817 2.862264,0.048817 C2.805477,0.048817 2.761642,0.051806 2.736735,0.078705 C2.709836,0.108593 2.706847,0.164384 2.706847,0.224159 L2.706847,0.42939 C2.706847,0.44533 2.691903,0.459278 2.67397,0.459278 C2.656037,0.459278 2.641094,0.44533 2.641094,0.42939 L2.641094,0.204234 C2.641094,0.150436 2.643086,0.087671 2.685925,0.040847 C2.73275,-0.009963 2.802488,-0.010959 2.854294,-0.010959 L2.870234,-0.010959 Z" /><path d="M3.304605,0.254047 L3.304605,0.388543 L3.479947,0.388543 C3.526772,0.388543 3.574593,0.38655 3.595514,0.374595 C3.605477,0.368618 3.614443,0.348692 3.614443,0.320797 C3.614443,0.292902 3.605477,0.273973 3.595514,0.267995 C3.574593,0.25604 3.526772,0.254047 3.479947,0.254047 L3.304605,0.254047 Z M3.680197,0.018929 C3.680197,0.024907 3.677208,0.030884 3.673223,0.035866 L3.543708,0.195268 C3.573596,0.19726 3.605477,0.204234 3.63138,0.219178 C3.673223,0.244085 3.680197,0.28792 3.680197,0.320797 C3.680197,0.353674 3.673223,0.398506 3.63138,0.423412 C3.592525,0.446326 3.543708,0.448319 3.501865,0.448319 L3.271728,0.448319 C3.257781,0.448319 3.238852,0.436364 3.238852,0.418431 L3.238852,0.018929 C3.238852,0.002989 3.253796,-0.010959 3.271728,-0.010959 C3.28966,-0.010959 3.304605,0.002989 3.304605,0.018929 L3.304605,0.194271 L3.463011,0.194271 L3.620421,0.000996 C3.626398,-0.006974 3.637357,-0.010959 3.64732,-0.010959 C3.665253,-0.010959 3.680197,0.002989 3.680197,0.018929 Z" /><path d="M3.984718,0.018929 C3.984718,0.002989 3.999662,-0.010959 4.017595,-0.010959 L4.048479,-0.010959 C4.113236,-0.010959 4.196922,-0.009963 4.251717,0.049813 C4.303522,0.105604 4.305515,0.183313 4.305515,0.249066 L4.305515,0.56787 C4.305515,0.583811 4.290571,0.597758 4.272638,0.597758 C4.254705,0.597758 4.239762,0.583811 4.239762,0.56787 L4.239762,0.268991 C4.239762,0.196264 4.236773,0.126526 4.200907,0.087671 C4.167034,0.051806 4.110247,0.048817 4.040509,0.048817 L4.017595,0.048817 C3.999662,0.048817 3.984718,0.034869 3.984718,0.018929 Z" /><path d="M4.690073,-0.010959 C4.741879,-0.010959 4.811618,-0.009963 4.858442,0.040847 C4.901281,0.087671 4.903274,0.150436 4.903274,0.204234 L4.903274,0.42939 C4.903274,0.44533 4.88833,0.459278 4.870397,0.459278 C4.852464,0.459278 4.83752,0.44533 4.83752,0.42939 L4.83752,0.224159 C4.83752,0.164384 4.834532,0.108593 4.807632,0.078705 C4.782726,0.051806 4.73889,0.048817 4.682103,0.048817 C4.625316,0.048817 4.581481,0.051806 4.556574,0.078705 C4.529675,0.108593 4.526686,0.164384 4.526686,0.224159 L4.526686,0.42939 C4.526686,0.44533 4.511742,0.459278 4.493809,0.459278 C4.475876,0.459278 4.460933,0.44533 4.460933,0.42939 L4.460933,0.204234 C4.460933,0.150436 4.462925,0.087671 4.505764,0.040847 C4.552589,-0.009963 4.622327,-0.010959 4.674133,-0.010959 L4.690073,-0.010959 Z" /><path d="M5.46118,0.418431 C5.46118,0.434371 5.446236,0.448319 5.428304,0.448319 L5.266909,0.448319 C5.203148,0.448319 5.124443,0.44533 5.068652,0.401494 C5.009873,0.35467 5.00788,0.280946 5.00788,0.224159 C5.00788,0.167372 5.009873,0.093649 5.068652,0.046824 C5.124443,0.002989 5.203148,0 5.266909,0 L5.428304,0 C5.448229,0 5.46118,0.016936 5.46118,0.029888 L5.46118,0.224159 C5.46118,0.242092 5.442251,0.254047 5.428304,0.254047 L5.28783,0.254047 C5.269898,0.254047 5.254954,0.2401 5.254954,0.224159 C5.254954,0.208218 5.269898,0.194271 5.28783,0.194271 L5.395427,0.194271 L5.395427,0.059776 L5.28783,0.059776 C5.217096,0.059776 5.148353,0.061768 5.111492,0.09066 C5.080607,0.11457 5.073634,0.16538 5.073634,0.224159 C5.073634,0.282938 5.080607,0.333748 5.111492,0.357659 C5.148353,0.38655 5.217096,0.388543 5.28783,0.388543 L5.428304,0.388543 C5.446236,0.388543 5.46118,0.402491 5.46118,0.418431 Z" /><path d="M6.010122,0.418431 C6.010122,0.434371 5.995178,0.448319 5.977245,0.448319 L5.739138,0.448319 C5.703273,0.448319 5.658441,0.446326 5.623571,0.416438 C5.58671,0.385554 5.585713,0.341719 5.585713,0.308842 L5.585713,0.301868 C5.585713,0.274969 5.591691,0.235118 5.628553,0.214197 C5.661429,0.195268 5.70128,0.194271 5.735153,0.194271 L5.94138,0.194271 C5.966286,0.194271 5.986212,0.192279 5.990197,0.18929 C5.990197,0.18929 5.994182,0.180324 5.994182,0.16538 C5.994182,0.127522 5.991193,0.087671 5.98123,0.071731 C5.977245,0.064757 5.96529,0.059776 5.94138,0.059776 L5.61859,0.059776 C5.600657,0.059776 5.585713,0.045828 5.585713,0.029888 C5.585713,0.013948 5.600657,0 5.61859,0 L5.94138,0 C5.970271,0 6.016099,0.005978 6.039014,0.042839 C6.058939,0.07472 6.059935,0.112578 6.059935,0.145455 L6.059935,0.16538 C6.059935,0.183313 6.059935,0.216189 6.030047,0.236115 C6.006137,0.252055 5.978241,0.254047 5.956324,0.254047 L5.756075,0.254047 C5.71722,0.254047 5.678366,0.25604 5.663422,0.265006 C5.658441,0.267995 5.651467,0.27995 5.651467,0.301868 C5.651467,0.337733 5.655452,0.36264 5.668403,0.373599 C5.683347,0.38655 5.715228,0.388543 5.756075,0.388543 L5.977245,0.388543 C5.995178,0.388543 6.010122,0.402491 6.010122,0.418431 Z" /></g></g></g></g></g></g></g></g></g></svg>