<svg viewBox="-8 -4.5 16 9" xmlns="http://www.w3.org/2000/svg" xmlns:xlink="http://www.w3.org/1999/xlink" version="1.1" preserveAspectRatio="none"><g stroke-width="0.05" transform="scale(1, -1)"><g><g transform="translate(0, 3.325529)"><g transform="translate(0, 0)"><g transform="scale(1)"><g transform="translate(0, 0)"><g opacity="1"><g transform="scale(2)"><g transform="translate(-2.747696, -0.325281)"><g><path d="M0.087671,0.620672 L0.087671,0.561893 L0.203238,0.561893 L0.203238,0.057783 L0.080697,0.057783 L0.080697,-0.000996 L0.401494,-0.000996 L0.401494,0.056787 L0.272976,0.056787 L0.272976,0.561893 L0.395517,0.561893 L0.395517,0.620672 L0.087671,0.620672 Z" /><path d="M0.565878,0 L0.639601,0 L0.639601,0.262017 C0.639601,0.283935 0.643587,0.303861 0.651557,0.320797 C0.660523,0.337733 0.671482,0.352677 0.683437,0.364633 C0.697385,0.377584 0.711332,0.38655 0.727273,0.393524 C0.743214,0.400498 0.759153,0.403487 0.774097,0.403487 C0.797011,0.403487 0.816936,0.393524 0.832877,0.374595 C0.849813,0.355666 0.857783,0.321793 0.857783,0.273973 L0.857783,0 L0.928518,0 L0.928518,0.275965 C0.928518,0.310834 0.924533,0.339726 0.918555,0.363636 C0.910585,0.387547 0.901619,0.407472 0.888667,0.422416 C0.875715,0.43736 0.860772,0.448319 0.843836,0.456289 C0.826899,0.462267 0.80797,0.466252 0.788045,0.466252 C0.760149,0.466252 0.73325,0.458281 0.705355,0.441345 C0.679452,0.424408 0.656538,0.402491 0.639601,0.374595 L0.639601,0.455293 L0.565878,0.455293 L0.565878,0 Z" /><path d="M1.451557,0.379577 C1.432628,0.406476 1.408717,0.426401 1.378829,0.442341 C1.349938,0.456289 1.317061,0.464259 1.281196,0.464259 C1.248319,0.464259 1.217435,0.458281 1.189539,0.446326 C1.160648,0.434371 1.136737,0.418431 1.115816,0.396513 C1.09589,0.376588 1.07995,0.350685 1.068991,0.321793 C1.058032,0.292901 1.052055,0.261021 1.052055,0.227148 C1.052055,0.192279 1.058032,0.161395 1.068991,0.131507 C1.07995,0.103611 1.09589,0.077709 1.115816,0.056787 C1.136737,0.035866 1.160648,0.018929 1.187547,0.006974 C1.215442,-0.004981 1.24533,-0.010959 1.278207,-0.010959 C1.34396,-0.010959 1.399751,0.012951 1.444583,0.060772 L1.40274,0.109589 C1.369863,0.072727 1.330012,0.053798 1.284184,0.053798 C1.26127,0.053798 1.239352,0.057783 1.220423,0.067746 C1.201494,0.075716 1.184558,0.088667 1.17061,0.104608 C1.156662,0.120549 1.145704,0.139477 1.137733,0.161395 C1.129762,0.183313 1.125778,0.207223 1.125778,0.233126 C1.125778,0.259029 1.129763,0.282939 1.137733,0.302864 C1.145704,0.324782 1.156663,0.342715 1.169614,0.356663 C1.182565,0.372603 1.198506,0.383562 1.215442,0.391532 C1.233375,0.399502 1.252304,0.403487 1.271233,0.403487 C1.310087,0.403487 1.340971,0.394521 1.363885,0.375592 C1.375841,0.365629 1.383811,0.357659 1.387796,0.351681 C1.391781,0.345703 1.39477,0.340722 1.39477,0.336737 C1.396762,0.332752 1.396762,0.329763 1.396762,0.326775 C1.395766,0.324782 1.397758,0.32279 1.400747,0.320797 L1.451557,0.379577 Z" /><path d="M1.747447,0.465255 C1.719552,0.465255 1.692653,0.459278 1.66675,0.446326 C1.640847,0.434371 1.617933,0.418431 1.598007,0.396513 C1.579078,0.376588 1.563138,0.350685 1.552179,0.320797 C1.540224,0.290909 1.534247,0.259029 1.534247,0.225156 C1.534247,0.191283 1.540224,0.159402 1.551183,0.130511 C1.562142,0.10162 1.578082,0.075716 1.597011,0.055791 C1.61594,0.033873 1.638854,0.017933 1.663761,0.005978 C1.689664,-0.005978 1.717559,-0.011955 1.746451,-0.011955 C1.775343,-0.011955 1.802242,-0.005978 1.827148,0.003985 C1.852055,0.01594 1.873973,0.03188 1.892902,0.051806 C1.911831,0.073724 1.925778,0.09863 1.936737,0.127522 C1.947696,0.156414 1.952677,0.190286 1.952677,0.227148 C1.952677,0.26401 1.9467,0.296887 1.936737,0.326775 C1.924782,0.355666 1.910834,0.380573 1.891905,0.401494 C1.872976,0.422415 1.851059,0.438356 1.827148,0.448319 C1.801245,0.460274 1.775342,0.465255 1.747447,0.465255 Z M1.880946,0.225156 C1.880946,0.19726 1.876961,0.172354 1.870984,0.150436 C1.863014,0.128518 1.854047,0.109589 1.841096,0.095641 C1.829141,0.079701 1.815193,0.068742 1.799253,0.061768 C1.782316,0.053798 1.76538,0.049813 1.746451,0.049813 C1.727522,0.049813 1.710585,0.053798 1.693649,0.062765 C1.676713,0.071732 1.662765,0.083686 1.649813,0.099626 C1.637858,0.115567 1.627895,0.134496 1.620922,0.156413 C1.613949,0.17833 1.609963,0.202242 1.609963,0.229141 C1.609963,0.25604 1.613948,0.280946 1.620922,0.302864 C1.627895,0.323786 1.637858,0.342715 1.649813,0.357659 C1.662765,0.372603 1.676712,0.384558 1.693649,0.392528 C1.709589,0.400498 1.726526,0.404483 1.744458,0.404483 C1.76239,0.404483 1.779328,0.400498 1.795268,0.392528 C1.812204,0.384558 1.826152,0.372603 1.839103,0.357659 C1.852054,0.342715 1.862017,0.323786 1.868991,0.300872 C1.876961,0.278954 1.880946,0.254047 1.880946,0.225156 Z" /><path d="M2.060274,0 L2.133997,0 L2.133997,0.262017 C2.133997,0.283935 2.137983,0.303861 2.145953,0.320797 C2.154919,0.337733 2.165878,0.352677 2.177833,0.364633 C2.191781,0.377584 2.205728,0.38655 2.221669,0.393524 C2.23761,0.400498 2.253549,0.403487 2.268493,0.403487 C2.291407,0.403487 2.311332,0.393524 2.327273,0.374595 C2.344209,0.355666 2.352179,0.321793 2.352179,0.273973 L2.352179,0 L2.422914,0 L2.422914,0.275965 C2.422914,0.310834 2.418929,0.339726 2.412951,0.363636 C2.404981,0.387547 2.396015,0.407472 2.383063,0.422416 C2.370111,0.43736 2.355168,0.448319 2.338232,0.456289 C2.321295,0.462267 2.302366,0.466252 2.282441,0.466252 C2.254545,0.466252 2.227646,0.458281 2.199751,0.441345 C2.173848,0.424408 2.150934,0.402491 2.133997,0.374595 L2.133997,0.455293 L2.060274,0.455293 L2.060274,0 Z" /><path d="M2.921046,0.394521 C2.878207,0.442341 2.82142,0.466252 2.751681,0.466252 C2.726775,0.466252 2.702864,0.462267 2.681943,0.456289 C2.660025,0.448319 2.641096,0.439352 2.626152,0.428394 C2.610212,0.417435 2.598257,0.404483 2.58929,0.389539 C2.580323,0.374595 2.576339,0.359651 2.576339,0.343711 C2.576339,0.328767 2.579327,0.315816 2.584309,0.302864 C2.58929,0.290909 2.596264,0.27995 2.60523,0.270984 C2.614197,0.261021 2.623163,0.253051 2.634122,0.245081 C2.645081,0.239103 2.662017,0.230137 2.685928,0.221171 C2.694894,0.218182 2.714819,0.212204 2.743711,0.203238 C2.78655,0.190286 2.815442,0.178331 2.831382,0.166376 C2.847322,0.154421 2.855293,0.139477 2.855293,0.12254 C2.855293,0.111582 2.852304,0.101619 2.84533,0.091656 C2.838356,0.083686 2.82939,0.075716 2.819427,0.069738 C2.807472,0.062765 2.795517,0.057783 2.781569,0.054795 C2.768618,0.051806 2.75467,0.049813 2.741719,0.049813 C2.728768,0.049813 2.716812,0.050809 2.70386,0.052802 C2.690908,0.054795 2.67995,0.057783 2.669988,0.062765 C2.64807,0.071731 2.632129,0.080697 2.621171,0.087671 C2.610212,0.095641 2.603238,0.102615 2.599253,0.108593 C2.595268,0.114571 2.593275,0.119552 2.592279,0.123537 C2.591283,0.128518 2.590286,0.131507 2.588294,0.133499 L2.547447,0.061768 C2.599253,0.013948 2.663014,-0.009963 2.739726,-0.009963 C2.768618,-0.009963 2.795517,-0.005978 2.818431,0.001993 C2.841345,0.008966 2.86127,0.019925 2.878207,0.032877 C2.895144,0.045829 2.907098,0.061768 2.916065,0.079701 C2.925032,0.097634 2.929016,0.116563 2.929016,0.136488 C2.929016,0.167372 2.917061,0.193275 2.893151,0.2132 C2.870237,0.235118 2.82939,0.253051 2.772603,0.267995 C2.747696,0.274969 2.726775,0.281943 2.711831,0.28792 C2.69589,0.293898 2.683935,0.299875 2.674969,0.305853 C2.666003,0.311831 2.660025,0.317808 2.65604,0.324782 C2.652055,0.33076 2.650062,0.337733 2.650062,0.345704 C2.650062,0.356663 2.653051,0.365629 2.658032,0.374595 C2.663014,0.382565 2.669988,0.389539 2.67995,0.394521 C2.68792,0.399502 2.698879,0.404483 2.709838,0.406476 C2.721793,0.410461 2.733748,0.411457 2.7467,0.411457 C2.774595,0.411457 2.799502,0.404483 2.82142,0.392528 C2.843337,0.37858 2.860274,0.364633 2.872229,0.349689 C2.873225,0.347696 2.874222,0.344707 2.874222,0.339726 C2.874222,0.334745 2.876214,0.332752 2.879203,0.331756 L2.921046,0.394521 Z" /><path d="M3.241843,0.465255 C3.213948,0.465255 3.187049,0.459278 3.161146,0.446326 C3.135243,0.434371 3.112329,0.418431 3.092403,0.396513 C3.073474,0.376588 3.057534,0.350685 3.046575,0.320797 C3.03462,0.290909 3.028643,0.259029 3.028643,0.225156 C3.028643,0.191283 3.03462,0.159402 3.045579,0.130511 C3.056538,0.10162 3.072478,0.075716 3.091407,0.055791 C3.110336,0.033873 3.13325,0.017933 3.158157,0.005978 C3.18406,-0.005978 3.211955,-0.011955 3.240847,-0.011955 C3.269739,-0.011955 3.296638,-0.005978 3.321544,0.003985 C3.346451,0.01594 3.368369,0.03188 3.387298,0.051806 C3.406227,0.073724 3.420174,0.09863 3.431133,0.127522 C3.442092,0.156414 3.447073,0.190286 3.447073,0.227148 C3.447073,0.26401 3.441096,0.296887 3.431133,0.326775 C3.419178,0.355666 3.40523,0.380573 3.386301,0.401494 C3.367372,0.422415 3.345455,0.438356 3.321544,0.448319 C3.295641,0.460274 3.269738,0.465255 3.241843,0.465255 Z M3.375342,0.225156 C3.375342,0.19726 3.371357,0.172354 3.36538,0.150436 C3.35741,0.128518 3.348443,0.109589 3.335492,0.095641 C3.323537,0.079701 3.309589,0.068742 3.293649,0.061768 C3.276712,0.053798 3.259776,0.049813 3.240847,0.049813 C3.221918,0.049813 3.204981,0.053798 3.188045,0.062765 C3.171109,0.071732 3.157161,0.083686 3.144209,0.099626 C3.132254,0.115567 3.122291,0.134496 3.115318,0.156413 C3.108345,0.17833 3.104359,0.202242 3.104359,0.229141 C3.104359,0.25604 3.108344,0.280946 3.115318,0.302864 C3.122291,0.323786 3.132254,0.342715 3.144209,0.357659 C3.157161,0.372603 3.171108,0.384558 3.188045,0.392528 C3.203985,0.400498 3.220922,0.404483 3.238854,0.404483 C3.256786,0.404483 3.273724,0.400498 3.289664,0.392528 C3.3066,0.384558 3.320548,0.372603 3.333499,0.357659 C3.34645,0.342715 3.356413,0.323786 3.363387,0.300872 C3.371357,0.278954 3.375342,0.254047 3.375342,0.225156 Z" /><path d="M3.571606,0.662516 L3.571606,0.604732 L3.700124,0.604732 L3.700124,0.057783 L3.565629,0.057783 L3.565629,0 L3.906351,0 L3.906351,0.057783 L3.772852,0.057783 L3.772852,0.662516 L3.571606,0.662516 Z" /><path d="M4.075716,0.401494 L4.110585,0.355666 C4.143462,0.389539 4.184309,0.406476 4.233126,0.406476 C4.272976,0.406476 4.301868,0.397509 4.321793,0.379577 C4.339726,0.361644 4.349689,0.329763 4.349689,0.284932 L4.349689,0.267995 L4.26401,0.267995 C4.18929,0.265006 4.132503,0.251059 4.092653,0.224159 C4.053798,0.19726 4.033873,0.161395 4.033873,0.115567 C4.033873,0.100623 4.036862,0.084682 4.044832,0.069738 C4.050809,0.054795 4.061768,0.040847 4.07472,0.028892 C4.087672,0.016937 4.104608,0.006974 4.12254,0 C4.142466,-0.006974 4.163387,-0.010959 4.187298,-0.010959 C4.24807,-0.010959 4.301868,0.008966 4.350685,0.049813 L4.350685,0 L4.418431,0 L4.418431,0.281943 C4.418431,0.347696 4.402491,0.394521 4.369614,0.422416 C4.337733,0.451308 4.293898,0.465255 4.238107,0.465255 C4.170361,0.465255 4.116563,0.444334 4.075716,0.401494 Z M4.352677,0.2132 L4.352677,0.183313 C4.352677,0.160399 4.349689,0.142466 4.342715,0.129514 C4.339726,0.12254 4.333748,0.113574 4.326775,0.103611 C4.319801,0.094645 4.309838,0.085679 4.297883,0.075716 C4.285928,0.067746 4.27198,0.059776 4.25604,0.053798 C4.2401,0.046824 4.222167,0.043836 4.202242,0.043836 C4.175342,0.043836 4.152428,0.051806 4.133499,0.06675 C4.11457,0.081694 4.105604,0.100623 4.105604,0.121544 C4.105604,0.134496 4.108593,0.145455 4.112578,0.15741 C4.118555,0.167372 4.127522,0.177335 4.140473,0.186301 C4.153424,0.195267 4.172354,0.201245 4.195268,0.207223 C4.218182,0.211208 4.24807,0.214197 4.284931,0.214197 C4.292902,0.214197 4.300872,0.214197 4.309838,0.2132 L4.335741,0.2132 L4.352677,0.2132 Z" /><path d="M4.670486,0.576837 L4.662516,0.455293 L4.552926,0.455293 L4.552926,0.396513 L4.659527,0.396513 C4.655542,0.347696 4.652553,0.303861 4.651557,0.266999 C4.650561,0.230137 4.649564,0.199253 4.649564,0.175342 C4.647572,0.110585 4.657534,0.063761 4.679452,0.033873 C4.70137,0.005978 4.736239,-0.008966 4.78406,-0.008966 C4.832877,-0.008966 4.879701,0.00797 4.925529,0.041843 L4.903611,0.09863 C4.86675,0.071731 4.832877,0.057783 4.801992,0.057783 C4.78406,0.057783 4.770112,0.061768 4.759153,0.067746 C4.748194,0.075716 4.740224,0.084682 4.734247,0.097634 C4.729265,0.110585 4.72528,0.127522 4.724284,0.14944 C4.723288,0.171358 4.722291,0.198257 4.722291,0.230137 C4.722291,0.281943 4.72528,0.337733 4.731258,0.396513 L4.880697,0.396513 L4.880697,0.455293 L4.731258,0.455293 L4.743213,0.562889 C4.744209,0.565878 4.745205,0.568867 4.746202,0.573848 C4.748194,0.578829 4.74919,0.583811 4.74919,0.589788 L4.670486,0.576837 Z" /><path d="M5.07198,0.401494 L5.106849,0.355666 C5.139726,0.389539 5.180573,0.406476 5.22939,0.406476 C5.26924,0.406476 5.298132,0.397509 5.318057,0.379577 C5.33599,0.361644 5.345953,0.329763 5.345953,0.284932 L5.345953,0.267995 L5.260274,0.267995 C5.185554,0.265006 5.128767,0.251059 5.088917,0.224159 C5.050062,0.19726 5.030137,0.161395 5.030137,0.115567 C5.030137,0.100623 5.033126,0.084682 5.041096,0.069738 C5.047073,0.054795 5.058032,0.040847 5.070984,0.028892 C5.083936,0.016937 5.100872,0.006974 5.118804,0 C5.13873,-0.006974 5.159651,-0.010959 5.183562,-0.010959 C5.244334,-0.010959 5.298132,0.008966 5.346949,0.049813 L5.346949,0 L5.414695,0 L5.414695,0.281943 C5.414695,0.347696 5.398755,0.394521 5.365878,0.422416 C5.333997,0.451308 5.290162,0.465255 5.234371,0.465255 C5.166625,0.465255 5.112827,0.444334 5.07198,0.401494 Z M5.348941,0.2132 L5.348941,0.183313 C5.348941,0.160399 5.345953,0.142466 5.338979,0.129514 C5.33599,0.12254 5.330012,0.113574 5.323039,0.103611 C5.316065,0.094645 5.306102,0.085679 5.294147,0.075716 C5.282192,0.067746 5.268244,0.059776 5.252304,0.053798 C5.236364,0.046824 5.218431,0.043836 5.198506,0.043836 C5.171606,0.043836 5.148692,0.051806 5.129763,0.06675 C5.110834,0.081694 5.101868,0.100623 5.101868,0.121544 C5.101868,0.134496 5.104857,0.145455 5.108842,0.15741 C5.114819,0.167372 5.123786,0.177335 5.136737,0.186301 C5.149688,0.195267 5.168618,0.201245 5.191532,0.207223 C5.214446,0.211208 5.244334,0.214197 5.281195,0.214197 C5.289166,0.214197 5.297136,0.214197 5.306102,0.2132 L5.332005,0.2132 L5.348941,0.2132 Z" /></g></g></g></g></g></g></g></g><g transform="translate(0, 1.733125)"><g transform="translate(0, 0)"><g transform="scale(1)"><g transform="translate(0, 0)"><g opacity="1"><g transform="translate(-2.747198, -0.244583)"><g><path d="M0.05878,0.620672 L0.05878,0 L0.130511,0 L0.130511,0.273973 L0.263014,0.273973 C0.296887,0.273973 0.325778,0.278954 0.348692,0.286924 C0.372603,0.296887 0.392528,0.308842 0.406476,0.323786 C0.422416,0.33873 0.433375,0.356663 0.440349,0.37858 C0.448319,0.398506 0.4533,0.42142 0.454296,0.44533 C0.4533,0.46924 0.448319,0.492154 0.440349,0.513076 C0.433375,0.533998 0.42142,0.552927 0.406476,0.569863 C0.390535,0.585803 0.37061,0.597758 0.3467,0.607721 C0.321793,0.615691 0.292902,0.620672 0.258032,0.620672 L0.05878,0.620672 Z M0.130511,0.554919 L0.25604,0.554919 C0.277958,0.554919 0.296887,0.55193 0.312827,0.545953 C0.327771,0.539975 0.340722,0.532005 0.350685,0.522042 C0.360648,0.512079 0.368618,0.500125 0.372603,0.486177 C0.37858,0.473225 0.381569,0.458281 0.382565,0.443337 C0.380573,0.410461 0.37061,0.384558 0.350685,0.364633 C0.332752,0.345704 0.299875,0.335741 0.255044,0.335741 L0.130511,0.335741 L0.130511,0.554919 Z" /><path d="M0.588792,0.401494 L0.623661,0.355666 C0.656538,0.389539 0.697385,0.406476 0.746202,0.406476 C0.786052,0.406476 0.814944,0.397509 0.834869,0.379577 C0.852802,0.361644 0.862765,0.329763 0.862765,0.284932 L0.862765,0.267995 L0.777086,0.267995 C0.702366,0.265006 0.645579,0.251059 0.605729,0.224159 C0.566874,0.19726 0.546949,0.161395 0.546949,0.115567 C0.546949,0.100623 0.549938,0.084682 0.557908,0.069738 C0.563885,0.054795 0.574844,0.040847 0.587796,0.028892 C0.600748,0.016937 0.617684,0.006974 0.635616,0 C0.655542,-0.006974 0.676463,-0.010959 0.700374,-0.010959 C0.761146,-0.010959 0.814944,0.008966 0.863761,0.049813 L0.863761,0 L0.931507,0 L0.931507,0.281943 C0.931507,0.347696 0.915567,0.394521 0.88269,0.422416 C0.850809,0.451308 0.806974,0.465255 0.751183,0.465255 C0.683437,0.465255 0.629639,0.444334 0.588792,0.401494 Z M0.865753,0.2132 L0.865753,0.183313 C0.865753,0.160399 0.862765,0.142466 0.855791,0.129514 C0.852802,0.12254 0.846824,0.113574 0.839851,0.103611 C0.832877,0.094645 0.822914,0.085679 0.810959,0.075716 C0.799004,0.067746 0.785056,0.059776 0.769116,0.053798 C0.753176,0.046824 0.735243,0.043836 0.715318,0.043836 C0.688418,0.043836 0.665504,0.051806 0.646575,0.06675 C0.627646,0.081694 0.61868,0.100623 0.61868,0.121544 C0.61868,0.134496 0.621669,0.145455 0.625654,0.15741 C0.631631,0.167372 0.640598,0.177335 0.653549,0.186301 C0.6665,0.195267 0.68543,0.201245 0.708344,0.207223 C0.731258,0.211208 0.761146,0.214197 0.798007,0.214197 C0.805978,0.214197 0.813948,0.214197 0.822914,0.2132 L0.848817,0.2132 L0.865753,0.2132 Z" /><path d="M1.451557,0.379577 C1.432628,0.406476 1.408717,0.426401 1.378829,0.442341 C1.349938,0.456289 1.317061,0.464259 1.281196,0.464259 C1.248319,0.464259 1.217435,0.458281 1.189539,0.446326 C1.160648,0.434371 1.136737,0.418431 1.115816,0.396513 C1.09589,0.376588 1.07995,0.350685 1.068991,0.321793 C1.058032,0.292901 1.052055,0.261021 1.052055,0.227148 C1.052055,0.192279 1.058032,0.161395 1.068991,0.131507 C1.07995,0.103611 1.09589,0.077709 1.115816,0.056787 C1.136737,0.035866 1.160648,0.018929 1.187547,0.006974 C1.215442,-0.004981 1.24533,-0.010959 1.278207,-0.010959 C1.34396,-0.010959 1.399751,0.012951 1.444583,0.060772 L1.40274,0.109589 C1.369863,0.072727 1.330012,0.053798 1.284184,0.053798 C1.26127,0.053798 1.239352,0.057783 1.220423,0.067746 C1.201494,0.075716 1.184558,0.088667 1.17061,0.104608 C1.156662,0.120549 1.145704,0.139477 1.137733,0.161395 C1.129762,0.183313 1.125778,0.207223 1.125778,0.233126 C1.125778,0.259029 1.129763,0.282939 1.137733,0.302864 C1.145704,0.324782 1.156663,0.342715 1.169614,0.356663 C1.182565,0.372603 1.198506,0.383562 1.215442,0.391532 C1.233375,0.399502 1.252304,0.403487 1.271233,0.403487 C1.310087,0.403487 1.340971,0.394521 1.363885,0.375592 C1.375841,0.365629 1.383811,0.357659 1.387796,0.351681 C1.391781,0.345703 1.39477,0.340722 1.39477,0.336737 C1.396762,0.332752 1.396762,0.329763 1.396762,0.326775 C1.395766,0.324782 1.397758,0.32279 1.400747,0.320797 L1.451557,0.379577 Z" /><path d="M1.560149,0.662516 L1.560149,0 L1.632877,0 L1.632877,0.172354 L1.692653,0.228144 L1.878954,-0.003985 L1.971606,0 L1.748443,0.27198 L1.939726,0.452304 L1.913823,0.452304 C1.893898,0.452304 1.875965,0.454296 1.861021,0.457285 L1.632877,0.246077 L1.632877,0.636613 C1.632877,0.640598 1.633873,0.644583 1.637858,0.649564 C1.639851,0.654545 1.641843,0.658531 1.641843,0.662516 L1.560149,0.662516 Z" /><path d="M2.531507,0.620672 L2.531507,0 L2.596264,0 L2.596264,0.465255 L2.721793,0.218182 L2.748692,0.218182 L2.883188,0.468244 L2.883188,0 L2.948941,0 L2.948941,0.621669 L2.896139,0.621669 L2.739726,0.316812 L2.586301,0.620672 L2.531507,0.620672 Z" /><path d="M3.047572,0.423412 L3.218929,0.001993 L3.204981,-0.03188 C3.190037,-0.062765 3.17609,-0.084682 3.160149,-0.096638 C3.146202,-0.108593 3.128269,-0.11457 3.10934,-0.11457 C3.10137,-0.11457 3.094396,-0.113574 3.087422,-0.110585 C3.080448,-0.107596 3.075467,-0.105604 3.070486,-0.101619 C3.066501,-0.099626 3.063512,-0.095641 3.060523,-0.093649 L3.056538,-0.088667 C3.055542,-0.087671 3.054545,-0.084682 3.053549,-0.079701 C3.052553,-0.075716 3.05056,-0.072727 3.048568,-0.070735 L3.01071,-0.134496 C3.037609,-0.160399 3.072478,-0.17335 3.115318,-0.17335 C3.148194,-0.17335 3.17609,-0.164384 3.201992,-0.145455 C3.225903,-0.127522 3.246824,-0.096638 3.262765,-0.051806 L3.281694,-0.001993 L3.40523,0.323786 C3.415193,0.350685 3.423163,0.374595 3.431133,0.396513 C3.437111,0.418431 3.444085,0.438356 3.450062,0.455293 L3.375342,0.455293 C3.372354,0.438356 3.367372,0.420423 3.362391,0.400498 C3.35741,0.379577 3.350436,0.357659 3.341469,0.334745 L3.254794,0.09066 L3.121295,0.425405 C3.120299,0.426401 3.119303,0.428394 3.119303,0.431382 C3.119303,0.43437 3.120299,0.438356 3.121295,0.442341 C3.122291,0.44533 3.123288,0.450311 3.123288,0.455293 L3.03462,0.455293 L3.047572,0.423412 Z" /><path d="M4.032877,0.620672 L4.032877,0 L4.208219,0 C4.288917,0 4.347696,0.01594 4.384558,0.047821 C4.42142,0.079702 4.440349,0.121544 4.440349,0.174346 C4.440349,0.191283 4.43736,0.208219 4.432379,0.225156 C4.427397,0.241096 4.419427,0.25604 4.408468,0.269988 C4.397509,0.283936 4.385554,0.296887 4.371606,0.306849 C4.356662,0.318804 4.340722,0.326775 4.323786,0.332752 C4.352677,0.343711 4.375591,0.361644 4.391532,0.387547 C4.407473,0.41345 4.415442,0.441345 4.415442,0.470237 C4.415442,0.492154 4.411457,0.51208 4.402491,0.530012 C4.393524,0.548941 4.381569,0.564882 4.365629,0.578829 C4.349689,0.592776 4.328767,0.603736 4.301868,0.609714 C4.275965,0.617684 4.245081,0.620672 4.209215,0.620672 L4.032877,0.620672 Z M4.101619,0.561893 L4.210212,0.561893 C4.235118,0.561893 4.255044,0.558904 4.27198,0.553923 C4.288916,0.548942 4.301868,0.541968 4.312827,0.532005 C4.323786,0.524035 4.331756,0.513076 4.335741,0.501121 C4.341719,0.489166 4.344707,0.476214 4.345704,0.462267 C4.344707,0.448319 4.340722,0.435367 4.335741,0.422416 C4.33076,0.410461 4.321793,0.400498 4.311831,0.391532 C4.299875,0.382565 4.285928,0.376588 4.267995,0.37061 C4.250062,0.366625 4.227148,0.363636 4.199253,0.363636 L4.101619,0.363636 L4.101619,0.561893 Z M4.101619,0.304857 L4.203238,0.304857 C4.232129,0.304857 4.258032,0.301868 4.277958,0.29589 C4.299875,0.289913 4.315816,0.280946 4.327771,0.268991 C4.340722,0.258032 4.349689,0.244085 4.355666,0.229141 C4.361643,0.214197 4.365629,0.19726 4.366625,0.178331 C4.363636,0.144458 4.351681,0.116563 4.331756,0.093649 C4.309838,0.071731 4.272976,0.060772 4.220174,0.060772 L4.101619,0.060772 L4.101619,0.304857 Z" /><path d="M4.736239,0.465255 C4.708344,0.465255 4.681445,0.459278 4.655542,0.446326 C4.629639,0.434371 4.606725,0.418431 4.586799,0.396513 C4.56787,0.376588 4.55193,0.350685 4.540971,0.320797 C4.529016,0.290909 4.523039,0.259029 4.523039,0.225156 C4.523039,0.191283 4.529016,0.159402 4.539975,0.130511 C4.550934,0.10162 4.566874,0.075716 4.585803,0.055791 C4.604732,0.033873 4.627646,0.017933 4.652553,0.005978 C4.678456,-0.005978 4.706351,-0.011955 4.735243,-0.011955 C4.764135,-0.011955 4.791034,-0.005978 4.81594,0.003985 C4.840847,0.01594 4.862765,0.03188 4.881694,0.051806 C4.900623,0.073724 4.91457,0.09863 4.925529,0.127522 C4.936488,0.156414 4.941469,0.190286 4.941469,0.227148 C4.941469,0.26401 4.935492,0.296887 4.925529,0.326775 C4.913574,0.355666 4.899626,0.380573 4.880697,0.401494 C4.861768,0.422415 4.839851,0.438356 4.81594,0.448319 C4.790037,0.460274 4.764134,0.465255 4.736239,0.465255 Z M4.869738,0.225156 C4.869738,0.19726 4.865753,0.172354 4.859776,0.150436 C4.851806,0.128518 4.842839,0.109589 4.829888,0.095641 C4.817933,0.079701 4.803985,0.068742 4.788045,0.061768 C4.771108,0.053798 4.754172,0.049813 4.735243,0.049813 C4.716314,0.049813 4.699377,0.053798 4.682441,0.062765 C4.665505,0.071732 4.651557,0.083686 4.638605,0.099626 C4.62665,0.115567 4.616687,0.134496 4.609714,0.156413 C4.602741,0.17833 4.598755,0.202242 4.598755,0.229141 C4.598755,0.25604 4.60274,0.280946 4.609714,0.302864 C4.616687,0.323786 4.62665,0.342715 4.638605,0.357659 C4.651557,0.372603 4.665504,0.384558 4.682441,0.392528 C4.698381,0.400498 4.715318,0.404483 4.73325,0.404483 C4.751182,0.404483 4.76812,0.400498 4.78406,0.392528 C4.800996,0.384558 4.814944,0.372603 4.827895,0.357659 C4.840846,0.342715 4.850809,0.323786 4.857783,0.300872 C4.865753,0.278954 4.869738,0.254047 4.869738,0.225156 Z" /><path d="M5.341968,0.455293 L5.228393,0.286924 L5.109838,0.455293 L5.031133,0.455293 L5.188543,0.231133 L5.028144,0 L5.109838,0 L5.228393,0.177335 L5.353923,0 L5.435616,0 L5.268244,0.234122 L5.415691,0.455293 L5.341968,0.455293 Z" /></g></g></g></g></g></g></g><g transform="translate(0, 0.477956)"><g transform="translate(0, 0)"><g transform="scale(1)"><g transform="translate(0, 0)"><g opacity="1"><g transform="translate(-3.710585, -0.325281)"><g><path d="M0.016936,0.620672 L0.116563,-0.003985 L0.145455,-0.003985 L0.254047,0.405479 L0.360648,-0.003985 L0.387547,-0.003985 L0.486177,0.620672 L0.427397,0.620672 L0.37061,0.199253 L0.269988,0.574844 L0.24807,0.574844 L0.148443,0.201245 L0.081694,0.620672 L0.016936,0.620672 Z" /><path d="M0.603736,0.455293 L0.603736,0.397509 L0.714321,0.397509 L0.714321,0.057783 L0.597758,0.057783 L0.597758,0 L0.892653,0 L0.892653,0.057783 L0.786052,0.057783 L0.786052,0.455293 L0.603736,0.455293 Z M0.715318,0.638605 C0.705355,0.628643 0.700374,0.616687 0.700374,0.601743 C0.700374,0.587796 0.705355,0.575841 0.715318,0.565878 C0.725281,0.555915 0.737235,0.550934 0.751183,0.550934 C0.765131,0.550934 0.777086,0.555915 0.787049,0.565878 C0.798007,0.575841 0.802989,0.587796 0.802989,0.601743 C0.802989,0.61569 0.798007,0.627646 0.787049,0.637609 C0.777086,0.648568 0.765131,0.653549 0.751183,0.653549 C0.737235,0.653549 0.72528,0.648568 0.715318,0.638605 Z" /><path d="M1.183562,0.576837 L1.175592,0.455293 L1.066002,0.455293 L1.066002,0.396513 L1.172603,0.396513 C1.168618,0.347696 1.165629,0.303861 1.164633,0.266999 C1.163637,0.230137 1.16264,0.199253 1.16264,0.175342 C1.160648,0.110585 1.17061,0.063761 1.192528,0.033873 C1.214446,0.005978 1.249315,-0.008966 1.297136,-0.008966 C1.345953,-0.008966 1.392777,0.00797 1.438605,0.041843 L1.416687,0.09863 C1.379826,0.071731 1.345953,0.057783 1.315068,0.057783 C1.297136,0.057783 1.283188,0.061768 1.272229,0.067746 C1.26127,0.075716 1.2533,0.084682 1.247323,0.097634 C1.242341,0.110585 1.238356,0.127522 1.23736,0.14944 C1.236364,0.171358 1.235367,0.198257 1.235367,0.230137 C1.235367,0.281943 1.238356,0.337733 1.244334,0.396513 L1.393773,0.396513 L1.393773,0.455293 L1.244334,0.455293 L1.256289,0.562889 C1.257285,0.565878 1.258281,0.568867 1.259278,0.573848 C1.26127,0.578829 1.262266,0.583811 1.262266,0.589788 L1.183562,0.576837 Z" /><path d="M1.564134,0 L1.636862,0 L1.636862,0.262017 C1.636862,0.284932 1.640847,0.304857 1.647821,0.321793 C1.655791,0.33873 1.66675,0.353674 1.681694,0.365629 C1.695641,0.377584 1.710585,0.38655 1.725529,0.393524 C1.740473,0.400498 1.756413,0.403487 1.771357,0.403487 C1.794271,0.403487 1.814197,0.393524 1.831133,0.374595 C1.847073,0.355666 1.855044,0.321793 1.855044,0.273973 L1.855044,0 L1.925778,0 L1.925778,0.275965 C1.925778,0.310834 1.92279,0.339726 1.915816,0.363636 C1.908842,0.387546 1.899875,0.407472 1.886924,0.422416 C1.873973,0.43736 1.859029,0.448319 1.843088,0.456289 C1.825156,0.462267 1.807223,0.466252 1.786301,0.466252 C1.758406,0.466252 1.731507,0.458281 1.703611,0.441345 C1.677709,0.424408 1.654795,0.402491 1.636862,0.374595 L1.636862,0.638605 C1.637858,0.643587 1.639851,0.648568 1.643836,0.651557 C1.645828,0.655542 1.647821,0.658531 1.647821,0.660523 L1.647821,0.661519 C1.646824,0.661519 1.646824,0.661519 1.646824,0.662516 L1.564134,0.662516 L1.564134,0 Z" /><path d="M2.568369,0.621669 L2.568369,0 L2.638107,0 L2.638107,0.304857 L2.870237,0.304857 L2.870237,0.365629 L2.638107,0.365629 L2.638107,0.560897 L2.926027,0.560897 L2.926027,0.621669 L2.568369,0.621669 Z" /><path d="M3.094396,0.455293 L3.094396,0.397509 L3.204981,0.397509 L3.204981,0.057783 L3.088418,0.057783 L3.088418,0 L3.383313,0 L3.383313,0.057783 L3.276712,0.057783 L3.276712,0.455293 L3.094396,0.455293 Z M3.205978,0.638605 C3.196015,0.628643 3.191034,0.616687 3.191034,0.601743 C3.191034,0.587796 3.196015,0.575841 3.205978,0.565878 C3.215941,0.555915 3.227895,0.550934 3.241843,0.550934 C3.255791,0.550934 3.267746,0.555915 3.277709,0.565878 C3.288667,0.575841 3.293649,0.587796 3.293649,0.601743 C3.293649,0.61569 3.288667,0.627646 3.277709,0.637609 C3.267746,0.648568 3.255791,0.653549 3.241843,0.653549 C3.227895,0.653549 3.21594,0.648568 3.205978,0.638605 Z" /><path d="M3.536737,0.430386 L3.707098,-0.002989 L3.762889,-0.002989 L3.873474,0.25604 C3.906351,0.332752 3.929265,0.399502 3.942217,0.455293 L3.877459,0.455293 C3.872478,0.428394 3.864508,0.399502 3.854545,0.368618 C3.844582,0.337734 3.831631,0.303861 3.815691,0.266999 L3.741968,0.097634 L3.610461,0.430386 C3.609464,0.431382 3.609464,0.432379 3.609464,0.433375 C3.609464,0.436364 3.610461,0.439352 3.610461,0.442341 C3.612453,0.446326 3.612453,0.450311 3.612453,0.455293 L3.526775,0.455293 L3.536737,0.430386 Z" /><path d="M4.243088,0.466252 C4.214197,0.466252 4.186301,0.46127 4.161395,0.450311 C4.136489,0.439352 4.11457,0.424408 4.094645,0.404483 C4.076712,0.383562 4.060772,0.358655 4.050809,0.328767 C4.038854,0.298879 4.033873,0.265006 4.033873,0.226152 C4.033873,0.188294 4.038854,0.154421 4.049813,0.125529 C4.060772,0.095641 4.075716,0.070735 4.094645,0.050809 C4.113574,0.030883 4.137484,0.01594 4.164384,0.005978 C4.192279,-0.004981 4.223163,-0.009963 4.25604,-0.009963 C4.323786,-0.009963 4.376588,0.012951 4.415442,0.059776 L4.375591,0.09863 C4.344707,0.064757 4.304857,0.047821 4.258032,0.047821 C4.2401,0.047821 4.222167,0.050809 4.204234,0.055791 C4.186301,0.061768 4.170361,0.071731 4.155417,0.084682 C4.140473,0.097633 4.128518,0.115567 4.118555,0.137484 C4.109589,0.158406 4.103611,0.185305 4.102615,0.217186 L4.426401,0.217186 C4.427397,0.222167 4.427397,0.228144 4.427397,0.233126 C4.428393,0.239103 4.428393,0.245081 4.428393,0.250062 C4.428393,0.286924 4.423412,0.319801 4.41345,0.3467 C4.402491,0.373599 4.389539,0.396513 4.371606,0.414446 C4.355666,0.431382 4.335741,0.444334 4.312827,0.4533 C4.289913,0.462266 4.266999,0.466252 4.243088,0.466252 Z M4.105604,0.272976 C4.112578,0.320797 4.128518,0.355666 4.153425,0.37858 C4.178331,0.400498 4.207223,0.411457 4.238107,0.411457 C4.255044,0.411457 4.269988,0.408468 4.283935,0.401494 C4.298879,0.394521 4.310834,0.38655 4.321793,0.374595 C4.332752,0.364633 4.340722,0.350685 4.347696,0.336737 C4.353674,0.320797 4.356662,0.305853 4.356662,0.288917 C4.356662,0.285928 4.356662,0.282939 4.355666,0.280946 L4.355666,0.272976 L4.105604,0.272976 Z" /><path d="M5.035118,0.620672 L5.035118,-0.000996 L5.167621,-0.000996 C5.216438,-0.000996 5.258281,0.005978 5.291158,0.019925 C5.324035,0.033872 5.35193,0.053798 5.371855,0.081694 C5.393773,0.107597 5.409714,0.140473 5.421669,0.178331 C5.433624,0.216189 5.439601,0.259029 5.439601,0.306849 C5.439601,0.355666 5.43462,0.398506 5.424657,0.43736 C5.414694,0.476214 5.399751,0.509091 5.378829,0.53599 C5.357907,0.562889 5.333001,0.583811 5.30411,0.598755 C5.274222,0.613699 5.232379,0.620672 5.179577,0.620672 L5.035118,0.620672 Z M5.100872,0.561893 L5.175591,0.561893 C5.24533,0.561893 5.295143,0.538979 5.324035,0.493151 C5.353923,0.447323 5.368867,0.383562 5.369863,0.302864 C5.369863,0.222167 5.353923,0.161395 5.32005,0.117559 C5.288169,0.075716 5.235367,0.053798 5.164633,0.053798 L5.100872,0.053798 L5.100872,0.561893 Z" /><path d="M5.732503,0.465255 C5.704608,0.465255 5.677709,0.459278 5.651806,0.446326 C5.625903,0.434371 5.602989,0.418431 5.583063,0.396513 C5.564134,0.376588 5.548194,0.350685 5.537235,0.320797 C5.52528,0.290909 5.519303,0.259029 5.519303,0.225156 C5.519303,0.191283 5.52528,0.159402 5.536239,0.130511 C5.547198,0.10162 5.563138,0.075716 5.582067,0.055791 C5.600996,0.033873 5.62391,0.017933 5.648817,0.005978 C5.67472,-0.005978 5.702615,-0.011955 5.731507,-0.011955 C5.760399,-0.011955 5.787298,-0.005978 5.812204,0.003985 C5.837111,0.01594 5.859029,0.03188 5.877958,0.051806 C5.896887,0.073724 5.910834,0.09863 5.921793,0.127522 C5.932752,0.156414 5.937733,0.190286 5.937733,0.227148 C5.937733,0.26401 5.931756,0.296887 5.921793,0.326775 C5.909838,0.355666 5.89589,0.380573 5.876961,0.401494 C5.858032,0.422415 5.836115,0.438356 5.812204,0.448319 C5.786301,0.460274 5.760398,0.465255 5.732503,0.465255 Z M5.866002,0.225156 C5.866002,0.19726 5.862017,0.172354 5.85604,0.150436 C5.84807,0.128518 5.839103,0.109589 5.826152,0.095641 C5.814197,0.079701 5.800249,0.068742 5.784309,0.061768 C5.767372,0.053798 5.750436,0.049813 5.731507,0.049813 C5.712578,0.049813 5.695641,0.053798 5.678705,0.062765 C5.661769,0.071732 5.647821,0.083686 5.634869,0.099626 C5.622914,0.115567 5.612951,0.134496 5.605978,0.156413 C5.599005,0.17833 5.595019,0.202242 5.595019,0.229141 C5.595019,0.25604 5.599004,0.280946 5.605978,0.302864 C5.612951,0.323786 5.622914,0.342715 5.634869,0.357659 C5.647821,0.372603 5.661768,0.384558 5.678705,0.392528 C5.694645,0.400498 5.711582,0.404483 5.729514,0.404483 C5.747446,0.404483 5.764384,0.400498 5.780324,0.392528 C5.79726,0.384558 5.811208,0.372603 5.824159,0.357659 C5.83711,0.342715 5.847073,0.323786 5.854047,0.300872 C5.862017,0.278954 5.866002,0.254047 5.866002,0.225156 Z" /><path d="M6.048319,0.455293 L6.048319,0.392528 L6.30934,0.392528 L6.027397,0.048817 L6.027397,0 L6.425903,0 L6.425903,0.067746 C6.420921,0.067746 6.41594,0.06675 6.409963,0.064757 C6.404981,0.062765 6.4,0.061768 6.395019,0.061768 L6.125031,0.061768 L6.401992,0.406476 L6.401992,0.455293 L6.048319,0.455293 Z" /><path d="M6.733748,0.466252 C6.704857,0.466252 6.676961,0.46127 6.652055,0.450311 C6.627149,0.439352 6.60523,0.424408 6.585305,0.404483 C6.567372,0.383562 6.551432,0.358655 6.541469,0.328767 C6.529514,0.298879 6.524533,0.265006 6.524533,0.226152 C6.524533,0.188294 6.529514,0.154421 6.540473,0.125529 C6.551432,0.095641 6.566376,0.070735 6.585305,0.050809 C6.604234,0.030883 6.628144,0.01594 6.655044,0.005978 C6.682939,-0.004981 6.713823,-0.009963 6.7467,-0.009963 C6.814446,-0.009963 6.867248,0.012951 6.906102,0.059776 L6.866251,0.09863 C6.835367,0.064757 6.795517,0.047821 6.748692,0.047821 C6.73076,0.047821 6.712827,0.050809 6.694894,0.055791 C6.676961,0.061768 6.661021,0.071731 6.646077,0.084682 C6.631133,0.097633 6.619178,0.115567 6.609215,0.137484 C6.600249,0.158406 6.594271,0.185305 6.593275,0.217186 L6.917061,0.217186 C6.918057,0.222167 6.918057,0.228144 6.918057,0.233126 C6.919053,0.239103 6.919053,0.245081 6.919053,0.250062 C6.919053,0.286924 6.914072,0.319801 6.90411,0.3467 C6.893151,0.373599 6.880199,0.396513 6.862266,0.414446 C6.846326,0.431382 6.826401,0.444334 6.803487,0.4533 C6.780573,0.462266 6.757659,0.466252 6.733748,0.466252 Z M6.596264,0.272976 C6.603238,0.320797 6.619178,0.355666 6.644085,0.37858 C6.668991,0.400498 6.697883,0.411457 6.728767,0.411457 C6.745704,0.411457 6.760648,0.408468 6.774595,0.401494 C6.789539,0.394521 6.801494,0.38655 6.812453,0.374595 C6.823412,0.364633 6.831382,0.350685 6.838356,0.336737 C6.844334,0.320797 6.847322,0.305853 6.847322,0.288917 C6.847322,0.285928 6.847322,0.282939 6.846326,0.280946 L6.846326,0.272976 L6.596264,0.272976 Z" /><path d="M7.041594,0 L7.115317,0 L7.115317,0.262017 C7.115317,0.283935 7.119303,0.303861 7.127273,0.320797 C7.136239,0.337733 7.147198,0.352677 7.159153,0.364633 C7.173101,0.377584 7.187048,0.38655 7.202989,0.393524 C7.21893,0.400498 7.234869,0.403487 7.249813,0.403487 C7.272727,0.403487 7.292652,0.393524 7.308593,0.374595 C7.325529,0.355666 7.333499,0.321793 7.333499,0.273973 L7.333499,0 L7.404234,0 L7.404234,0.275965 C7.404234,0.310834 7.400249,0.339726 7.394271,0.363636 C7.386301,0.387547 7.377335,0.407472 7.364383,0.422416 C7.351431,0.43736 7.336488,0.448319 7.319552,0.456289 C7.302615,0.462267 7.283686,0.466252 7.263761,0.466252 C7.235865,0.466252 7.208966,0.458281 7.181071,0.441345 C7.155168,0.424408 7.132254,0.402491 7.115317,0.374595 L7.115317,0.455293 L7.041594,0.455293 L7.041594,0 Z" /></g></g></g></g></g></g></g><g transform="translate(0, -0.771732)"><g transform="translate(0, 0)"><g transform="scale(1)"><g transform="translate(0, 0)"><g opacity="1"><g transform="translate(-2.99178, -0.241096)"><g><path d="M0.065753,0.620672 L0.065753,0 L0.43736,0 L0.43736,0.060772 L0.138481,0.060772 L0.138481,0.5868 C0.138481,0.592777 0.139477,0.598755 0.143462,0.604732 C0.145455,0.61071 0.147447,0.615691 0.147447,0.620672 L0.065753,0.620672 Z" /><path d="M0.603736,0.455293 L0.603736,0.397509 L0.714321,0.397509 L0.714321,0.057783 L0.597758,0.057783 L0.597758,0 L0.892653,0 L0.892653,0.057783 L0.786052,0.057783 L0.786052,0.455293 L0.603736,0.455293 Z M0.715318,0.638605 C0.705355,0.628643 0.700374,0.616687 0.700374,0.601743 C0.700374,0.587796 0.705355,0.575841 0.715318,0.565878 C0.725281,0.555915 0.737235,0.550934 0.751183,0.550934 C0.765131,0.550934 0.777086,0.555915 0.787049,0.565878 C0.798007,0.575841 0.802989,0.587796 0.802989,0.601743 C0.802989,0.61569 0.798007,0.627646 0.787049,0.637609 C0.777086,0.648568 0.765131,0.653549 0.751183,0.653549 C0.737235,0.653549 0.72528,0.648568 0.715318,0.638605 Z" /><path d="M1.368867,0.388543 C1.368867,0.389539 1.366874,0.393524 1.361893,0.400498 C1.334994,0.44533 1.294147,0.467248 1.238356,0.467248 C1.211457,0.467248 1.185554,0.462267 1.161644,0.451308 C1.136737,0.440349 1.115816,0.425405 1.097883,0.404483 C1.078954,0.384558 1.065006,0.360648 1.054047,0.33076 C1.043088,0.302864 1.038107,0.269988 1.038107,0.233126 C1.038107,0.196264 1.043088,0.163387 1.052055,0.133499 C1.062017,0.103611 1.075965,0.077709 1.091905,0.056787 C1.109838,0.035866 1.129763,0.018929 1.151681,0.00797 C1.175592,-0.003985 1.199502,-0.009963 1.225405,-0.009963 C1.254296,-0.009963 1.281196,-0.001993 1.306102,0.011955 C1.331009,0.027895 1.350934,0.047821 1.364882,0.072727 L1.364882,-0.166376 L1.436613,-0.166376 L1.436613,0.455293 L1.368867,0.455293 L1.368867,0.388543 Z M1.238356,0.408468 C1.276214,0.408468 1.306102,0.395517 1.329016,0.37061 C1.35193,0.344707 1.362889,0.298879 1.362889,0.234122 C1.362889,0.170361 1.35193,0.124533 1.331009,0.095641 C1.309091,0.06675 1.279203,0.052802 1.241345,0.052802 C1.223412,0.052802 1.206476,0.056787 1.191532,0.065753 C1.175592,0.073724 1.161644,0.085679 1.149689,0.101619 C1.137734,0.117559 1.127771,0.137484 1.121793,0.159402 C1.113823,0.183313 1.110834,0.209215 1.110834,0.238107 C1.110834,0.266999 1.113823,0.291905 1.121793,0.312827 C1.127771,0.334745 1.137733,0.352677 1.149689,0.366625 C1.160648,0.380573 1.174595,0.390535 1.189539,0.398506 C1.204483,0.404483 1.22142,0.408468 1.238356,0.408468 Z" /><path d="M1.557161,0.455293 L1.556164,0.201245 C1.556164,0.164384 1.560149,0.132503 1.56812,0.105604 C1.575093,0.078705 1.586052,0.056787 1.601993,0.039851 C1.61594,0.022914 1.632877,0.009963 1.651806,0.001993 C1.670735,-0.006974 1.691656,-0.010959 1.71457,-0.010959 C1.744458,-0.010959 1.771357,-0.003985 1.79726,0.009963 C1.821171,0.024907 1.841096,0.044832 1.85604,0.069738 L1.855044,0.034869 C1.854047,0.027895 1.854047,0.020922 1.855044,0.01594 C1.85604,0.009963 1.85604,0.004981 1.857036,0 L1.932752,0 C1.929763,0.011955 1.927771,0.025903 1.927771,0.040847 L1.927771,0.455293 L1.855044,0.455293 L1.855044,0.204234 C1.855044,0.177335 1.852055,0.153425 1.845081,0.134496 C1.838107,0.115567 1.829141,0.099626 1.817186,0.087671 C1.806227,0.07472 1.793275,0.065753 1.778331,0.05878 C1.763387,0.051807 1.748443,0.047821 1.732503,0.046824 C1.717559,0.046824 1.704608,0.049813 1.691656,0.054795 C1.679701,0.059776 1.668742,0.068742 1.659776,0.080697 C1.649813,0.092653 1.641843,0.108593 1.636862,0.127522 C1.63188,0.147447 1.628892,0.172354 1.628892,0.201245 L1.628892,0.455293 L1.557161,0.455293 Z" /><path d="M2.245579,0.465255 C2.217684,0.465255 2.190785,0.459278 2.164882,0.446326 C2.138979,0.434371 2.116065,0.418431 2.096139,0.396513 C2.07721,0.376588 2.06127,0.350685 2.050311,0.320797 C2.038356,0.290909 2.032379,0.259029 2.032379,0.225156 C2.032379,0.191283 2.038356,0.159402 2.049315,0.130511 C2.060274,0.10162 2.076214,0.075716 2.095143,0.055791 C2.114072,0.033873 2.136986,0.017933 2.161893,0.005978 C2.187796,-0.005978 2.215691,-0.011955 2.244583,-0.011955 C2.273475,-0.011955 2.300374,-0.005978 2.32528,0.003985 C2.350187,0.01594 2.372105,0.03188 2.391034,0.051806 C2.409963,0.073724 2.42391,0.09863 2.434869,0.127522 C2.445828,0.156414 2.450809,0.190286 2.450809,0.227148 C2.450809,0.26401 2.444832,0.296887 2.434869,0.326775 C2.422914,0.355666 2.408966,0.380573 2.390037,0.401494 C2.371108,0.422415 2.349191,0.438356 2.32528,0.448319 C2.299377,0.460274 2.273474,0.465255 2.245579,0.465255 Z M2.379078,0.225156 C2.379078,0.19726 2.375093,0.172354 2.369116,0.150436 C2.361146,0.128518 2.352179,0.109589 2.339228,0.095641 C2.327273,0.079701 2.313325,0.068742 2.297385,0.061768 C2.280448,0.053798 2.263512,0.049813 2.244583,0.049813 C2.225654,0.049813 2.208717,0.053798 2.191781,0.062765 C2.174845,0.071732 2.160897,0.083686 2.147945,0.099626 C2.13599,0.115567 2.126027,0.134496 2.119054,0.156413 C2.112081,0.17833 2.108095,0.202242 2.108095,0.229141 C2.108095,0.25604 2.11208,0.280946 2.119054,0.302864 C2.126027,0.323786 2.13599,0.342715 2.147945,0.357659 C2.160897,0.372603 2.174844,0.384558 2.191781,0.392528 C2.207721,0.400498 2.224658,0.404483 2.24259,0.404483 C2.260522,0.404483 2.27746,0.400498 2.2934,0.392528 C2.310336,0.384558 2.324284,0.372603 2.337235,0.357659 C2.350186,0.342715 2.360149,0.323786 2.367123,0.300872 C2.375093,0.278954 2.379078,0.254047 2.379078,0.225156 Z" /><path d="M2.553425,0.455293 L2.552428,0.201245 C2.552428,0.164384 2.556413,0.132503 2.564384,0.105604 C2.571357,0.078705 2.582316,0.056787 2.598257,0.039851 C2.612204,0.022914 2.629141,0.009963 2.64807,0.001993 C2.666999,-0.006974 2.68792,-0.010959 2.710834,-0.010959 C2.740722,-0.010959 2.767621,-0.003985 2.793524,0.009963 C2.817435,0.024907 2.83736,0.044832 2.852304,0.069738 L2.851308,0.034869 C2.850311,0.027895 2.850311,0.020922 2.851308,0.01594 C2.852304,0.009963 2.852304,0.004981 2.8533,0 L2.929016,0 C2.926027,0.011955 2.924035,0.025903 2.924035,0.040847 L2.924035,0.455293 L2.851308,0.455293 L2.851308,0.204234 C2.851308,0.177335 2.848319,0.153425 2.841345,0.134496 C2.834371,0.115567 2.825405,0.099626 2.81345,0.087671 C2.802491,0.07472 2.789539,0.065753 2.774595,0.05878 C2.759651,0.051807 2.744707,0.047821 2.728767,0.046824 C2.713823,0.046824 2.700872,0.049813 2.68792,0.054795 C2.675965,0.059776 2.665006,0.068742 2.65604,0.080697 C2.646077,0.092653 2.638107,0.108593 2.633126,0.127522 C2.628144,0.147447 2.625156,0.172354 2.625156,0.201245 L2.625156,0.455293 L2.553425,0.455293 Z" /><path d="M3.087422,0.455293 L3.087422,-0.000996 L3.160149,-0.000996 L3.160149,0.221171 C3.160149,0.245081 3.164134,0.267995 3.173101,0.289913 C3.182068,0.311831 3.193026,0.33076 3.20797,0.348692 C3.221918,0.364633 3.238854,0.37858 3.257783,0.388543 C3.276712,0.399502 3.297634,0.404483 3.319552,0.404483 C3.331507,0.404483 3.341469,0.403487 3.34944,0.400498 C3.358406,0.397509 3.36538,0.394521 3.37335,0.389539 C3.379327,0.384558 3.386301,0.379577 3.392279,0.372603 C3.398257,0.365629 3.40523,0.357659 3.412204,0.347696 L3.445081,0.416438 C3.4132,0.449315 3.372354,0.466252 3.323537,0.466252 C3.288667,0.466252 3.256787,0.458281 3.225903,0.440349 C3.196015,0.424408 3.174097,0.399502 3.160149,0.367621 L3.162142,0.455293 L3.087422,0.455293 Z" /><path d="M4.156413,0.620672 L4.156413,0.561893 L4.275965,0.561893 L4.275965,0.207223 C4.275965,0.14944 4.267995,0.108593 4.253051,0.085679 C4.238107,0.062765 4.2132,0.050809 4.180324,0.050809 C4.172354,0.050809 4.164384,0.051806 4.156413,0.053798 C4.148443,0.056787 4.140473,0.059776 4.132503,0.061768 C4.125529,0.065753 4.118555,0.068742 4.112578,0.071731 C4.1066,0.075716 4.102615,0.079701 4.099626,0.08269 L4.087671,0.094645 C4.085679,0.097634 4.084682,0.100623 4.084682,0.105604 C4.083686,0.109589 4.08269,0.112578 4.080697,0.11457 L4.033873,0.057783 C4.072727,0.011955 4.121544,-0.010959 4.180324,-0.010959 C4.203238,-0.010959 4.224159,-0.006974 4.243088,0 C4.262017,0.00797 4.27995,0.020922 4.296887,0.038854 C4.313824,0.056786 4.325778,0.079701 4.333748,0.1066 C4.340722,0.133499 4.344707,0.167372 4.344707,0.208219 L4.344707,0.561893 L4.440349,0.561893 L4.440349,0.620672 L4.156413,0.620672 Z" /><path d="M4.545953,0.455293 L4.544956,0.201245 C4.544956,0.164384 4.548941,0.132503 4.556912,0.105604 C4.563885,0.078705 4.574844,0.056787 4.590785,0.039851 C4.604732,0.022914 4.621669,0.009963 4.640598,0.001993 C4.659527,-0.006974 4.680448,-0.010959 4.703362,-0.010959 C4.73325,-0.010959 4.760149,-0.003985 4.786052,0.009963 C4.809963,0.024907 4.829888,0.044832 4.844832,0.069738 L4.843836,0.034869 C4.842839,0.027895 4.842839,0.020922 4.843836,0.01594 C4.844832,0.009963 4.844832,0.004981 4.845828,0 L4.921544,0 C4.918555,0.011955 4.916563,0.025903 4.916563,0.040847 L4.916563,0.455293 L4.843836,0.455293 L4.843836,0.204234 C4.843836,0.177335 4.840847,0.153425 4.833873,0.134496 C4.826899,0.115567 4.817933,0.099626 4.805978,0.087671 C4.795019,0.07472 4.782067,0.065753 4.767123,0.05878 C4.752179,0.051807 4.737235,0.047821 4.721295,0.046824 C4.706351,0.046824 4.6934,0.049813 4.680448,0.054795 C4.668493,0.059776 4.657534,0.068742 4.648568,0.080697 C4.638605,0.092653 4.630635,0.108593 4.625654,0.127522 C4.620672,0.147447 4.617684,0.172354 4.617684,0.201245 L4.617684,0.455293 L4.545953,0.455293 Z" /><path d="M5.135741,0.383562 C5.155666,0.403487 5.179577,0.41345 5.206476,0.41345 C5.219427,0.41345 5.232379,0.410461 5.244334,0.405479 C5.257285,0.400498 5.268244,0.392528 5.27721,0.383562 C5.286176,0.374596 5.294147,0.363636 5.299128,0.350685 C5.30411,0.33873 5.307098,0.325778 5.307098,0.312827 C5.307098,0.299876 5.30411,0.286924 5.299128,0.274969 C5.294146,0.263014 5.286177,0.252055 5.27721,0.243088 C5.268243,0.234121 5.257285,0.226152 5.24533,0.221171 C5.233375,0.21619 5.220423,0.2132 5.206476,0.2132 C5.193524,0.2132 5.180573,0.216189 5.168618,0.221171 C5.155666,0.226152 5.144707,0.233126 5.136737,0.243088 C5.126775,0.251059 5.119801,0.262017 5.114819,0.274969 C5.109838,0.286924 5.106849,0.299875 5.106849,0.312827 C5.106849,0.325779 5.108842,0.33873 5.113823,0.350685 C5.118804,0.36264 5.125778,0.373599 5.135741,0.383562 Z M5.319053,0.426401 C5.290162,0.455293 5.2533,0.470237 5.208468,0.470237 C5.187547,0.470237 5.166625,0.466252 5.1467,0.458281 C5.125778,0.449315 5.107846,0.438356 5.092902,0.423412 C5.076961,0.408468 5.06401,0.391532 5.055044,0.372603 C5.046077,0.352677 5.041096,0.331756 5.041096,0.308842 C5.041096,0.283935 5.047073,0.261021 5.059029,0.239103 C5.070985,0.217185 5.08792,0.199253 5.108842,0.185305 C5.073973,0.156413 5.057036,0.128518 5.057036,0.099626 C5.057036,0.070734 5.068991,0.049813 5.093898,0.036862 C5.044085,0.005978 5.019178,-0.027895 5.019178,-0.063761 C5.019178,-0.078705 5.023163,-0.091656 5.031133,-0.105604 C5.0401,-0.117559 5.052055,-0.129514 5.067995,-0.139477 C5.083935,-0.14944 5.104857,-0.15741 5.13076,-0.163387 C5.157659,-0.168369 5.188543,-0.171357 5.225405,-0.171357 C5.260274,-0.171357 5.291158,-0.167372 5.318057,-0.159402 C5.34396,-0.152428 5.365878,-0.141469 5.382814,-0.129514 C5.399751,-0.115567 5.412702,-0.101619 5.421669,-0.083686 C5.430635,-0.067746 5.43462,-0.049813 5.43462,-0.03188 C5.43462,-0.01594 5.431631,-0.000996 5.424657,0.012951 C5.417683,0.026898 5.407721,0.038854 5.39477,0.049813 C5.381818,0.059776 5.363885,0.067746 5.341968,0.073724 C5.321046,0.078705 5.295143,0.081694 5.265255,0.081694 C5.254296,0.081694 5.242341,0.081694 5.228393,0.079701 C5.216438,0.079701 5.203487,0.078705 5.190535,0.078705 C5.167621,0.078705 5.150685,0.081694 5.136737,0.087671 C5.124782,0.094645 5.117808,0.103611 5.117808,0.11457 C5.117808,0.128518 5.128767,0.145455 5.149689,0.166376 C5.169614,0.159402 5.188543,0.155417 5.207472,0.155417 C5.230386,0.155417 5.251308,0.159402 5.271233,0.167372 C5.291158,0.176339 5.308095,0.187298 5.324035,0.201245 C5.337983,0.216189 5.349938,0.233126 5.358904,0.251059 C5.36787,0.270984 5.371855,0.290909 5.371855,0.311831 C5.371855,0.339726 5.363885,0.365629 5.348941,0.388543 C5.371855,0.403487 5.398755,0.410461 5.427646,0.410461 L5.441594,0.410461 C5.445579,0.409465 5.449564,0.409465 5.454545,0.408468 L5.445579,0.467248 L5.432628,0.467248 C5.388792,0.467248 5.350934,0.4533 5.319053,0.426401 Z M5.141719,0.02391 C5.156662,0.022914 5.174595,0.021918 5.19452,0.019925 C5.214446,0.019925 5.23736,0.018929 5.262266,0.018929 C5.265255,0.018929 5.26924,0.018929 5.272229,0.019925 L5.282192,0.019925 C5.311083,0.019925 5.333001,0.014944 5.345953,0.004981 C5.3599,-0.004981 5.36787,-0.018929 5.368867,-0.036862 C5.368867,-0.061768 5.355915,-0.080697 5.329016,-0.095641 C5.302117,-0.110585 5.26924,-0.117559 5.228393,-0.117559 C5.209464,-0.117559 5.190535,-0.116563 5.172603,-0.113574 C5.155666,-0.110585 5.140722,-0.1066 5.126775,-0.101619 C5.114819,-0.095641 5.10386,-0.087671 5.096887,-0.079701 C5.088917,-0.069738 5.084931,-0.05878 5.084931,-0.045828 C5.084931,-0.020922 5.10386,0.002989 5.141719,0.02391 Z" /><path d="M5.909838,0.394521 C5.866999,0.442341 5.810212,0.466252 5.740473,0.466252 C5.715567,0.466252 5.691656,0.462267 5.670735,0.456289 C5.648817,0.448319 5.629888,0.439352 5.614944,0.428394 C5.599004,0.417435 5.587049,0.404483 5.578082,0.389539 C5.569115,0.374595 5.565131,0.359651 5.565131,0.343711 C5.565131,0.328767 5.568119,0.315816 5.573101,0.302864 C5.578082,0.290909 5.585056,0.27995 5.594022,0.270984 C5.602989,0.261021 5.611955,0.253051 5.622914,0.245081 C5.633873,0.239103 5.650809,0.230137 5.67472,0.221171 C5.683686,0.218182 5.703611,0.212204 5.732503,0.203238 C5.775342,0.190286 5.804234,0.178331 5.820174,0.166376 C5.836114,0.154421 5.844085,0.139477 5.844085,0.12254 C5.844085,0.111582 5.841096,0.101619 5.834122,0.091656 C5.827148,0.083686 5.818182,0.075716 5.808219,0.069738 C5.796264,0.062765 5.784309,0.057783 5.770361,0.054795 C5.75741,0.051806 5.743462,0.049813 5.730511,0.049813 C5.71756,0.049813 5.705604,0.050809 5.692652,0.052802 C5.6797,0.054795 5.668742,0.057783 5.65878,0.062765 C5.636862,0.071731 5.620921,0.080697 5.609963,0.087671 C5.599004,0.095641 5.59203,0.102615 5.588045,0.108593 C5.58406,0.114571 5.582067,0.119552 5.581071,0.123537 C5.580075,0.128518 5.579078,0.131507 5.577086,0.133499 L5.536239,0.061768 C5.588045,0.013948 5.651806,-0.009963 5.728518,-0.009963 C5.75741,-0.009963 5.784309,-0.005978 5.807223,0.001993 C5.830137,0.008966 5.850062,0.019925 5.866999,0.032877 C5.883936,0.045829 5.89589,0.061768 5.904857,0.079701 C5.913824,0.097634 5.917808,0.116563 5.917808,0.136488 C5.917808,0.167372 5.905853,0.193275 5.881943,0.2132 C5.859029,0.235118 5.818182,0.253051 5.761395,0.267995 C5.736488,0.274969 5.715567,0.281943 5.700623,0.28792 C5.684682,0.293898 5.672727,0.299875 5.663761,0.305853 C5.654795,0.311831 5.648817,0.317808 5.644832,0.324782 C5.640847,0.33076 5.638854,0.337733 5.638854,0.345704 C5.638854,0.356663 5.641843,0.365629 5.646824,0.374595 C5.651806,0.382565 5.65878,0.389539 5.668742,0.394521 C5.676712,0.399502 5.687671,0.404483 5.69863,0.406476 C5.710585,0.410461 5.72254,0.411457 5.735492,0.411457 C5.763387,0.411457 5.788294,0.404483 5.810212,0.392528 C5.832129,0.37858 5.849066,0.364633 5.861021,0.349689 C5.862017,0.347696 5.863014,0.344707 5.863014,0.339726 C5.863014,0.334745 5.865006,0.332752 5.867995,0.331756 L5.909838,0.394521 Z" /></g></g></g></g></g></g></g></g></g></svg>