<svg viewBox="-8 -4.5 16 9" xmlns="http://www.w3.org/2000/svg" xmlns:xlink="http://www.w3.org/1999/xlink" version="1.1" preserveAspectRatio="none"><g stroke-width="0.05" transform="scale(1, -1)"><g><g transform="translate(0, 2.824409)"><g transform="translate(0, 0)"><g transform="scale(1)"><g transform="translate(0, 0)"><g opacity="1"><g transform="scale(2)"><g transform="translate(5.114047, -6.612203)"><g><path d="M-7.029638,6.71681 C-7.08244,6.533498 -7.126275,6.491654 -7.191033,6.491654 C-7.214943,6.491654 -7.225902,6.499625 -7.225902,6.499625 C-7.225902,6.499625 -7.23985,6.484681 -7.23985,6.449811 C-7.23985,6.403983 -7.210958,6.373099 -7.166126,6.373099 C-7.100373,6.373099 -7.051556,6.421916 -7.013698,6.563385 L-6.915067,6.929014 L-6.895142,6.473722 C-6.892153,6.411953 -6.881195,6.373099 -6.827396,6.373099 C-6.787546,6.373099 -6.764632,6.388043 -6.764632,6.388043 C-6.764632,6.388043 -6.756662,6.430882 -6.730759,6.485677 L-6.522539,6.925029 L-6.573349,6.635116 C-6.582315,6.582314 -6.587297,6.542464 -6.587297,6.496636 C-6.587297,6.42092 -6.53848,6.373099 -6.467745,6.373099 C-6.376089,6.373099 -6.296388,6.459774 -6.287421,6.520546 C-6.285429,6.536486 -6.291406,6.546449 -6.30635,6.546449 C-6.320298,6.518554 -6.362141,6.459774 -6.410958,6.459774 C-6.444831,6.459774 -6.465752,6.484681 -6.45579,6.542464 L-6.374096,7.011704 C-6.361145,7.08742 -6.375092,7.120297 -6.448816,7.120297 C-6.489663,7.120297 -6.505603,7.110334 -6.505603,7.110334 C-6.509588,7.08742 -6.516562,7.059525 -6.548442,6.993771 L-6.766624,6.538479 L-6.787546,7.027644 C-6.790534,7.100372 -6.811456,7.120297 -6.872228,7.120297 C-6.906101,7.120297 -6.929015,7.110334 -6.929015,7.110334 C-6.929015,7.110334 -6.931008,7.060521 -6.966873,6.933996 L-7.029638,6.71681 Z" /><path d="M-5.856038,6.789537 C-5.846076,6.843336 -5.833124,6.861268 -5.833124,6.861268 C-5.833124,6.861268 -5.849064,6.871231 -5.882937,6.871231 C-5.931754,6.871231 -5.956661,6.85828 -5.972601,6.822414 C-5.995515,6.851306 -6.030385,6.871231 -6.080198,6.871231 C-6.196761,6.871231 -6.326275,6.766623 -6.326275,6.544456 C-6.326275,6.427894 -6.261518,6.373099 -6.179824,6.373099 C-6.123037,6.373099 -6.068243,6.411953 -6.027396,6.485677 C-6.022414,6.413946 -5.976586,6.373099 -5.910833,6.373099 C-5.814195,6.373099 -5.742464,6.467744 -5.732502,6.520546 C-5.729513,6.538479 -5.738479,6.546449 -5.751431,6.546449 C-5.777333,6.492651 -5.822165,6.459774 -5.856038,6.459774 C-5.891904,6.459774 -5.909837,6.487669 -5.898878,6.547445 L-5.856038,6.789537 Z M-6.139974,6.459774 C-6.176835,6.459774 -6.198753,6.486673 -6.198753,6.542464 C-6.198753,6.702862 -6.122041,6.803485 -6.054295,6.803485 C-6.016437,6.803485 -5.997508,6.77559 -5.988541,6.755664 L-5.997508,6.70884 C-6.016437,6.609214 -6.069239,6.459774 -6.139974,6.459774 Z" /><path d="M-5.301119,6.789537 C-5.292153,6.843336 -5.278205,6.861268 -5.278205,6.861268 C-5.278205,6.861268 -5.294145,6.871231 -5.328018,6.871231 C-5.376835,6.871231 -5.401742,6.85828 -5.417682,6.822414 C-5.440596,6.851306 -5.475466,6.871231 -5.525279,6.871231 C-5.641842,6.871231 -5.771356,6.766623 -5.771356,6.544456 C-5.771356,6.427894 -5.706599,6.373099 -5.624905,6.373099 C-5.573099,6.373099 -5.523286,6.404979 -5.483436,6.466748 L-5.495391,6.396013 C-5.577084,6.356163 -5.62889,6.326275 -5.677707,6.283435 C-5.726524,6.241592 -5.761393,6.187794 -5.761393,6.129014 C-5.761393,6.067246 -5.717558,6.024407 -5.649812,6.024407 C-5.502365,6.024407 -5.409712,6.152925 -5.370858,6.384058 L-5.368865,6.396013 C-5.310086,6.424905 -5.247321,6.459774 -5.210459,6.487669 C-5.190534,6.502613 -5.179575,6.513572 -5.177583,6.523535 C-5.174594,6.538479 -5.184556,6.546449 -5.196512,6.546449 C-5.256287,6.497632 -5.358903,6.456785 -5.358903,6.456785 L-5.301119,6.789537 Z M-5.585055,6.459774 C-5.621916,6.459774 -5.643834,6.486673 -5.643834,6.542464 C-5.643834,6.702862 -5.567122,6.803485 -5.499376,6.803485 C-5.461518,6.803485 -5.442589,6.77559 -5.433622,6.755664 L-5.442589,6.70884 C-5.461518,6.609214 -5.51432,6.459774 -5.585055,6.459774 Z M-5.659774,6.09016 C-5.690659,6.09016 -5.705602,6.109089 -5.705602,6.134992 C-5.705602,6.169861 -5.685677,6.203734 -5.646823,6.241592 C-5.617931,6.270484 -5.572103,6.299375 -5.50635,6.333248 C-5.536238,6.173846 -5.590036,6.09016 -5.659774,6.09016 Z" /><path d="M-4.891655,6.611206 C-4.897632,6.578329 -4.906599,6.523535 -4.906599,6.497632 C-4.906599,6.422912 -4.860771,6.373099 -4.786051,6.373099 C-4.693398,6.373099 -4.618679,6.469737 -4.610708,6.520546 C-4.60772,6.538479 -4.616686,6.546449 -4.629637,6.546449 C-4.65554,6.494643 -4.692402,6.459774 -4.734245,6.459774 C-4.776088,6.459774 -4.784058,6.498628 -4.775092,6.547445 L-4.751182,6.687918 C-4.7462,6.717806 -4.742215,6.746698 -4.742215,6.768616 C-4.742215,6.830384 -4.782066,6.871231 -4.84483,6.871231 C-4.925528,6.871231 -5.001244,6.79153 -5.040098,6.726773 L-5.032128,6.772601 C-5.020173,6.842339 -5.029139,6.871231 -5.105852,6.871231 C-5.142713,6.871231 -5.157657,6.862265 -5.157657,6.862265 C-5.157657,6.862265 -5.147695,6.839351 -5.158654,6.776586 L-5.211456,6.471729 C-5.223411,6.401991 -5.214444,6.373099 -5.137732,6.373099 C-5.10087,6.373099 -5.085926,6.382065 -5.085926,6.382065 C-5.085926,6.382065 -5.095889,6.404979 -5.08493,6.467744 C-5.054046,6.635116 -4.959401,6.78356 -4.896636,6.78356 C-4.874718,6.78356 -4.864756,6.768616 -4.872726,6.720795 L-4.891655,6.611206 Z" /><path d="M-4.373599,6.871231 C-4.54396,6.871231 -4.649564,6.743709 -4.649564,6.563385 C-4.649564,6.439849 -4.571855,6.373099 -4.466251,6.373099 C-4.330759,6.373099 -4.239103,6.453796 -4.20523,6.572352 C-4.125529,6.582314 -4.062764,6.636113 -4.056787,6.670982 C-4.054794,6.685926 -4.061768,6.695889 -4.07472,6.695889 C-4.07472,6.695889 -4.120548,6.629139 -4.195268,6.61818 C-4.192279,6.638105 -4.190286,6.659027 -4.190286,6.680945 C-4.190286,6.794519 -4.257036,6.871231 -4.373599,6.871231 Z M-4.369614,6.677956 C-4.369614,6.645079 -4.356662,6.61818 -4.331756,6.599251 C-4.357659,6.479699 -4.40249,6.422912 -4.456289,6.422912 C-4.498132,6.422912 -4.522042,6.457781 -4.522042,6.520546 C-4.522042,6.545453 -4.518057,6.597258 -4.513076,6.623161 C-4.48518,6.771605 -4.433375,6.822414 -4.383561,6.822414 C-4.3467,6.822414 -4.323786,6.795515 -4.318804,6.745702 C-4.351681,6.738728 -4.369614,6.711829 -4.369614,6.677956 Z" /><path d="M-4.101617,6.592277 C-4.108591,6.552427 -4.110583,6.517557 -4.110583,6.497632 C-4.110583,6.417931 -4.062763,6.373099 -3.99402,6.373099 C-3.897383,6.373099 -3.819674,6.467744 -3.809712,6.520546 C-3.806723,6.538479 -3.815689,6.546449 -3.828641,6.546449 C-3.854543,6.492651 -3.899375,6.459774 -3.939226,6.459774 C-3.975091,6.459774 -3.992028,6.488666 -3.982065,6.547445 L-3.884431,7.101368 C-3.872476,7.171106 -3.881443,7.199998 -3.958155,7.199998 C-3.995017,7.199998 -4.009961,7.191032 -4.009961,7.191032 C-4.009961,7.191032 -3.999998,7.168118 -4.010957,7.105353 L-4.101617,6.592277 Z" /><path d="M-3.829638,6.592277 C-3.836612,6.552427 -3.838604,6.517557 -3.838604,6.497632 C-3.838604,6.417931 -3.790784,6.373099 -3.722041,6.373099 C-3.625404,6.373099 -3.553673,6.467744 -3.54371,6.520546 C-3.540721,6.538479 -3.549688,6.546449 -3.562639,6.546449 C-3.588542,6.492651 -3.633374,6.459774 -3.667247,6.459774 C-3.703112,6.459774 -3.720049,6.487669 -3.710086,6.547445 L-3.671232,6.772601 C-3.659277,6.842339 -3.668243,6.871231 -3.744955,6.871231 C-3.781817,6.871231 -3.796761,6.862265 -3.796761,6.862265 C-3.796761,6.862265 -3.786799,6.840347 -3.797757,6.776586 L-3.829638,6.592277 Z M-3.762888,7.020671 C-3.762888,6.985801 -3.738978,6.960895 -3.703112,6.960895 C-3.659277,6.960895 -3.631381,6.994768 -3.631381,7.029637 C-3.631381,7.065502 -3.655292,7.092402 -3.69315,7.092402 C-3.731008,7.092402 -3.762888,7.061517 -3.762888,7.020671 Z" /><path d="M-3.112327,6.789537 C-3.102365,6.843336 -3.089413,6.861268 -3.089413,6.861268 C-3.089413,6.861268 -3.105353,6.871231 -3.139226,6.871231 C-3.188043,6.871231 -3.21295,6.85828 -3.22889,6.822414 C-3.251804,6.851306 -3.286674,6.871231 -3.336487,6.871231 C-3.45305,6.871231 -3.582564,6.766623 -3.582564,6.544456 C-3.582564,6.427894 -3.517807,6.373099 -3.436113,6.373099 C-3.379326,6.373099 -3.324532,6.411953 -3.283685,6.485677 C-3.278703,6.413946 -3.232875,6.373099 -3.167122,6.373099 C-3.070484,6.373099 -2.998753,6.467744 -2.988791,6.520546 C-2.985802,6.538479 -2.994768,6.546449 -3.00772,6.546449 C-3.033622,6.492651 -3.078454,6.459774 -3.112327,6.459774 C-3.148193,6.459774 -3.166126,6.487669 -3.155167,6.547445 L-3.112327,6.789537 Z M-3.396263,6.459774 C-3.433124,6.459774 -3.455042,6.486673 -3.455042,6.542464 C-3.455042,6.702862 -3.37833,6.803485 -3.310584,6.803485 C-3.272726,6.803485 -3.253797,6.77559 -3.24483,6.755664 L-3.253797,6.70884 C-3.272726,6.609214 -3.325528,6.459774 -3.396263,6.459774 Z" /></g></g></g></g></g></g></g></g><g transform="translate(0, 0.561023)"><g transform="translate(0, 0)"><g transform="scale(1)"><g transform="translate(0, 0)"><g opacity="1"><g transform="translate(4.239328, -6.612203)"><g><path d="M-6.83437,6.9061 C-6.821419,6.982813 -6.835366,7.014693 -6.90909,7.014693 C-6.949937,7.014693 -6.965877,7.00473 -6.965877,7.00473 C-6.965877,7.00473 -6.954918,6.979824 -6.966873,6.911082 L-7.041593,6.481692 C-7.054544,6.404979 -7.040597,6.373099 -6.966873,6.373099 C-6.926026,6.373099 -6.910086,6.383062 -6.910086,6.383062 C-6.910086,6.383062 -6.921045,6.407968 -6.90909,6.477707 L-6.889165,6.592277 C-6.866251,6.588292 -6.837359,6.585303 -6.801493,6.585303 C-6.617185,6.585303 -6.499625,6.696885 -6.499625,6.853298 C-6.499625,7.00473 -6.610211,7.120297 -6.887172,7.120297 C-7.115317,7.120297 -7.219924,7.028641 -7.219924,6.930011 C-7.219924,6.870235 -7.180074,6.830384 -7.115317,6.830384 C-7.064507,6.830384 -7.0396,6.862265 -7.0396,6.886175 C-7.0396,6.892153 -7.040597,6.895141 -7.040597,6.895141 C-7.040597,6.895141 -7.046574,6.892153 -7.057533,6.892153 C-7.08244,6.892153 -7.097384,6.910085 -7.097384,6.937981 C-7.097384,6.995764 -7.040597,7.065502 -6.890161,7.065502 C-6.717807,7.065502 -6.638106,6.98082 -6.638106,6.859276 C-6.638106,6.734743 -6.712826,6.640098 -6.825404,6.640098 C-6.85828,6.640098 -6.880198,6.644083 -6.880198,6.644083 L-6.83437,6.9061 Z" /><path d="M-5.9995,6.789537 C-5.989538,6.843336 -5.976586,6.861268 -5.976586,6.861268 C-5.976586,6.861268 -5.992526,6.871231 -6.026399,6.871231 C-6.075216,6.871231 -6.100123,6.85828 -6.116063,6.822414 C-6.138977,6.851306 -6.173847,6.871231 -6.22366,6.871231 C-6.340223,6.871231 -6.469737,6.766623 -6.469737,6.544456 C-6.469737,6.427894 -6.40498,6.373099 -6.323286,6.373099 C-6.266499,6.373099 -6.211705,6.411953 -6.170858,6.485677 C-6.165876,6.413946 -6.120048,6.373099 -6.054295,6.373099 C-5.957657,6.373099 -5.885926,6.467744 -5.875964,6.520546 C-5.872975,6.538479 -5.881941,6.546449 -5.894893,6.546449 C-5.920795,6.492651 -5.965627,6.459774 -5.9995,6.459774 C-6.035366,6.459774 -6.053299,6.487669 -6.04234,6.547445 L-5.9995,6.789537 Z M-6.283436,6.459774 C-6.320297,6.459774 -6.342215,6.486673 -6.342215,6.542464 C-6.342215,6.702862 -6.265503,6.803485 -6.197757,6.803485 C-6.159899,6.803485 -6.14097,6.77559 -6.132003,6.755664 L-6.14097,6.70884 C-6.159899,6.609214 -6.212701,6.459774 -6.283436,6.459774 Z" /><path d="M-5.689663,6.373099 C-5.535242,6.373099 -5.44259,6.47671 -5.432627,6.520546 C-5.428642,6.538479 -5.435616,6.546449 -5.448567,6.546449 C-5.475466,6.504606 -5.538231,6.451804 -5.638854,6.451804 C-5.731506,6.451804 -5.785305,6.510583 -5.785305,6.604232 C-5.785305,6.735739 -5.713574,6.821418 -5.651805,6.821418 C-5.624906,6.821418 -5.605977,6.803485 -5.605977,6.77559 C-5.605977,6.709836 -5.642839,6.678952 -5.642839,6.678952 C-5.642839,6.678952 -5.630884,6.655042 -5.595018,6.655042 C-5.543212,6.655042 -5.509339,6.698877 -5.509339,6.758653 C-5.509339,6.82341 -5.567123,6.871231 -5.649813,6.871231 C-5.786301,6.871231 -5.914819,6.757657 -5.914819,6.584307 C-5.914819,6.455789 -5.82117,6.373099 -5.689663,6.373099 Z" /><path d="M-5.314071,6.585303 L-5.293149,6.585303 C-5.26625,6.585303 -5.254295,6.570359 -5.245329,6.542464 L-5.229388,6.489662 C-5.205478,6.409961 -5.157657,6.373099 -5.090908,6.373099 C-4.997259,6.373099 -4.921543,6.467744 -4.912576,6.520546 C-4.909588,6.538479 -4.918554,6.546449 -4.931505,6.546449 C-4.953423,6.500621 -4.995266,6.459774 -5.038106,6.459774 C-5.078952,6.459774 -5.098878,6.485677 -5.112825,6.530509 L-5.123784,6.565378 C-5.134743,6.597258 -5.154669,6.621169 -5.19153,6.630135 C-5.176586,6.641094 -5.164631,6.657034 -5.156661,6.674967 L-5.139725,6.710832 C-5.121792,6.749687 -5.099874,6.770608 -5.069986,6.770608 C-5.031132,6.770608 -5.022165,6.734743 -5.022165,6.734743 C-5.022165,6.734743 -4.987296,6.759649 -4.987296,6.803485 C-4.987296,6.844332 -5.011207,6.871231 -5.052053,6.871231 C-5.094893,6.871231 -5.126773,6.851306 -5.166624,6.770608 L-5.205478,6.690907 C-5.217433,6.666997 -5.238355,6.63412 -5.265254,6.63412 L-5.305104,6.63412 L-5.223411,7.101368 C-5.211456,7.171106 -5.220422,7.199998 -5.297134,7.199998 C-5.333996,7.199998 -5.34894,7.191032 -5.34894,7.191032 C-5.34894,7.191032 -5.338977,7.168118 -5.349936,7.105353 L-5.460522,6.471729 C-5.472477,6.401991 -5.46351,6.373099 -5.386798,6.373099 C-5.349936,6.373099 -5.334992,6.382065 -5.334992,6.382065 C-5.334992,6.382065 -5.344955,6.404979 -5.333996,6.467744 L-5.314071,6.585303 Z" /><path d="M-4.532005,6.71681 C-4.584807,6.533498 -4.628642,6.491654 -4.6934,6.491654 C-4.71731,6.491654 -4.728269,6.499625 -4.728269,6.499625 C-4.728269,6.499625 -4.742217,6.484681 -4.742217,6.449811 C-4.742217,6.403983 -4.713325,6.373099 -4.668493,6.373099 C-4.60274,6.373099 -4.553923,6.421916 -4.516065,6.563385 L-4.417434,6.929014 L-4.397509,6.473722 C-4.39452,6.411953 -4.383562,6.373099 -4.329763,6.373099 C-4.289913,6.373099 -4.266999,6.388043 -4.266999,6.388043 C-4.266999,6.388043 -4.259029,6.430882 -4.233126,6.485677 L-4.024906,6.925029 L-4.075716,6.635116 C-4.084682,6.582314 -4.089664,6.542464 -4.089664,6.496636 C-4.089664,6.42092 -4.040847,6.373099 -3.970112,6.373099 C-3.878456,6.373099 -3.798755,6.459774 -3.789788,6.520546 C-3.787796,6.536486 -3.793773,6.546449 -3.808717,6.546449 C-3.822665,6.518554 -3.864508,6.459774 -3.913325,6.459774 C-3.947198,6.459774 -3.968119,6.484681 -3.958157,6.542464 L-3.876463,7.011704 C-3.863512,7.08742 -3.877459,7.120297 -3.951183,7.120297 C-3.99203,7.120297 -4.00797,7.110334 -4.00797,7.110334 C-4.011955,7.08742 -4.018929,7.059525 -4.050809,6.993771 L-4.268991,6.538479 L-4.289913,7.027644 C-4.292901,7.100372 -4.313823,7.120297 -4.374595,7.120297 C-4.408468,7.120297 -4.431382,7.110334 -4.431382,7.110334 C-4.431382,7.110334 -4.433375,7.060521 -4.46924,6.933996 L-4.532005,6.71681 Z" /><path d="M-3.359402,6.772601 C-3.347446,6.842339 -3.356413,6.871231 -3.433125,6.871231 C-3.469987,6.871231 -3.484931,6.862265 -3.484931,6.862265 C-3.484931,6.862265 -3.473972,6.839351 -3.485927,6.776586 C-3.505852,6.67696 -3.545703,6.586299 -3.584557,6.526524 C-3.61046,6.486673 -3.636363,6.459774 -3.658281,6.459774 C-3.687172,6.459774 -3.70112,6.484681 -3.691157,6.542464 L-3.651307,6.772601 C-3.639352,6.842339 -3.648318,6.871231 -3.72503,6.871231 C-3.761892,6.871231 -3.776836,6.862265 -3.776836,6.862265 C-3.776836,6.862265 -3.766874,6.839351 -3.777832,6.776586 L-3.806724,6.611206 C-3.81569,6.5594 -3.818679,6.525527 -3.818679,6.488666 C-3.818679,6.419923 -3.776836,6.373099 -3.710087,6.373099 C-3.655292,6.373099 -3.611456,6.400994 -3.569613,6.457781 C-3.555666,6.477707 -3.541718,6.499625 -3.528766,6.524531 L-3.549688,6.396013 C-3.630385,6.356163 -3.682191,6.326275 -3.732004,6.283435 C-3.780821,6.241592 -3.81569,6.187794 -3.81569,6.129014 C-3.81569,6.067246 -3.771855,6.024407 -3.704109,6.024407 C-3.556662,6.024407 -3.464009,6.152925 -3.425155,6.384058 L-3.423162,6.396013 C-3.364383,6.424905 -3.301618,6.459774 -3.264756,6.487669 C-3.244831,6.502613 -3.233872,6.513572 -3.23188,6.523535 C-3.228891,6.537483 -3.237857,6.546449 -3.250809,6.546449 C-3.310585,6.497632 -3.4132,6.456785 -3.4132,6.456785 L-3.359402,6.772601 Z M-3.714072,6.09016 C-3.744956,6.09016 -3.7599,6.109089 -3.7599,6.134992 C-3.7599,6.169861 -3.739974,6.203734 -3.70112,6.241592 C-3.671232,6.270484 -3.6264,6.299375 -3.560647,6.333248 C-3.589539,6.173846 -3.643337,6.09016 -3.714072,6.09016 Z" /><path d="M-2.341221,6.931007 C-2.341221,7.036611 -2.422914,7.120297 -2.657036,7.120297 L-2.790536,7.120297 C-2.950934,7.120297 -3.041594,7.048566 -3.041594,6.949936 C-3.041594,6.89016 -3.001744,6.850309 -2.936987,6.850309 C-2.886177,6.850309 -2.86127,6.88219 -2.86127,6.9061 C-2.86127,6.912078 -2.862267,6.915067 -2.862267,6.915067 C-2.862267,6.915067 -2.868244,6.912078 -2.879203,6.912078 C-2.90411,6.912078 -2.919054,6.930011 -2.919054,6.957906 C-2.919054,7.014693 -2.874222,7.065502 -2.783562,7.065502 L-2.774596,7.065502 C-2.774596,7.052551 -2.776588,7.036611 -2.779577,7.016686 L-2.865256,6.525527 C-2.868244,6.509587 -2.871233,6.490658 -2.871233,6.474718 C-2.871233,6.454793 -2.867248,6.437856 -2.8533,6.422912 C-2.830386,6.396013 -2.775592,6.373099 -2.67198,6.373099 C-2.468742,6.373099 -2.373101,6.46874 -2.373101,6.586299 C-2.373101,6.667993 -2.434869,6.730758 -2.523537,6.745702 C-2.398008,6.758653 -2.341221,6.848317 -2.341221,6.931007 Z M-2.631134,6.71681 C-2.559402,6.71681 -2.511582,6.675963 -2.511582,6.597258 C-2.511582,6.501617 -2.578332,6.427894 -2.688917,6.427894 C-2.709838,6.427894 -2.725779,6.42889 -2.740723,6.430882 C-2.742715,6.445826 -2.741719,6.474718 -2.735741,6.506598 L-2.698879,6.71681 L-2.631134,6.71681 Z M-2.611208,7.065502 C-2.529515,7.065502 -2.479701,7.021667 -2.479701,6.941966 C-2.479701,6.832377 -2.553425,6.771605 -2.631134,6.771605 L-2.689913,6.771605 L-2.638107,7.065502 L-2.611208,7.065502 Z" /><path d="M-2.00548,6.871231 C-2.175841,6.871231 -2.281445,6.743709 -2.281445,6.563385 C-2.281445,6.439849 -2.203736,6.373099 -2.098132,6.373099 C-1.923786,6.373099 -1.822167,6.505602 -1.822167,6.680945 C-1.822167,6.794519 -1.888917,6.871231 -2.00548,6.871231 Z M-2.144957,6.623161 C-2.117061,6.771605 -2.065256,6.822414 -2.015442,6.822414 C-1.973599,6.822414 -1.949689,6.788541 -1.949689,6.72478 C-1.949689,6.699874 -1.951682,6.658031 -1.958655,6.622165 C-1.984558,6.487669 -2.030386,6.422912 -2.08817,6.422912 C-2.130013,6.422912 -2.153923,6.457781 -2.153923,6.520546 C-2.153923,6.545453 -2.149938,6.597258 -2.144957,6.623161 Z" /><path d="M-1.667746,6.871231 C-1.716563,6.871231 -1.746451,6.839351 -1.746451,6.808466 C-1.746451,6.803485 -1.745455,6.7995 -1.744459,6.795515 C-1.744459,6.795515 -1.736489,6.800496 -1.72553,6.800496 C-1.706601,6.800496 -1.696638,6.790534 -1.685679,6.753672 L-1.637859,6.603236 L-1.710586,6.550434 C-1.783313,6.497632 -1.802242,6.462763 -1.802242,6.425901 C-1.802242,6.394021 -1.784309,6.373099 -1.744459,6.373099 C-1.720548,6.373099 -1.706601,6.382065 -1.706601,6.382065 C-1.70959,6.392028 -1.710586,6.401991 -1.710586,6.410957 C-1.710586,6.46077 -1.690661,6.506598 -1.64284,6.540471 L-1.622915,6.554419 L-1.609963,6.515565 C-1.578083,6.415938 -1.527273,6.373099 -1.44558,6.373099 C-1.35492,6.373099 -1.27223,6.450808 -1.259278,6.520546 C-1.256289,6.538479 -1.265256,6.546449 -1.278207,6.546449 C-1.311084,6.485677 -1.347946,6.459774 -1.393774,6.459774 C-1.438606,6.459774 -1.467497,6.487669 -1.488419,6.549438 L-1.516314,6.631131 L-1.429639,6.693896 C-1.356912,6.746698 -1.337983,6.781567 -1.337983,6.818429 C-1.337983,6.850309 -1.355916,6.871231 -1.395766,6.871231 C-1.419677,6.871231 -1.433624,6.862265 -1.433624,6.862265 C-1.430636,6.852302 -1.429639,6.842339 -1.429639,6.833373 C-1.429639,6.78356 -1.449565,6.737732 -1.497385,6.703859 L-1.532255,6.678952 L-1.571109,6.797507 C-1.590038,6.855291 -1.614944,6.871231 -1.667746,6.871231 Z" /></g></g></g></g></g></g></g><g transform="translate(0, -1.114568)"><g transform="translate(0, 0)"><g transform="scale(1)"><g transform="translate(0, 0)"><g opacity="1"><g transform="translate(3.535965, -6.612203)"><g><path d="M-6.815441,6.459774 C-6.859277,6.459774 -6.892153,6.487669 -6.892153,6.577333 C-6.892153,6.608217 -6.889165,6.647072 -6.881195,6.694892 L-6.825404,7.011704 C-6.812452,7.088417 -6.8264,7.120297 -6.900124,7.120297 L-6.968866,7.120297 C-7.129264,7.120297 -7.219924,7.048566 -7.219924,6.949936 C-7.219924,6.89016 -7.180074,6.850309 -7.115317,6.850309 C-7.064507,6.850309 -7.0396,6.88219 -7.0396,6.9061 C-7.0396,6.912078 -7.040597,6.915067 -7.040597,6.915067 C-7.040597,6.915067 -7.046574,6.912078 -7.057533,6.912078 C-7.08244,6.912078 -7.097384,6.930011 -7.097384,6.957906 C-7.097384,7.014693 -7.052552,7.065502 -6.961892,7.065502 L-6.952926,7.065502 C-6.952926,7.065502 -6.953922,7.042588 -6.957907,7.016686 L-7.002739,6.74072 C-7.011705,6.683933 -7.017683,6.632128 -7.017683,6.588292 C-7.017683,6.446823 -6.966873,6.373099 -6.856288,6.373099 C-6.783561,6.373099 -6.716811,6.425901 -6.665005,6.510583 C-6.647072,6.425901 -6.590285,6.373099 -6.500622,6.373099 C-6.384059,6.373099 -6.310335,6.479699 -6.249563,6.654045 C-6.20772,6.773597 -6.157907,6.932999 -6.157907,7.023659 C-6.157907,7.085428 -6.171855,7.129263 -6.229638,7.129263 C-6.25853,7.129263 -6.272477,7.120297 -6.272477,7.120297 C-6.272477,7.120297 -6.254544,7.059525 -6.254544,6.969861 C-6.254544,6.836362 -6.301369,6.643087 -6.358156,6.547445 C-6.392029,6.489662 -6.427894,6.459774 -6.464756,6.459774 C-6.511581,6.459774 -6.539476,6.490658 -6.539476,6.582314 C-6.539476,6.624158 -6.533498,6.677956 -6.521543,6.746698 L-6.474719,7.011704 C-6.461767,7.088417 -6.475715,7.120297 -6.549439,7.120297 C-6.590285,7.120297 -6.606226,7.110334 -6.606226,7.110334 C-6.606226,7.110334 -6.596263,7.085428 -6.607222,7.016686 L-6.666001,6.653049 C-6.71183,6.51158 -6.764632,6.459774 -6.815441,6.459774 Z" /><path d="M-6.119052,6.592277 C-6.126026,6.552427 -6.128018,6.517557 -6.128018,6.497632 C-6.128018,6.417931 -6.080198,6.373099 -6.011455,6.373099 C-5.914818,6.373099 -5.843087,6.467744 -5.833124,6.520546 C-5.830135,6.538479 -5.839102,6.546449 -5.852053,6.546449 C-5.877956,6.492651 -5.922788,6.459774 -5.956661,6.459774 C-5.992526,6.459774 -6.009463,6.487669 -5.9995,6.547445 L-5.960646,6.772601 C-5.948691,6.842339 -5.957657,6.871231 -6.034369,6.871231 C-6.071231,6.871231 -6.086175,6.862265 -6.086175,6.862265 C-6.086175,6.862265 -6.076213,6.840347 -6.087171,6.776586 L-6.119052,6.592277 Z M-6.052302,7.020671 C-6.052302,6.985801 -6.028392,6.960895 -5.992526,6.960895 C-5.948691,6.960895 -5.920795,6.994768 -5.920795,7.029637 C-5.920795,7.065502 -5.944706,7.092402 -5.982564,7.092402 C-6.020422,7.092402 -6.052302,7.061517 -6.052302,7.020671 Z" /><path d="M-5.848069,6.871231 C-5.869986,6.871231 -5.881942,6.859276 -5.881942,6.842339 C-5.881942,6.829388 -5.874968,6.821418 -5.874968,6.821418 L-5.810211,6.821418 L-5.847072,6.611206 C-5.856039,6.560397 -5.858031,6.52752 -5.858031,6.504606 C-5.858031,6.424905 -5.800248,6.373099 -5.726524,6.373099 C-5.631879,6.373099 -5.551182,6.459774 -5.536238,6.520546 C-5.532253,6.537483 -5.541219,6.546449 -5.554171,6.546449 C-5.576089,6.504606 -5.616935,6.459774 -5.673722,6.459774 C-5.720547,6.459774 -5.740472,6.492651 -5.730509,6.547445 L-5.682689,6.821418 L-5.601991,6.821418 C-5.580074,6.821418 -5.568118,6.833373 -5.568118,6.850309 C-5.568118,6.863261 -5.575092,6.871231 -5.575092,6.871231 L-5.673722,6.871231 L-5.664756,6.921044 C-5.651805,6.990783 -5.661767,7.019674 -5.73848,7.019674 C-5.775341,7.019674 -5.790285,7.010708 -5.790285,7.010708 C-5.790285,7.010708 -5.779326,6.987794 -5.791282,6.925029 L-5.801244,6.871231 L-5.848069,6.871231 Z" /><path d="M-5.0929,6.459774 C-5.130758,6.459774 -5.14371,6.491654 -5.133747,6.547445 L-5.109837,6.687918 C-5.104855,6.717806 -5.10087,6.746698 -5.10087,6.768616 C-5.10087,6.830384 -5.140721,6.871231 -5.203485,6.871231 C-5.285179,6.871231 -5.359899,6.79153 -5.398753,6.726773 L-5.333,7.101368 C-5.321045,7.171106 -5.330011,7.199998 -5.406723,7.199998 C-5.443585,7.199998 -5.458529,7.191032 -5.458529,7.191032 C-5.458529,7.191032 -5.448566,7.168118 -5.459525,7.105353 L-5.570111,6.471729 C-5.582066,6.401991 -5.573099,6.373099 -5.496387,6.373099 C-5.459525,6.373099 -5.444581,6.382065 -5.444581,6.382065 C-5.444581,6.382065 -5.454544,6.404979 -5.443585,6.467744 C-5.413697,6.635116 -5.318056,6.78356 -5.255291,6.78356 C-5.233373,6.78356 -5.223411,6.768616 -5.231381,6.720795 L-5.25031,6.611206 C-5.25828,6.562389 -5.265254,6.523535 -5.265254,6.497632 C-5.265254,6.422912 -5.219426,6.373099 -5.144706,6.373099 C-5.052053,6.373099 -4.979326,6.467744 -4.969363,6.520546 C-4.966375,6.538479 -4.975341,6.546449 -4.988292,6.546449 C-5.017184,6.488666 -5.054046,6.459774 -5.0929,6.459774 Z" /><path d="M-4.507097,7.120297 C-4.691406,7.120297 -4.779077,7.048566 -4.779077,6.949936 C-4.779077,6.89016 -4.739227,6.850309 -4.67447,6.850309 C-4.62366,6.850309 -4.598753,6.88219 -4.598753,6.9061 C-4.598753,6.912078 -4.59975,6.915067 -4.59975,6.915067 C-4.59975,6.915067 -4.605727,6.912078 -4.616686,6.912078 C-4.641593,6.912078 -4.656537,6.930011 -4.656537,6.957906 C-4.656537,7.014693 -4.611705,7.065502 -4.521045,7.065502 L-4.512079,7.065502 C-4.512079,7.052551 -4.513075,7.038603 -4.51706,7.016686 L-4.610709,6.481692 C-4.62366,6.404979 -4.609712,6.373099 -4.535989,6.373099 C-4.495142,6.373099 -4.479202,6.383062 -4.479202,6.383062 C-4.479202,6.383062 -4.490161,6.407968 -4.478206,6.477707 L-4.432377,6.739724 C-4.380572,6.734743 -4.337732,6.726773 -4.293897,6.726773 C-4.242091,6.726773 -4.225154,6.749687 -4.225154,6.77559 C-4.225154,6.794519 -4.233125,6.802489 -4.233125,6.802489 C-4.233125,6.802489 -4.256039,6.798504 -4.291904,6.798504 L-4.422415,6.798504 L-4.379575,7.040596 C-4.221169,7.005727 -4.175341,6.965876 -4.092651,6.965876 C-4.019924,6.965876 -3.98107,7.014693 -3.98107,7.074469 C-3.98107,7.090409 -3.987047,7.108342 -3.992029,7.113323 C-3.992029,7.113323 -4.027894,7.097383 -4.085678,7.097383 C-4.283934,7.097383 -4.397508,7.120297 -4.507097,7.120297 Z M-4.190285,6.592277 C-4.197259,6.552427 -4.199252,6.517557 -4.199252,6.497632 C-4.199252,6.417931 -4.151431,6.373099 -4.082689,6.373099 C-3.986051,6.373099 -3.91432,6.467744 -3.904357,6.520546 C-3.901369,6.538479 -3.910335,6.546449 -3.923286,6.546449 C-3.949189,6.492651 -3.994021,6.459774 -4.027894,6.459774 C-4.06376,6.459774 -4.080696,6.487669 -4.070734,6.547445 L-4.031879,6.772601 C-4.019924,6.842339 -4.02889,6.871231 -4.105603,6.871231 C-4.142465,6.871231 -4.157409,6.862265 -4.157409,6.862265 C-4.157409,6.862265 -4.147446,6.840347 -4.158405,6.776586 L-4.190285,6.592277 Z" /><path d="M-3.420172,6.619176 C-3.488915,6.619176 -3.512825,6.65006 -3.512825,6.65006 C-3.499873,6.698877 -3.491903,6.751679 -3.491903,6.796511 C-3.491903,6.851306 -3.520795,6.871231 -3.554668,6.871231 C-3.596511,6.871231 -3.622414,6.839351 -3.622414,6.797507 C-3.622414,6.743709 -3.605477,6.690907 -3.578578,6.65006 C-3.596511,6.528516 -3.655291,6.459774 -3.717059,6.459774 C-3.771854,6.459774 -3.799749,6.502613 -3.799749,6.584307 C-3.799749,6.614195 -3.794768,6.653049 -3.78879,6.687918 L-3.773846,6.772601 C-3.761891,6.841343 -3.770857,6.871231 -3.84757,6.871231 C-3.884431,6.871231 -3.899375,6.862265 -3.899375,6.862265 C-3.899375,6.862265 -3.890409,6.841343 -3.900372,6.776586 L-3.908342,6.726773 C-3.917308,6.670982 -3.923286,6.61818 -3.923286,6.562389 C-3.923286,6.446823 -3.861517,6.373099 -3.760895,6.373099 C-3.686175,6.373099 -3.630384,6.419923 -3.589537,6.478703 C-3.563634,6.516561 -3.542713,6.566374 -3.528765,6.60224 C-3.528765,6.60224 -3.489911,6.579326 -3.43412,6.579326 C-3.396262,6.579326 -3.365378,6.586299 -3.350434,6.600247 C-3.339475,6.61021 -3.337482,6.622165 -3.347445,6.629139 C-3.347445,6.629139 -3.371355,6.619176 -3.420172,6.619176 Z" /><path d="M-3.195017,6.373099 C-3.042589,6.373099 -2.946948,6.47671 -2.937981,6.520546 C-2.933996,6.538479 -2.94097,6.546449 -2.953921,6.546449 C-2.98082,6.504606 -3.041593,6.451804 -3.148193,6.451804 C-3.232875,6.451804 -3.284681,6.509587 -3.290659,6.584307 C-3.115316,6.617184 -3.010708,6.67696 -3.010708,6.76762 C-3.010708,6.818429 -3.051555,6.871231 -3.153174,6.871231 C-3.285677,6.871231 -3.420173,6.764631 -3.420173,6.588292 C-3.420173,6.453796 -3.325528,6.373099 -3.195017,6.373099 Z M-3.152178,6.821418 C-3.131256,6.821418 -3.117309,6.80747 -3.117309,6.786549 C-3.117309,6.720795 -3.168118,6.660023 -3.289662,6.631131 C-3.278703,6.755664 -3.208965,6.821418 -3.152178,6.821418 Z" /><path d="M-2.342215,6.892153 C-2.329264,6.968865 -2.343212,7.000745 -2.416935,7.000745 C-2.457782,7.000745 -2.473722,6.990783 -2.473722,6.990783 C-2.473722,6.990783 -2.462763,6.965876 -2.474719,6.897134 L-2.54645,6.486673 C-2.559401,6.489662 -2.573349,6.491654 -2.585304,6.491654 C-2.638106,6.491654 -2.66102,6.463759 -2.66102,6.431879 C-2.66102,6.402987 -2.639102,6.373099 -2.580323,6.373099 C-2.543461,6.373099 -2.507595,6.380073 -2.477707,6.399998 C-2.445827,6.387047 -2.400995,6.373099 -2.341219,6.373099 C-2.129015,6.373099 -1.976587,6.515565 -1.976587,6.753672 C-1.976587,6.969861 -2.147944,7.120297 -2.421917,7.120297 C-2.635117,7.120297 -2.741717,7.028641 -2.741717,6.930011 C-2.741717,6.870235 -2.701867,6.830384 -2.63711,6.830384 C-2.5863,6.830384 -2.561393,6.862265 -2.561393,6.886175 C-2.561393,6.892153 -2.56239,6.895141 -2.56239,6.895141 C-2.56239,6.895141 -2.568367,6.892153 -2.579326,6.892153 C-2.604233,6.892153 -2.619177,6.910085 -2.619177,6.937981 C-2.619177,6.994768 -2.564382,7.065502 -2.416935,7.065502 C-2.227645,7.065502 -2.115067,6.952925 -2.115067,6.768616 C-2.115067,6.568367 -2.212701,6.432875 -2.374096,6.432875 C-2.398006,6.432875 -2.418928,6.43686 -2.434868,6.441841 C-2.422913,6.459774 -2.413946,6.483684 -2.408965,6.51158 L-2.342215,6.892153 Z" /><path d="M-1.630884,6.871231 C-1.801245,6.871231 -1.906849,6.743709 -1.906849,6.563385 C-1.906849,6.439849 -1.82914,6.373099 -1.723536,6.373099 C-1.588044,6.373099 -1.496388,6.453796 -1.462515,6.572352 C-1.382814,6.582314 -1.320049,6.636113 -1.314072,6.670982 C-1.312079,6.685926 -1.319053,6.695889 -1.332005,6.695889 C-1.332005,6.695889 -1.377833,6.629139 -1.452553,6.61818 C-1.449564,6.638105 -1.447571,6.659027 -1.447571,6.680945 C-1.447571,6.794519 -1.514321,6.871231 -1.630884,6.871231 Z M-1.626899,6.677956 C-1.626899,6.645079 -1.613947,6.61818 -1.589041,6.599251 C-1.614944,6.479699 -1.659775,6.422912 -1.713574,6.422912 C-1.755417,6.422912 -1.779327,6.457781 -1.779327,6.520546 C-1.779327,6.545453 -1.775342,6.597258 -1.770361,6.623161 C-1.742465,6.771605 -1.69066,6.822414 -1.640846,6.822414 C-1.603985,6.822414 -1.581071,6.795515 -1.576089,6.745702 C-1.608966,6.738728 -1.626899,6.711829 -1.626899,6.677956 Z" /><path d="M-0.979327,6.704855 C-0.979327,6.7995 -1.037111,6.871231 -1.16264,6.871231 C-1.29315,6.871231 -1.388792,6.78356 -1.388792,6.689911 C-1.388792,6.649064 -1.361893,6.622165 -1.319053,6.622165 C-1.304109,6.622165 -1.295143,6.627146 -1.295143,6.627146 C-1.295143,6.627146 -1.297136,6.63412 -1.297136,6.646075 C-1.297136,6.741717 -1.226401,6.821418 -1.166625,6.821418 C-1.122789,6.821418 -1.097883,6.796511 -1.097883,6.750683 C-1.097883,6.633124 -1.182565,6.506598 -1.289165,6.459774 C-1.289165,6.442837 -1.276214,6.429886 -1.250311,6.429886 C-1.234371,6.429886 -1.216438,6.432875 -1.197509,6.437856 C-1.192528,6.429886 -1.185554,6.414942 -1.182565,6.394021 C-1.262266,6.355166 -1.318057,6.32229 -1.365878,6.281443 C-1.414695,6.240596 -1.447571,6.183809 -1.447571,6.129014 C-1.447571,6.065253 -1.407721,6.024407 -1.321046,6.024407 C-1.166625,6.024407 -1.053051,6.154917 -1.053051,6.291405 C-1.053051,6.328267 -1.061021,6.361144 -1.074969,6.387047 C-1.002241,6.423908 -0.936488,6.46077 -0.901619,6.487669 C-0.881693,6.502613 -0.870735,6.513572 -0.868742,6.523535 C-0.865753,6.537483 -0.87472,6.546449 -0.887671,6.546449 C-0.925529,6.514568 -1.017185,6.461766 -1.104857,6.42889 C-1.121793,6.445826 -1.135741,6.453796 -1.145703,6.458778 C-1.118804,6.471729 -1.093898,6.488666 -1.07198,6.508591 C-1.015193,6.5594 -0.979327,6.628143 -0.979327,6.704855 Z M-1.342964,6.09016 C-1.374844,6.09016 -1.391781,6.107097 -1.391781,6.134992 C-1.391781,6.169861 -1.370859,6.203734 -1.332005,6.241592 C-1.301121,6.272476 -1.252304,6.303361 -1.179576,6.339226 L-1.179576,6.332252 C-1.179576,6.201742 -1.259278,6.09016 -1.342964,6.09016 Z" /><path d="M-0.68244,6.373099 C-0.530012,6.373099 -0.434371,6.47671 -0.425404,6.520546 C-0.421419,6.538479 -0.428393,6.546449 -0.441344,6.546449 C-0.468243,6.504606 -0.529016,6.451804 -0.635616,6.451804 C-0.720298,6.451804 -0.772104,6.509587 -0.778082,6.584307 C-0.602739,6.617184 -0.498131,6.67696 -0.498131,6.76762 C-0.498131,6.818429 -0.538978,6.871231 -0.640597,6.871231 C-0.7731,6.871231 -0.907596,6.764631 -0.907596,6.588292 C-0.907596,6.453796 -0.812951,6.373099 -0.68244,6.373099 Z M-0.639601,6.821418 C-0.618679,6.821418 -0.604732,6.80747 -0.604732,6.786549 C-0.604732,6.720795 -0.655541,6.660023 -0.777085,6.631131 C-0.766126,6.755664 -0.696388,6.821418 -0.639601,6.821418 Z" /><path d="M-0.133498,6.611206 C-0.139475,6.578329 -0.148442,6.523535 -0.148442,6.497632 C-0.148442,6.422912 -0.102614,6.373099 -0.027894,6.373099 C0.064759,6.373099 0.139478,6.469737 0.147449,6.520546 C0.150437,6.538479 0.141471,6.546449 0.12852,6.546449 C0.102617,6.494643 0.065755,6.459774 0.023912,6.459774 C-0.017931,6.459774 -0.025901,6.498628 -0.016935,6.547445 L0.006975,6.687918 C0.011957,6.717806 0.015942,6.746698 0.015942,6.768616 C0.015942,6.830384 -0.023909,6.871231 -0.086673,6.871231 C-0.167371,6.871231 -0.243087,6.79153 -0.281941,6.726773 L-0.273971,6.772601 C-0.262016,6.842339 -0.270982,6.871231 -0.347695,6.871231 C-0.384556,6.871231 -0.3995,6.862265 -0.3995,6.862265 C-0.3995,6.862265 -0.389538,6.839351 -0.400497,6.776586 L-0.453299,6.471729 C-0.465254,6.401991 -0.456287,6.373099 -0.379575,6.373099 C-0.342713,6.373099 -0.327769,6.382065 -0.327769,6.382065 C-0.327769,6.382065 -0.337732,6.404979 -0.326773,6.467744 C-0.295889,6.635116 -0.201244,6.78356 -0.138479,6.78356 C-0.116561,6.78356 -0.106599,6.768616 -0.114569,6.720795 L-0.133498,6.611206 Z" /></g></g></g></g></g></g></g><g transform="translate(0, -2.750309)"><g transform="translate(0, 0)"><g transform="scale(1)"><g transform="translate(0, 0)"><g opacity="1"><g transform="translate(4.323785, -6.652054)"><g><path d="M-7.056537,6.571356 C-7.10635,6.571356 -7.129264,6.542465 -7.129264,6.511581 C-7.129264,6.482689 -7.10635,6.452801 -7.051556,6.452801 C-6.977832,6.452801 -6.935989,6.508592 -6.935989,6.508592 C-6.935989,6.508592 -6.812452,6.452801 -6.687919,6.452801 C-6.610211,6.452801 -6.575341,6.489663 -6.575341,6.540472 C-6.575341,6.571356 -6.5863,6.583312 -6.5863,6.583312 C-6.5863,6.583312 -6.622166,6.557409 -6.733747,6.557409 C-6.81046,6.557409 -6.868243,6.560398 -6.91706,6.563386 L-6.824407,7.091406 C-6.81046,7.168119 -6.825404,7.199999 -6.899127,7.199999 L-6.968866,7.199999 C-7.129264,7.199999 -7.219924,7.128268 -7.219924,7.029638 C-7.219924,6.969862 -7.180074,6.930011 -7.115317,6.930011 C-7.064507,6.930011 -7.0396,6.961892 -7.0396,6.985802 C-7.0396,6.99178 -7.040597,6.994769 -7.040597,6.994769 C-7.040597,6.994769 -7.046574,6.99178 -7.057533,6.99178 C-7.08244,6.99178 -7.097384,7.009713 -7.097384,7.037608 C-7.097384,7.094395 -7.052552,7.145204 -6.961892,7.145204 L-6.951929,7.145204 C-6.951929,7.132253 -6.952926,7.117309 -6.956911,7.096388 L-7.048567,6.571356 L-7.056537,6.571356 Z" /><path d="M-6.536487,6.671979 C-6.543461,6.632129 -6.545453,6.597259 -6.545453,6.577334 C-6.545453,6.497633 -6.497633,6.452801 -6.42889,6.452801 C-6.332253,6.452801 -6.260522,6.547446 -6.250559,6.600248 C-6.24757,6.618181 -6.256537,6.626151 -6.269488,6.626151 C-6.295391,6.572353 -6.340223,6.539476 -6.374096,6.539476 C-6.409961,6.539476 -6.426898,6.567371 -6.416935,6.627147 L-6.378081,6.852303 C-6.366126,6.922041 -6.375092,6.950933 -6.451804,6.950933 C-6.488666,6.950933 -6.50361,6.941967 -6.50361,6.941967 C-6.50361,6.941967 -6.493648,6.920049 -6.504606,6.856288 L-6.536487,6.671979 Z M-6.469737,7.100373 C-6.469737,7.065503 -6.445827,7.040597 -6.409961,7.040597 C-6.366126,7.040597 -6.33823,7.07447 -6.33823,7.109339 C-6.33823,7.145204 -6.362141,7.172104 -6.399999,7.172104 C-6.437857,7.172104 -6.469737,7.141219 -6.469737,7.100373 Z" /><path d="M-5.81818,6.869239 C-5.808217,6.923038 -5.795266,6.94097 -5.795266,6.94097 C-5.795266,6.94097 -5.811206,6.950933 -5.845079,6.950933 C-5.893896,6.950933 -5.919799,6.937982 -5.934743,6.90112 C-5.958653,6.931008 -5.993523,6.950933 -6.043336,6.950933 C-6.159899,6.950933 -6.289413,6.846325 -6.289413,6.624158 C-6.289413,6.507596 -6.224656,6.452801 -6.142962,6.452801 C-6.091156,6.452801 -6.042339,6.484681 -6.002489,6.544457 L-6.063261,6.202739 C-6.075216,6.133 -6.06625,6.104109 -5.989537,6.104109 C-5.952676,6.104109 -5.937732,6.113075 -5.937732,6.113075 C-5.937732,6.113075 -5.947694,6.135989 -5.936735,6.198754 L-5.81818,6.869239 Z M-6.103112,6.539476 C-6.139973,6.539476 -6.161891,6.566375 -6.161891,6.622166 C-6.161891,6.782564 -6.085179,6.883187 -6.017433,6.883187 C-5.979575,6.883187 -5.960646,6.855292 -5.951679,6.835366 L-5.960646,6.788542 C-5.979575,6.688916 -6.032377,6.539476 -6.103112,6.539476 Z" /><path d="M-5.44259,6.577334 C-5.44259,6.497633 -5.394769,6.452801 -5.326027,6.452801 C-5.229389,6.452801 -5.157658,6.547446 -5.147696,6.600248 C-5.144707,6.618181 -5.153673,6.626151 -5.166625,6.626151 C-5.192527,6.572353 -5.237359,6.539476 -5.271232,6.539476 C-5.307098,6.539476 -5.324034,6.567371 -5.314072,6.627147 L-5.275217,6.852303 C-5.263262,6.922041 -5.272229,6.950933 -5.348941,6.950933 C-5.385803,6.950933 -5.400747,6.941967 -5.400747,6.941967 C-5.400747,6.941967 -5.39178,6.921045 -5.400747,6.866251 C-5.415691,6.777583 -5.45853,6.670983 -5.501369,6.606226 C-5.527272,6.566375 -5.553175,6.539476 -5.575093,6.539476 C-5.603984,6.539476 -5.617932,6.565379 -5.607969,6.622166 L-5.568119,6.852303 C-5.556164,6.922041 -5.56513,6.950933 -5.641842,6.950933 C-5.678704,6.950933 -5.693648,6.941967 -5.693648,6.941967 C-5.693648,6.941967 -5.683686,6.919053 -5.694644,6.856288 L-5.723536,6.690908 C-5.732502,6.639102 -5.735491,6.605229 -5.735491,6.568368 C-5.735491,6.499625 -5.693648,6.452801 -5.626899,6.452801 C-5.572104,6.452801 -5.528268,6.480696 -5.486425,6.537483 C-5.470485,6.558405 -5.455541,6.583312 -5.441593,6.611207 C-5.44259,6.597259 -5.44259,6.5863 -5.44259,6.577334 Z" /><path d="M-4.910585,6.950933 C-5.080946,6.950933 -5.18655,6.823411 -5.18655,6.643087 C-5.18655,6.519551 -5.108841,6.452801 -5.003237,6.452801 C-4.867745,6.452801 -4.776089,6.533498 -4.742216,6.652054 C-4.662515,6.662016 -4.59975,6.715815 -4.593773,6.750684 C-4.59178,6.765628 -4.598754,6.775591 -4.611706,6.775591 C-4.611706,6.775591 -4.657534,6.708841 -4.732254,6.697882 C-4.729265,6.717807 -4.727272,6.738729 -4.727272,6.760647 C-4.727272,6.874221 -4.794022,6.950933 -4.910585,6.950933 Z M-4.9066,6.757658 C-4.9066,6.724781 -4.893648,6.697882 -4.868742,6.678953 C-4.894645,6.559401 -4.939476,6.502614 -4.993275,6.502614 C-5.035118,6.502614 -5.059028,6.537483 -5.059028,6.600248 C-5.059028,6.625155 -5.055043,6.67696 -5.050062,6.702863 C-5.022166,6.851307 -4.970361,6.902116 -4.920547,6.902116 C-4.883686,6.902116 -4.860772,6.875217 -4.85579,6.825404 C-4.888667,6.81843 -4.9066,6.791531 -4.9066,6.757658 Z" /><path d="M-4.354669,6.577334 C-4.354669,6.497633 -4.306848,6.452801 -4.238106,6.452801 C-4.141468,6.452801 -4.069737,6.547446 -4.059775,6.600248 C-4.056786,6.618181 -4.065752,6.626151 -4.078704,6.626151 C-4.104606,6.572353 -4.149438,6.539476 -4.183311,6.539476 C-4.219177,6.539476 -4.236113,6.567371 -4.226151,6.627147 L-4.187296,6.852303 C-4.175341,6.922041 -4.184308,6.950933 -4.26102,6.950933 C-4.297882,6.950933 -4.312826,6.941967 -4.312826,6.941967 C-4.312826,6.941967 -4.303859,6.921045 -4.312826,6.866251 C-4.32777,6.777583 -4.370609,6.670983 -4.413448,6.606226 C-4.439351,6.566375 -4.465254,6.539476 -4.487172,6.539476 C-4.516063,6.539476 -4.530011,6.565379 -4.520048,6.622166 L-4.480198,6.852303 C-4.468243,6.922041 -4.477209,6.950933 -4.553921,6.950933 C-4.590783,6.950933 -4.605727,6.941967 -4.605727,6.941967 C-4.605727,6.941967 -4.595765,6.919053 -4.606723,6.856288 L-4.635615,6.690908 C-4.644581,6.639102 -4.64757,6.605229 -4.64757,6.568368 C-4.64757,6.499625 -4.605727,6.452801 -4.538978,6.452801 C-4.484183,6.452801 -4.440347,6.480696 -4.398504,6.537483 C-4.382564,6.558405 -4.36762,6.583312 -4.353672,6.611207 C-4.354669,6.597259 -4.354669,6.5863 -4.354669,6.577334 Z" /><path d="M-3.914319,6.852303 C-3.902364,6.919053 -3.91133,6.950933 -3.988043,6.950933 C-4.024904,6.950933 -4.039848,6.941967 -4.039848,6.941967 C-4.039848,6.941967 -4.029886,6.919053 -4.040845,6.856288 L-4.093647,6.551431 C-4.105602,6.481693 -4.096635,6.452801 -4.019923,6.452801 C-3.983061,6.452801 -3.968117,6.461767 -3.968117,6.461767 C-3.968117,6.461767 -3.97808,6.482689 -3.968117,6.541468 C-3.944207,6.681942 -3.91133,6.74371 -3.873472,6.796512 C-3.840596,6.84234 -3.818678,6.855292 -3.802738,6.855292 C-3.787794,6.855292 -3.781816,6.847322 -3.781816,6.833374 C-3.781816,6.806475 -3.794767,6.783561 -3.794767,6.783561 C-3.794767,6.783561 -3.775838,6.777583 -3.749936,6.777583 C-3.701119,6.777583 -3.667246,6.817434 -3.667246,6.873224 C-3.667246,6.924034 -3.69813,6.950933 -3.746947,6.950933 C-3.791779,6.950933 -3.858528,6.916064 -3.922289,6.808467 L-3.914319,6.852303 Z" /><path d="M-3.135242,7.199999 C-3.29564,7.199999 -3.3863,7.128268 -3.3863,7.029638 C-3.3863,6.969862 -3.34645,6.930011 -3.281692,6.930011 C-3.230883,6.930011 -3.205976,6.961892 -3.205976,6.985802 C-3.205976,6.99178 -3.206973,6.994769 -3.206973,6.994769 C-3.206973,6.994769 -3.21295,6.99178 -3.223909,6.99178 C-3.248816,6.99178 -3.26376,7.009713 -3.26376,7.037608 C-3.26376,7.094395 -3.218928,7.145204 -3.128268,7.145204 L-3.118305,7.145204 C-3.118305,7.132253 -3.120298,7.115317 -3.123286,7.096388 L-3.22889,6.49564 C-3.245827,6.400995 -3.275715,6.368119 -3.317558,6.368119 C-3.349438,6.368119 -3.368367,6.38904 -3.368367,6.425902 C-3.368367,6.46376 -3.351431,6.496637 -3.351431,6.496637 C-3.351431,6.496637 -3.36239,6.502614 -3.388293,6.502614 C-3.438106,6.502614 -3.467994,6.475715 -3.467994,6.427894 C-3.467994,6.362141 -3.416188,6.313324 -3.319551,6.313324 C-3.196014,6.313324 -3.116313,6.375092 -3.091406,6.518554 L-2.990783,7.091406 C-2.976836,7.168119 -2.99178,7.199999 -3.065503,7.199999 L-3.135242,7.199999 Z" /><path d="M-2.653051,6.577334 C-2.653051,6.497633 -2.60523,6.452801 -2.536488,6.452801 C-2.43985,6.452801 -2.368119,6.547446 -2.358157,6.600248 C-2.355168,6.618181 -2.364134,6.626151 -2.377086,6.626151 C-2.402988,6.572353 -2.44782,6.539476 -2.481693,6.539476 C-2.517559,6.539476 -2.534495,6.567371 -2.524533,6.627147 L-2.485678,6.852303 C-2.473723,6.922041 -2.48269,6.950933 -2.559402,6.950933 C-2.596264,6.950933 -2.611208,6.941967 -2.611208,6.941967 C-2.611208,6.941967 -2.602241,6.921045 -2.611208,6.866251 C-2.626152,6.777583 -2.668991,6.670983 -2.71183,6.606226 C-2.737733,6.566375 -2.763636,6.539476 -2.785554,6.539476 C-2.814445,6.539476 -2.828393,6.565379 -2.81843,6.622166 L-2.77858,6.852303 C-2.766625,6.922041 -2.775591,6.950933 -2.852303,6.950933 C-2.889165,6.950933 -2.904109,6.941967 -2.904109,6.941967 C-2.904109,6.941967 -2.894147,6.919053 -2.905105,6.856288 L-2.933997,6.690908 C-2.942963,6.639102 -2.945952,6.605229 -2.945952,6.568368 C-2.945952,6.499625 -2.904109,6.452801 -2.83736,6.452801 C-2.782565,6.452801 -2.738729,6.480696 -2.696886,6.537483 C-2.680946,6.558405 -2.666002,6.583312 -2.652054,6.611207 C-2.653051,6.597259 -2.653051,6.5863 -2.653051,6.577334 Z" /><path d="M-1.926774,6.869239 C-1.917808,6.923038 -1.90386,6.94097 -1.90386,6.94097 C-1.90386,6.94097 -1.9198,6.950933 -1.953673,6.950933 C-2.00249,6.950933 -2.027397,6.937982 -2.043337,6.902116 C-2.066251,6.931008 -2.101121,6.950933 -2.150934,6.950933 C-2.267497,6.950933 -2.397011,6.846325 -2.397011,6.624158 C-2.397011,6.507596 -2.332254,6.452801 -2.25056,6.452801 C-2.198754,6.452801 -2.148941,6.484681 -2.109091,6.54645 L-2.121046,6.475715 C-2.202739,6.435865 -2.254545,6.405977 -2.303362,6.363137 C-2.352179,6.321294 -2.387048,6.267496 -2.387048,6.208716 C-2.387048,6.146948 -2.343213,6.104109 -2.275467,6.104109 C-2.12802,6.104109 -2.035367,6.232627 -1.996513,6.46376 L-1.99452,6.475715 C-1.935741,6.504607 -1.872976,6.539476 -1.836114,6.567371 C-1.816189,6.582315 -1.80523,6.593274 -1.803238,6.603237 C-1.800249,6.618181 -1.810211,6.626151 -1.822167,6.626151 C-1.881942,6.577334 -1.984558,6.536487 -1.984558,6.536487 L-1.926774,6.869239 Z M-2.21071,6.539476 C-2.247571,6.539476 -2.269489,6.566375 -2.269489,6.622166 C-2.269489,6.782564 -2.192777,6.883187 -2.125031,6.883187 C-2.087173,6.883187 -2.068244,6.855292 -2.059277,6.835366 L-2.068244,6.788542 C-2.087173,6.688916 -2.139975,6.539476 -2.21071,6.539476 Z M-2.285429,6.169862 C-2.316314,6.169862 -2.331257,6.188791 -2.331257,6.214694 C-2.331257,6.249563 -2.311332,6.283436 -2.272478,6.321294 C-2.243586,6.350186 -2.197758,6.379077 -2.132005,6.41295 C-2.161893,6.253548 -2.215691,6.169862 -2.285429,6.169862 Z" /><path d="M-1.653797,6.775591 C-1.686674,6.792527 -1.702614,6.809464 -1.702614,6.838355 C-1.702614,6.873224 -1.675715,6.90112 -1.62092,6.90112 C-1.56513,6.90112 -1.536238,6.863262 -1.536238,6.816437 C-1.536238,6.798505 -1.541219,6.787546 -1.541219,6.787546 C-1.541219,6.787546 -1.527271,6.773598 -1.493399,6.773598 C-1.458529,6.773598 -1.427645,6.795516 -1.427645,6.833374 C-1.427645,6.88518 -1.485428,6.950933 -1.608965,6.950933 C-1.750435,6.950933 -1.820173,6.88518 -1.820173,6.804482 C-1.820173,6.737733 -1.781319,6.705852 -1.733498,6.679949 L-1.635864,6.628143 C-1.599999,6.609214 -1.587047,6.589289 -1.587047,6.565379 C-1.587047,6.532502 -1.613946,6.502614 -1.670734,6.502614 C-1.727521,6.50361 -1.753423,6.53848 -1.753423,6.587297 C-1.753423,6.605229 -1.748442,6.616188 -1.748442,6.616188 C-1.748442,6.616188 -1.76239,6.630136 -1.796263,6.630136 C-1.831132,6.630136 -1.862016,6.608218 -1.862016,6.57036 C-1.862016,6.518554 -1.808218,6.452801 -1.680696,6.452801 C-1.536238,6.452801 -1.469488,6.520547 -1.469488,6.599252 C-1.469488,6.652054 -1.495391,6.692901 -1.568118,6.730759 L-1.653797,6.775591 Z" /></g></g></g></g></g></g></g></g></g></svg>